<svg width="1556" height="1164" viewBox="0 0 1556 1164" fill="none" xmlns="http://www.w3.org/2000/svg">
<g opacity="0.75">
<g clip-path="url(#clip0_1250_2823)">
<path d="M-23.1549 246.917L-190.895 305.504L-168.895 368.508L-64.1477 331.92L-27.5594 436.667L35.4326 414.668L-23.1549 246.917Z" fill="white" fill-opacity="0.03"/>
<path d="M150.781 34.8208L-12.623 40.9131L-10.3341 102.275L91.6969 98.4717L95.5002 200.514L156.862 198.225L150.781 34.8208Z" fill="white" fill-opacity="0.03"/>
<path d="M378.716 -118.747L233.345 -157.52L218.779 -102.932L309.562 -78.7136L285.343 12.0693L339.931 26.6236L378.716 -118.747Z" fill="white" fill-opacity="0.03"/>
<path d="M1413.53 28.8321L1401.58 -78.3433L1361.34 -73.8579L1368.8 -6.93542L1301.87 0.532509L1306.36 40.7738L1413.53 28.8321Z" fill="white" fill-opacity="0.03"/>
<path d="M1590.95 241.541L1609.27 144.031L1572.65 137.141L1561.2 198.04L1500.32 186.595L1493.44 223.218L1590.95 241.541Z" fill="white" fill-opacity="0.03"/>
<path d="M29.1087 889.137L-44.0332 1029.57L8.70477 1057.04L54.3794 969.342L142.064 1015.02L169.543 962.29L29.1087 889.137Z" fill="white" fill-opacity="0.03"/>
<path d="M15.9874 665.109L-86.5869 768.585L-47.7213 807.104L16.3227 742.494L80.9446 806.538L119.463 767.684L15.9874 665.109Z" fill="white" fill-opacity="0.03"/>
<path d="M67.9397 446.272L-50.2988 509.496L-26.5656 553.899L47.2699 514.42L86.7598 588.256L131.163 564.511L67.9397 446.272Z" fill="white" fill-opacity="0.03"/>
<path d="M180.721 251.159L59.6504 274.835L68.5402 320.301L144.144 305.516L158.93 381.131L204.397 372.23L180.721 251.159Z" fill="white" fill-opacity="0.03"/>
<path d="M345.456 96.7711L232.593 84.5635L228.016 126.955L298.487 134.573L290.869 205.045L333.26 209.634L345.456 96.7711Z" fill="white" fill-opacity="0.03"/>
<path d="M548.154 -3.57129L452.169 -44.7837L436.701 -8.73874L496.63 16.9944L470.908 76.9345L506.941 92.4021L548.154 -3.57129Z" fill="white" fill-opacity="0.03"/>
<path d="M771.498 -41.1543L698.356 -103.487L674.946 -76.0201L720.621 -37.0966L681.686 8.57804L709.153 31.9876L771.498 -41.1543Z" fill="white" fill-opacity="0.03"/>
<path d="M996.448 -12.0688L949.109 -86.7598L921.064 -68.9801L950.623 -22.3343L903.978 7.21372L921.746 35.2705L996.448 -12.0688Z" fill="white" fill-opacity="0.03"/>
<path d="M1203.67 80.9342L1182.12 2.47461L1152.65 10.5668L1166.11 59.5592L1117.12 73.0154L1125.21 102.483L1203.67 80.9342Z" fill="white" fill-opacity="0.03"/>
<path d="M1375.07 230.35L1377.49 155.531L1349.4 154.618L1347.88 201.345L1301.17 199.83L1300.25 227.933L1375.07 230.35Z" fill="white" fill-opacity="0.03"/>
<path d="M1495.46 423.568L1517.88 358.449L1493.43 350.033L1479.43 390.691L1438.76 376.691L1430.34 401.141L1495.46 423.568Z" fill="white" fill-opacity="0.03"/>
<path d="M1554.79 643.573L1592.15 592.395L1572.94 578.361L1549.61 610.325L1517.64 586.985L1503.62 606.21L1554.79 643.573Z" fill="white" fill-opacity="0.03"/>
<path d="M1547.07 871.519L1593.83 836.699L1580.75 819.139L1551.55 840.884L1529.81 811.683L1512.25 824.757L1547.07 871.519Z" fill="white" fill-opacity="0.03"/>
<path d="M1473.24 1087.54L1523.75 1069.51L1516.98 1050.54L1485.44 1061.8L1474.18 1030.25L1455.21 1037.03L1473.24 1087.54Z" fill="white" fill-opacity="0.03"/>
<path d="M283.388 1120.35L279.966 1250.14L328.704 1251.42L330.843 1170.37L411.892 1172.53L413.186 1123.78L283.388 1120.35Z" fill="white" fill-opacity="0.03"/>
<path d="M193.195 959.955L154.792 1073.1L197.276 1087.51L221.252 1016.87L291.908 1040.84L306.324 998.358L193.195 959.955Z" fill="white" fill-opacity="0.03"/>
<path d="M152.814 779.996L88.3887 869.091L121.856 893.287L162.074 837.647L217.713 877.877L241.909 844.41L152.814 779.996Z" fill="white" fill-opacity="0.03"/>
<path d="M165.808 595.645L85.083 656.625L107.972 686.936L158.387 648.868L196.455 699.271L226.777 676.37L165.808 595.645Z" fill="white" fill-opacity="0.03"/>
<path d="M231.714 422.646L144.145 454.228L156.005 487.117L210.685 467.395L230.407 522.075L263.296 510.215L231.714 422.646Z" fill="white" fill-opacity="0.03"/>
<path d="M345.027 275.83L259.48 279.969L261.03 312.095L314.461 309.517L317.039 362.937L349.165 361.388L345.027 275.83Z" fill="white" fill-opacity="0.03"/>
<path d="M496.132 167.857L419.823 148.204L412.436 176.862L460.087 189.127L447.822 236.79L476.479 244.166L496.132 167.857Z" fill="white" fill-opacity="0.03"/>
<path d="M672.379 108.436L610.647 70.3916L596.358 93.5815L634.912 117.326L611.156 155.88L634.346 170.168L672.379 108.436Z" fill="white" fill-opacity="0.03"/>
<path d="M858.523 102.483L814.444 52.4043L795.635 68.9586L823.172 100.229L791.901 127.754L808.456 146.563L858.523 102.483Z" fill="white" fill-opacity="0.03"/>
<path d="M1038.56 150.991L1013.45 94.981L992.425 104.414L1008.1 139.384L973.131 155.071L982.553 176.099L1038.56 150.991Z" fill="white" fill-opacity="0.03"/>
<path d="M1196.75 250.12L1189.86 194.064L1168.81 196.654L1173.11 231.659L1138.11 235.947L1140.7 256.999L1196.75 250.12Z" fill="white" fill-opacity="0.03"/>
<path d="M1319.56 390.935L1328.7 339.793L1309.5 336.359L1303.79 368.289L1271.85 362.59L1268.42 381.791L1319.56 390.935Z" fill="white" fill-opacity="0.03"/>
<path d="M1395.81 561.716L1417.75 519.243L1401.81 511.001L1388.1 537.52L1361.58 523.821L1353.34 539.763L1395.81 561.716Z" fill="white" fill-opacity="0.03"/>
<path d="M1419.05 747.465L1449.8 716.021L1437.99 704.473L1418.79 724.102L1399.15 704.9L1387.6 716.715L1419.05 747.465Z" fill="white" fill-opacity="0.03"/>
<path d="M1387.08 932.049L1422.66 912.789L1415.43 899.426L1393.21 911.448L1381.19 889.229L1367.82 896.466L1387.08 932.049Z" fill="white" fill-opacity="0.03"/>
<path d="M1302.28 1099.23L1338.79 1092.02L1336.09 1078.3L1313.28 1082.81L1308.77 1060.01L1295.06 1062.71L1302.28 1099.23Z" fill="white" fill-opacity="0.03"/>
<path d="M556.385 1204.04L600.51 1300.93L636.902 1284.36L609.342 1223.85L669.849 1196.3L653.271 1159.91L556.385 1204.04Z" fill="white" fill-opacity="0.03"/>
<path d="M432.249 1118.25L444.619 1215.44L481.114 1210.79L473.392 1150.11L534.083 1142.38L529.436 1105.88L432.249 1118.25Z" fill="white" fill-opacity="0.03"/>
<path d="M337.802 1000.14L322.346 1088.96L355.709 1094.76L365.35 1039.29L420.816 1048.93L426.619 1015.58L337.802 1000.14Z" fill="white" fill-opacity="0.03"/>
<path d="M281.11 859.6L243.527 933.551L271.307 947.666L294.774 901.482L340.957 924.95L355.061 897.182L281.11 859.6Z" fill="white" fill-opacity="0.03"/>
<path d="M267.504 708.404L214.315 763.154L234.87 783.13L268.082 748.935L302.278 782.159L322.254 761.593L267.504 708.404Z" fill="white" fill-opacity="0.03"/>
<path d="M298.243 559.461L236.673 593.263L249.366 616.384L287.816 595.275L308.925 633.724L332.034 621.031L298.243 559.461Z" fill="white" fill-opacity="0.03"/>
<path d="M370.784 425.57L307.479 438.518L312.346 462.286L351.871 454.205L359.963 493.741L383.731 488.874L370.784 425.57Z" fill="white" fill-opacity="0.03"/>
<path d="M479.323 318.418L420.157 312.58L417.961 334.799L454.908 338.452L451.266 375.399L473.485 377.595L479.323 318.418Z" fill="white" fill-opacity="0.03"/>
<path d="M614.383 247.126L563.888 226.063L555.98 245.022L587.517 258.178L574.361 289.703L593.32 297.61L614.383 247.126Z" fill="white" fill-opacity="0.03"/>
<path d="M764.502 218.156L725.868 185.902L713.753 200.411L737.879 220.548L717.741 244.686L732.249 256.79L764.502 218.156Z" fill="white" fill-opacity="0.03"/>
<path d="M916.729 234.351L891.505 195.509L876.916 204.988L892.672 229.242L868.419 244.987L877.887 259.576L916.729 234.351Z" fill="white" fill-opacity="0.03"/>
<path d="M1057.86 293.991L1046.2 253.01L1030.82 257.38L1038.09 282.974L1012.5 290.245L1016.87 305.632L1057.86 293.991Z" fill="white" fill-opacity="0.03"/>
<path d="M1175.44 392.449L1176.35 353.26L1161.63 352.913L1161.07 377.386L1136.59 376.82L1136.25 391.536L1175.44 392.449Z" fill="white" fill-opacity="0.03"/>
<path d="M1259.34 520.988L1270.69 486.758L1257.84 482.492L1250.75 503.867L1229.38 496.781L1225.11 509.624L1259.34 520.988Z" fill="white" fill-opacity="0.03"/>
<path d="M1302.13 668.521L1321.43 641.539L1311.29 634.291L1299.25 651.146L1282.39 639.088L1275.14 649.227L1302.13 668.521Z" fill="white" fill-opacity="0.03"/>
<path d="M1299.73 822.226L1324.04 803.776L1317.12 794.643L1301.93 806.169L1290.41 790.979L1281.28 797.903L1299.73 822.226Z" fill="white" fill-opacity="0.03"/>
<path d="M1252.68 968.695L1279.03 958.984L1275.39 949.089L1258.94 955.158L1252.87 938.696L1242.97 942.338L1252.68 968.695Z" fill="white" fill-opacity="0.03"/>
<path d="M1164.63 1094.94L1190.43 1093.61L1189.93 1083.93L1173.82 1084.75L1173 1068.64L1163.3 1069.14L1164.63 1094.94Z" fill="white" fill-opacity="0.03"/>
<path d="M782.992 1158.2L850.342 1213.75L871.209 1188.46L829.152 1153.76L863.833 1111.71L838.539 1090.85L782.992 1158.2Z" fill="white" fill-opacity="0.03"/>
<path d="M660.661 1139.59L704.717 1206.78L729.942 1190.24L702.44 1148.28L744.392 1120.77L727.85 1095.54L660.661 1139.59Z" fill="white" fill-opacity="0.03"/>
<path d="M548.597 1086.49L569.139 1157.51L595.809 1149.8L582.977 1105.44L627.334 1092.62L619.611 1065.95L548.597 1086.49Z" fill="white" fill-opacity="0.03"/>
<path d="M456.298 1003.29L455.188 1071.3L480.725 1071.73L481.419 1029.26L523.891 1029.95L524.307 1004.4L456.298 1003.29Z" fill="white" fill-opacity="0.03"/>
<path d="M391.92 896.755L372.406 956.221L394.729 963.55L406.925 926.419L444.057 938.603L451.386 916.269L391.92 896.755Z" fill="white" fill-opacity="0.03"/>
<path d="M361.042 775.938L327.817 822.977L345.482 835.451L366.221 806.076L395.595 826.827L408.08 809.163L361.042 775.938Z" fill="white" fill-opacity="0.03"/>
<path d="M366.371 651.169L324.372 683.468L336.499 699.248L362.729 679.075L382.902 705.306L398.67 693.179L366.371 651.169Z" fill="white" fill-opacity="0.03"/>
<path d="M407.849 533.184L362.14 550.154L368.509 567.321L397.052 556.72L407.652 585.263L424.808 578.893L407.849 533.184Z" fill="white" fill-opacity="0.03"/>
<path d="M481.753 432.089L436.98 434.713L437.963 451.533L465.927 449.892L467.569 477.856L484.389 476.873L481.753 432.089Z" fill="white" fill-opacity="0.03"/>
<path d="M581.993 356.775L541.914 346.891L538.203 361.942L563.231 368.115L557.058 393.143L572.109 396.854L581.993 356.775Z" fill="white" fill-opacity="0.03"/>
<path d="M700 314.001L667.446 294.441L660.105 306.661L680.428 318.88L668.221 339.203L680.44 346.544L700 314.001Z" fill="white" fill-opacity="0.03"/>
<path d="M825.451 307.216L802.134 281.205L792.366 289.956L806.92 306.198L790.678 320.764L799.429 330.533L825.451 307.216Z" fill="white" fill-opacity="0.03"/>
<path d="M947.506 337.516L934.085 308.314L923.114 313.343L931.495 331.585L913.253 339.966L918.293 350.937L947.506 337.516Z" fill="white" fill-opacity="0.03"/>
<path d="M1055.55 402.102L1051.62 372.785L1040.61 374.265L1043.06 392.565L1024.76 395.016L1026.23 406.033L1055.55 402.102Z" fill="white" fill-opacity="0.03"/>
<path d="M1140.12 495.452L1144.64 468.62L1134.56 466.921L1131.74 483.672L1114.99 480.851L1113.29 490.92L1140.12 495.452Z" fill="white" fill-opacity="0.03"/>
<path d="M1193.6 609.598L1204.88 587.252L1196.5 583.01L1189.45 596.963L1175.5 589.911L1171.25 598.304L1193.6 609.598Z" fill="white" fill-opacity="0.03"/>
<path d="M1211.58 734.449L1227.51 717.825L1221.27 711.837L1211.31 722.23L1200.93 712.276L1194.94 718.519L1211.58 734.449Z" fill="white" fill-opacity="0.03"/>
<path d="M1192.06 859.15L1210.61 848.896L1206.75 841.937L1195.17 848.341L1188.77 836.758L1181.81 840.607L1192.06 859.15Z" fill="white" fill-opacity="0.03"/>
<path d="M1136.83 972.729L1155.9 968.718L1154.4 961.551L1142.48 964.059L1139.98 952.141L1132.82 953.655L1136.83 972.729Z" fill="white" fill-opacity="0.03"/>
<path d="M1050.83 1065.3L1068.69 1066.95L1069.32 1060.24L1058.16 1059.21L1059.19 1048.07L1052.49 1047.44L1050.83 1065.3Z" fill="white" fill-opacity="0.03"/>
<path d="M938.187 1046.6L1007.79 1063.33L1014.08 1037.19L970.613 1026.74L981.064 983.271L954.914 976.994L938.187 1046.6Z" fill="white" fill-opacity="0.03"/>
<path d="M841.344 1076.85L897.954 1110.54L910.601 1089.27L875.25 1068.24L896.278 1032.89L875.019 1020.24L841.344 1076.85Z" fill="white" fill-opacity="0.03"/>
<path d="M739.661 1078L780.33 1122.95L797.208 1107.68L771.81 1079.61L799.89 1054.22L784.619 1037.34L739.661 1078Z" fill="white" fill-opacity="0.03"/>
<path d="M641.733 1049.86L665.363 1100.39L684.333 1091.51L669.582 1059.96L701.13 1045.21L692.252 1026.23L641.733 1049.86Z" fill="white" fill-opacity="0.03"/>
<path d="M555.979 994.485L562.973 1045.33L582.071 1042.7L577.701 1010.96L609.457 1006.59L606.833 987.491L555.979 994.485Z" fill="white" fill-opacity="0.03"/>
<path d="M489.796 916.533L482.213 963.144L499.715 966L504.455 936.891L533.552 941.619L536.407 924.117L489.796 916.533Z" fill="white" fill-opacity="0.03"/>
<path d="M448.875 822.665L429.534 861.577L444.146 868.837L456.227 844.549L480.515 856.629L487.786 842.017L448.875 822.665Z" fill="white" fill-opacity="0.03"/>
<path d="M437.036 720.807L409.441 749.742L420.308 760.1L437.544 742.031L455.602 759.256L465.971 748.389L437.036 720.807Z" fill="white" fill-opacity="0.03"/>
<path d="M455.163 619.724L423.106 637.758L429.881 649.803L449.903 638.544L461.163 658.555L473.197 651.792L455.163 619.724Z" fill="white" fill-opacity="0.03"/>
<path d="M501.969 528.189L468.884 535.311L471.554 547.738L492.212 543.287L496.663 563.945L509.09 561.275L501.969 528.189Z" fill="white" fill-opacity="0.03"/>
<path d="M573.563 454.238L542.546 451.533L541.518 463.174L560.893 464.874L559.193 484.237L570.846 485.266L573.563 454.238Z" fill="white" fill-opacity="0.03"/>
<path d="M663.584 404.148L637.053 393.351L632.995 403.316L649.561 410.067L642.821 426.633L652.786 430.69L663.584 404.148Z" fill="white" fill-opacity="0.03"/>
<path d="M764.423 382.611L744.042 365.906L737.765 373.559L750.493 383.987L740.065 396.726L747.718 402.992L764.423 382.611Z" fill="white" fill-opacity="0.03"/>
<path d="M867.276 391.362L853.843 371.178L846.26 376.218L854.641 388.83L842.04 397.223L847.08 404.795L867.276 391.362Z" fill="white" fill-opacity="0.03"/>
<path d="M963.156 429.766L956.844 408.368L948.809 410.738L952.751 424.102L939.388 428.044L941.758 436.078L963.156 429.766Z" fill="white" fill-opacity="0.03"/>
<path d="M1043.6 494.665L1043.89 474.146L1036.19 474.03L1036.01 486.851L1023.19 486.666L1023.08 494.376L1043.6 494.665Z" fill="white" fill-opacity="0.03"/>
<path d="M1101.74 580.234L1107.5 562.246L1100.75 560.084L1097.15 571.309L1085.91 567.714L1083.75 574.465L1101.74 580.234Z" fill="white" fill-opacity="0.03"/>
<path d="M1132.18 679.143L1142.16 664.924L1136.81 661.179L1130.58 670.057L1121.71 663.826L1117.96 669.167L1132.18 679.143Z" fill="white" fill-opacity="0.03"/>
<path d="M1132.29 782.713L1144.92 772.898L1141.23 768.159L1133.36 774.285L1127.23 766.401L1122.49 770.089L1132.29 782.713Z" fill="white" fill-opacity="0.03"/>
<path d="M1102.2 881.853L1115.95 876.639L1113.99 871.472L1105.4 874.732L1102.16 866.143L1096.99 868.096L1102.2 881.853Z" fill="white" fill-opacity="0.03"/>
<path d="M1010.33 909.482L1067.65 896.789L1062.89 875.264L1027.1 883.194L1019.18 847.403L997.653 852.166L1010.33 909.482Z" fill="white" fill-opacity="0.03"/>
<path d="M949.838 966.602L1003.67 971.064L1005.35 950.857L971.733 948.059L974.531 914.442L954.312 912.766L949.838 966.602Z" fill="white" fill-opacity="0.03"/>
<path d="M875.311 1004L921.448 1022.51L928.395 1005.19L899.587 993.617L911.147 964.809L893.83 957.861L875.311 1004Z" fill="white" fill-opacity="0.03"/>
<path d="M793.022 1018.46L828.593 1047.2L839.391 1033.85L817.172 1015.9L835.125 993.676L821.761 982.879L793.022 1018.46Z" fill="white" fill-opacity="0.03"/>
<path d="M709.918 1008.46L733.351 1043.43L746.483 1034.63L731.848 1012.8L753.674 998.161L744.876 985.04L709.918 1008.46Z" fill="white" fill-opacity="0.03"/>
<path d="M633.109 974.809L644.288 1011.89L658.207 1007.7L651.236 984.543L674.391 977.572L670.195 963.642L633.109 974.809Z" fill="white" fill-opacity="0.03"/>
<path d="M569.216 920.337L568.938 955.966L582.325 956.07L582.499 933.816L604.741 933.99L604.845 920.614L569.216 920.337Z" fill="white" fill-opacity="0.03"/>
<path d="M523.876 849.52L513.935 880.767L525.668 884.489L531.876 864.987L551.378 871.183L555.112 859.45L523.876 849.52Z" fill="white" fill-opacity="0.03"/>
<path d="M500.907 768.505L483.752 793.325L493.081 799.764L503.786 784.262L519.277 794.978L525.716 785.649L500.907 768.505Z" fill="white" fill-opacity="0.03"/>
<path d="M502.491 684.219L480.665 701.363L487.104 709.559L500.734 698.854L511.438 712.484L519.635 706.045L502.491 684.219Z" fill="white" fill-opacity="0.03"/>
<path d="M528.675 603.979L504.838 613.134L508.271 622.082L523.161 616.371L528.872 631.261L537.831 627.816L528.675 603.979Z" fill="white" fill-opacity="0.03"/>
<path d="M577.02 534.709L553.576 536.293L554.177 545.09L568.813 544.096L569.795 558.731L578.604 558.142L577.02 534.709Z" fill="white" fill-opacity="0.03"/>
<path d="M643.596 482.584L622.568 477.59L620.695 485.497L633.828 488.607L630.718 501.739L638.614 503.612L643.596 482.584Z" fill="white" fill-opacity="0.03"/>
<path d="M722.54 452.065L705.385 442.02L701.604 448.459L712.321 454.736L706.044 465.452L712.494 469.221L722.54 452.065Z" fill="white" fill-opacity="0.03"/>
<path d="M807.011 445.904L794.676 432.39L789.601 437.025L797.312 445.464L788.873 453.175L793.509 458.238L807.011 445.904Z" fill="white" fill-opacity="0.03"/>
<path d="M889.632 464.817L882.476 449.58L876.754 452.274L881.228 461.788L871.714 466.262L874.407 471.972L889.632 464.817Z" fill="white" fill-opacity="0.03"/>
<path d="M963.238 506.976L961.019 491.647L955.262 492.48L956.649 502.052L947.077 503.439L947.909 509.196L963.238 506.976Z" fill="white" fill-opacity="0.03"/>
<path d="M1021.22 568.939L1023.47 554.87L1018.18 554.026L1016.78 562.812L1008 561.413L1007.15 566.696L1021.22 568.939Z" fill="white" fill-opacity="0.03"/>
<path d="M1058.54 645.214L1064.32 633.458L1059.89 631.284L1056.28 638.636L1048.94 635.03L1046.77 639.446L1058.54 645.214Z" fill="white" fill-opacity="0.03"/>
<path d="M1072 729.107L1080.26 720.321L1076.97 717.223L1071.8 722.702L1066.32 717.546L1063.21 720.841L1072 729.107Z" fill="white" fill-opacity="0.03"/>
</g>
</g>
<defs>
<clipPath id="clip0_1250_2823">
<rect width="2070.78" height="2008.42" fill="white" transform="translate(-283.781 -298)"/>
</clipPath>
</defs>
</svg>
