<svg width="45" height="45" viewBox="0 0 45 45" fill="none" xmlns="http://www.w3.org/2000/svg">
<rect width="45" height="45" rx="10" fill="#14B58A"/>
<path opacity="0.4" fill-rule="evenodd" clip-rule="evenodd" d="M21 16.25C21.4142 16.25 21.75 16.5858 21.75 17V22C21.75 22.3228 21.5434 22.6094 21.2371 22.7115L18.2371 23.7115C17.8442 23.8425 17.4194 23.6301 17.2884 23.2372C17.1575 22.8442 17.3698 22.4195 17.7628 22.2885L20.25 21.4594V17C20.25 16.5858 20.5857 16.25 21 16.25Z" fill="white"/>
<path fill-rule="evenodd" clip-rule="evenodd" d="M23 26.75C22.3097 26.75 21.75 27.3096 21.75 28V28.5C21.75 28.9142 21.4143 29.25 21 29.25C20.5858 29.25 20.25 28.9142 20.25 28.5V28C20.25 26.4812 21.4813 25.25 23 25.25C24.5188 25.25 25.75 26.4812 25.75 28C25.75 28.8656 25.3425 29.6807 24.65 30.2L23.25 31.25H25C25.4143 31.25 25.75 31.5858 25.75 32C25.75 32.4142 25.4143 32.75 25 32.75H21C20.6772 32.75 20.3906 32.5434 20.2885 32.2372C20.1865 31.9309 20.2918 31.5937 20.55 31.4L23.75 29C24.0648 28.7639 24.25 28.3934 24.25 28C24.25 27.3096 23.6904 26.75 23 26.75Z" fill="white"/>
<path fill-rule="evenodd" clip-rule="evenodd" d="M27 25.25C27.4142 25.25 27.75 25.5858 27.75 26V27C27.75 27.6904 28.3096 28.25 29 28.25H30.25V26C30.25 25.5858 30.5858 25.25 31 25.25C31.4142 25.25 31.75 25.5858 31.75 26V32C31.75 32.4142 31.4142 32.75 31 32.75C30.5858 32.75 30.25 32.4142 30.25 32V29.75H29C27.4812 29.75 26.25 28.5188 26.25 27V26C26.25 25.5858 26.5858 25.25 27 25.25Z" fill="white"/>
<path opacity="0.4" fill-rule="evenodd" clip-rule="evenodd" d="M10.25 16C10.25 13.3766 12.3766 11.25 15 11.25H27C29.6234 11.25 31.75 13.3766 31.75 16V22C31.75 22.3033 31.5673 22.5768 31.287 22.6929C31.0068 22.809 30.6842 22.7448 30.4697 22.5303L28.4697 20.5303C28.1768 20.2374 28.1768 19.7626 28.4697 19.4697C28.7626 19.1768 29.2374 19.1768 29.5303 19.4697L30.25 20.1893V16C30.25 14.2051 28.7949 12.75 27 12.75H15C13.2051 12.75 11.75 14.2051 11.75 16V28C11.75 29.7949 13.2051 31.25 15 31.25H18C18.4142 31.25 18.75 31.5858 18.75 32C18.75 32.4142 18.4142 32.75 18 32.75H15C12.3766 32.75 10.25 30.6234 10.25 28V16Z" fill="white"/>
</svg>
