<svg width="73" height="73" viewBox="0 0 73 73" fill="none" xmlns="http://www.w3.org/2000/svg">
<g filter="url(#filter0_d_514_3306)">
<rect x="14" y="10" width="45" height="45" rx="10" fill="#9BCF2C" fill-opacity="0.3" shape-rendering="crispEdges"/>
<rect x="14.5" y="10.5" width="44" height="44" rx="9.5" stroke="#9BCF2C" shape-rendering="crispEdges"/>
</g>
<path opacity="0.4" fill-rule="evenodd" clip-rule="evenodd" d="M35 26.25C35.4142 26.25 35.75 26.5858 35.75 27V32C35.75 32.3228 35.5434 32.6094 35.2371 32.7115L32.2371 33.7115C31.8442 33.8425 31.4194 33.6301 31.2884 33.2372C31.1575 32.8442 31.3698 32.4195 31.7628 32.2885L34.25 31.4594V27C34.25 26.5858 34.5857 26.25 35 26.25Z" fill="#9BCF2C"/>
<path fill-rule="evenodd" clip-rule="evenodd" d="M37 36.75C36.3097 36.75 35.75 37.3096 35.75 38V38.5C35.75 38.9142 35.4143 39.25 35 39.25C34.5858 39.25 34.25 38.9142 34.25 38.5V38C34.25 36.4812 35.4813 35.25 37 35.25C38.5188 35.25 39.75 36.4812 39.75 38C39.75 38.8656 39.3425 39.6807 38.65 40.2L37.25 41.25H39C39.4143 41.25 39.75 41.5858 39.75 42C39.75 42.4142 39.4143 42.75 39 42.75H35C34.6772 42.75 34.3906 42.5434 34.2885 42.2372C34.1865 41.9309 34.2918 41.5937 34.55 41.4L37.75 39C38.0648 38.7639 38.25 38.3934 38.25 38C38.25 37.3096 37.6904 36.75 37 36.75Z" fill="#9BCF2C"/>
<path fill-rule="evenodd" clip-rule="evenodd" d="M41 35.25C41.4142 35.25 41.75 35.5858 41.75 36V37C41.75 37.6904 42.3096 38.25 43 38.25H44.25V36C44.25 35.5858 44.5858 35.25 45 35.25C45.4142 35.25 45.75 35.5858 45.75 36V42C45.75 42.4142 45.4142 42.75 45 42.75C44.5858 42.75 44.25 42.4142 44.25 42V39.75H43C41.4812 39.75 40.25 38.5188 40.25 37V36C40.25 35.5858 40.5858 35.25 41 35.25Z" fill="#9BCF2C"/>
<path fill-rule="evenodd" clip-rule="evenodd" d="M24.25 26C24.25 23.3766 26.3766 21.25 29 21.25H41C43.6234 21.25 45.75 23.3766 45.75 26V32C45.75 32.3033 45.5673 32.5768 45.287 32.6929C45.0068 32.809 44.6842 32.7448 44.4697 32.5303L42.4697 30.5303C42.1768 30.2374 42.1768 29.7626 42.4697 29.4697C42.7626 29.1768 43.2374 29.1768 43.5303 29.4697L44.25 30.1893V26C44.25 24.2051 42.7949 22.75 41 22.75H29C27.2051 22.75 25.75 24.2051 25.75 26V38C25.75 39.7949 27.2051 41.25 29 41.25H32C32.4142 41.25 32.75 41.5858 32.75 42C32.75 42.4142 32.4142 42.75 32 42.75H29C26.3766 42.75 24.25 40.6234 24.25 38V26Z" fill="#9BCF2C"/>
<defs>
<filter id="filter0_d_514_3306" x="0" y="0" width="73" height="73" filterUnits="userSpaceOnUse" color-interpolation-filters="sRGB">
<feFlood flood-opacity="0" result="BackgroundImageFix"/>
<feColorMatrix in="SourceAlpha" type="matrix" values="0 0 0 0 0 0 0 0 0 0 0 0 0 0 0 0 0 0 127 0" result="hardAlpha"/>
<feOffset dy="4"/>
<feGaussianBlur stdDeviation="7"/>
<feComposite in2="hardAlpha" operator="out"/>
<feColorMatrix type="matrix" values="0 0 0 0 0.607843 0 0 0 0 0.811765 0 0 0 0 0.172549 0 0 0 0.5 0"/>
<feBlend mode="normal" in2="BackgroundImageFix" result="effect1_dropShadow_514_3306"/>
<feBlend mode="normal" in="SourceGraphic" in2="effect1_dropShadow_514_3306" result="shape"/>
</filter>
</defs>
</svg>
