<svg width="459" height="469" viewBox="0 0 459 469" fill="none" xmlns="http://www.w3.org/2000/svg">
<g filter="url(#filter0_f_838_9599)">
<path fill-rule="evenodd" clip-rule="evenodd" d="M285.456 92.1502L281.388 89.8258L279.23 88.9956L276.822 88.9126L274.083 89.4937L271.177 90.8219L104.069 187.368L101.164 189.36L98.4241 191.934L95.9336 194.839L93.8583 198.16L92.0319 201.646L90.7037 205.216L89.8736 208.869L89.5415 212.355V320.689L89.8736 323.927L90.7037 326.5L92.0319 328.576L93.8583 330.07L97.926 332.394L96.0997 330.983L94.7714 328.908L93.9413 326.251L93.6922 323.097L93.6092 214.763L93.9413 211.193L94.7714 207.623L96.0997 203.971L97.926 200.484L100.001 197.247L102.492 194.258L105.231 191.685L108.137 189.692L275.245 93.2294L278.151 91.8181L280.89 91.237L283.298 91.403L285.456 92.1502Z" fill="#626F70"/>
<path fill-rule="evenodd" clip-rule="evenodd" d="M93.6089 214.763V323.097C93.6089 332.312 100.084 336.047 108.053 331.482L275.245 234.936C283.214 230.37 289.689 219.08 289.689 209.865V101.531C289.689 92.3167 283.214 88.581 275.245 93.1468L108.136 189.693C100.167 194.259 93.6919 205.549 93.6919 214.763H93.6089Z" fill="#E6EAEB"/>
<path fill-rule="evenodd" clip-rule="evenodd" d="M93.6919 227.548L93.6089 261.086L289.689 147.854V114.316L93.6919 227.548Z" fill="#1D6362"/>
<path fill-rule="evenodd" clip-rule="evenodd" d="M177.62 378.468L173.552 376.06L171.809 374.649L170.481 372.574L169.65 369.917L169.318 366.763V258.262L169.65 254.776L170.481 251.123L171.809 247.554L173.552 244.067L175.71 240.746L178.118 237.841L180.857 235.267L183.763 233.275L350.954 136.729L353.86 135.401L356.516 134.82L359.007 134.903L361.165 135.733L365.233 138.057L363.074 137.31L360.584 137.144L357.927 137.725L355.022 139.054L187.831 235.6L184.925 237.592L182.186 240.165L179.778 243.154L177.62 246.391L175.877 249.878L174.548 253.531L173.718 257.1L173.386 260.67V369.087L173.718 372.324L174.548 374.898L175.877 376.973L177.62 378.468Z" fill="#626F70"/>
<path fill-rule="evenodd" clip-rule="evenodd" d="M187.83 235.6L355.022 139.054C362.991 134.488 369.466 138.224 369.466 147.439V255.939C369.466 265.153 362.991 276.36 355.022 281.009L187.83 377.555C179.861 382.121 173.386 378.385 173.386 369.17V260.67C173.386 251.456 179.861 240.249 187.83 235.6Z" fill="#1D6362"/>
<path fill-rule="evenodd" clip-rule="evenodd" d="M351.452 189.693C351.452 182.305 351.452 174.917 351.452 167.612C351.452 166.2 350.456 165.619 349.211 166.366C334.932 174.585 320.654 182.803 306.458 191.105C305.213 191.769 304.217 193.512 304.217 194.923C304.217 202.312 304.217 209.617 304.217 217.005C304.217 218.416 305.213 218.998 306.458 218.25C320.737 210.032 335.015 201.814 349.211 193.512C350.456 192.765 351.452 191.105 351.452 189.693Z" fill="#E6EAEB"/>
<path fill-rule="evenodd" clip-rule="evenodd" d="M197.377 345.594L226.681 328.659C227.926 327.912 228.923 326.252 228.923 324.84V319.694C228.923 318.282 227.926 317.701 226.681 318.448L197.377 335.383C196.132 336.13 195.136 337.791 195.136 339.202V344.349C195.136 345.76 196.132 346.341 197.377 345.594Z" fill="#E6EAEB"/>
<path fill-rule="evenodd" clip-rule="evenodd" d="M238.22 322.018L267.525 305.083C268.77 304.336 269.766 302.676 269.766 301.264V296.117C269.766 294.706 268.77 294.125 267.525 294.872L238.22 311.807C236.975 312.471 235.979 314.215 235.979 315.626V320.773C235.979 322.184 236.975 322.765 238.22 322.018Z" fill="#E6EAEB"/>
<path fill-rule="evenodd" clip-rule="evenodd" d="M279.064 298.443L308.368 281.508C309.613 280.844 310.609 279.1 310.609 277.689V272.542C310.609 271.131 309.613 270.55 308.368 271.297L279.064 288.232C277.818 288.979 276.822 290.639 276.822 292.051V297.198C276.822 298.609 277.818 299.19 279.064 298.443Z" fill="#E6EAEB"/>
<path fill-rule="evenodd" clip-rule="evenodd" d="M319.907 274.866L349.211 257.931C350.456 257.184 351.452 255.523 351.452 254.112V248.965C351.452 247.554 350.456 246.973 349.211 247.72L319.907 264.655C318.662 265.402 317.666 267.062 317.666 268.473V273.62C317.666 275.032 318.662 275.613 319.907 274.866Z" fill="#E6EAEB"/>
<path fill-rule="evenodd" clip-rule="evenodd" d="M195.219 277.356C195.219 274.617 197.128 271.213 199.536 269.885C208.501 264.738 217.467 259.508 226.432 254.361C228.84 252.95 230.749 254.112 230.749 256.852V280.511C230.749 283.25 228.84 286.654 226.432 287.982C217.467 293.129 208.501 298.359 199.536 303.506C197.128 304.917 195.219 303.755 195.219 301.015V277.356Z" fill="#FFCB05"/>
</g>
<path fill-rule="evenodd" clip-rule="evenodd" d="M285.456 64.2376L281.388 61.9132L279.23 61.083L276.822 61L274.083 61.5811L271.177 62.9093L104.069 159.455L101.164 161.448L98.4241 164.021L95.9336 166.927L93.8583 170.247L92.0319 173.734L90.7037 177.303L89.8736 180.956L89.5415 184.443V292.777L89.8736 296.014L90.7037 298.588L92.0319 300.663L93.8583 302.157L97.926 304.482L96.0997 303.07L94.7714 300.995L93.9413 298.339L93.6922 295.184L93.6092 186.85L93.9413 183.28L94.7714 179.711L96.0997 176.058L97.926 172.572L100.001 169.334L102.492 166.345L105.231 163.772L108.137 161.78L275.245 65.3168L278.151 63.9055L280.89 63.3244L283.298 63.4904L285.456 64.2376Z" fill="#626F70"/>
<path fill-rule="evenodd" clip-rule="evenodd" d="M93.6089 186.851V295.185C93.6089 304.399 100.084 308.135 108.053 303.569L275.245 207.023C283.214 202.457 289.689 191.167 289.689 181.953V73.6187C289.689 64.4041 283.214 60.6684 275.245 65.2342L108.136 161.78C100.167 166.346 93.6919 177.636 93.6919 186.851H93.6089Z" fill="#E6EAEB"/>
<path fill-rule="evenodd" clip-rule="evenodd" d="M93.6919 199.635L93.6089 233.173L289.689 119.941V86.4033L93.6919 199.635Z" fill="#1D6362"/>
<path fill-rule="evenodd" clip-rule="evenodd" d="M177.62 350.555L173.552 348.148L171.809 346.736L170.481 344.661L169.65 342.004L169.318 338.85V230.35L169.65 226.863L170.481 223.211L171.809 219.641L173.552 216.154L175.71 212.834L178.118 209.928L180.857 207.355L183.763 205.362L350.954 108.817L353.86 107.488L356.516 106.907L359.007 106.99L361.165 107.82L365.233 110.145L363.074 109.398L360.584 109.232L357.927 109.813L355.022 111.141L187.831 207.687L184.925 209.679L182.186 212.253L179.778 215.241L177.62 218.479L175.877 221.965L174.548 225.618L173.718 229.188L173.386 232.757V341.174L173.718 344.412L174.548 346.985L175.877 349.061L177.62 350.555Z" fill="#626F70"/>
<path fill-rule="evenodd" clip-rule="evenodd" d="M187.83 207.687L355.022 111.141C362.991 106.576 369.466 110.311 369.466 119.526V228.026C369.466 237.241 362.991 248.448 355.022 253.096L187.83 349.642C179.861 354.208 173.386 350.472 173.386 341.258V232.758C173.386 223.543 179.861 212.336 187.83 207.687Z" fill="#1D6362"/>
<path fill-rule="evenodd" clip-rule="evenodd" d="M351.452 161.781C351.452 154.393 351.452 147.004 351.452 139.699C351.452 138.288 350.456 137.707 349.211 138.454C334.932 146.672 320.654 154.891 306.458 163.192C305.213 163.856 304.217 165.599 304.217 167.011C304.217 174.399 304.217 181.704 304.217 189.093C304.217 190.504 305.213 191.085 306.458 190.338C320.737 182.119 335.015 173.901 349.211 165.599C350.456 164.852 351.452 163.192 351.452 161.781Z" fill="#E6EAEB"/>
<path fill-rule="evenodd" clip-rule="evenodd" d="M197.377 317.682L226.681 300.747C227.926 299.999 228.923 298.339 228.923 296.928V291.781C228.923 290.37 227.926 289.789 226.681 290.536L197.377 307.471C196.132 308.218 195.136 309.878 195.136 311.289V316.436C195.136 317.848 196.132 318.429 197.377 317.682Z" fill="#E6EAEB"/>
<path fill-rule="evenodd" clip-rule="evenodd" d="M238.22 294.105L267.525 277.17C268.77 276.423 269.766 274.763 269.766 273.352V268.205C269.766 266.794 268.77 266.212 267.525 266.96L238.22 283.895C236.975 284.559 235.979 286.302 235.979 287.713V292.86C235.979 294.271 236.975 294.852 238.22 294.105Z" fill="#E6EAEB"/>
<path fill-rule="evenodd" clip-rule="evenodd" d="M279.064 270.53L308.368 253.595C309.613 252.931 310.609 251.188 310.609 249.777V244.63C310.609 243.218 309.613 242.637 308.368 243.384L279.064 260.319C277.818 261.066 276.822 262.727 276.822 264.138V269.285C276.822 270.696 277.818 271.277 279.064 270.53Z" fill="#E6EAEB"/>
<path fill-rule="evenodd" clip-rule="evenodd" d="M319.907 246.953L349.211 230.018C350.456 229.271 351.452 227.611 351.452 226.199V221.052C351.452 219.641 350.456 219.06 349.211 219.807L319.907 236.742C318.662 237.489 317.666 239.15 317.666 240.561V245.708C317.666 247.119 318.662 247.7 319.907 246.953Z" fill="#E6EAEB"/>
<path fill-rule="evenodd" clip-rule="evenodd" d="M195.219 249.444C195.219 246.704 197.128 243.3 199.536 241.972C208.501 236.825 217.467 231.595 226.432 226.449C228.84 225.037 230.749 226.199 230.749 228.939V252.598C230.749 255.338 228.84 258.741 226.432 260.069C217.467 265.216 208.501 270.446 199.536 275.593C197.128 277.004 195.219 275.842 195.219 273.103V249.444Z" fill="#FFCB05"/>
<circle cx="362.1" cy="284.301" r="50.8996" fill="url(#paint0_linear_838_9599)"/>
<path d="M374.871 271.53L349.329 297.073M374.871 297.073L349.329 271.53" stroke="white" stroke-width="2.46288" stroke-linecap="round" stroke-linejoin="round"/>
<defs>
<filter id="filter0_f_838_9599" x="0.877747" y="0.24884" width="457.252" height="467.916" filterUnits="userSpaceOnUse" color-interpolation-filters="sRGB">
<feFlood flood-opacity="0" result="BackgroundImageFix"/>
<feBlend mode="normal" in="SourceGraphic" in2="BackgroundImageFix" result="shape"/>
<feGaussianBlur stdDeviation="44.3319" result="effect1_foregroundBlur_838_9599"/>
</filter>
<linearGradient id="paint0_linear_838_9599" x1="362.1" y1="233.402" x2="335.009" y2="336.843" gradientUnits="userSpaceOnUse">
<stop stop-color="#8C2020"/>
<stop offset="1" stop-color="#B96464"/>
</linearGradient>
</defs>
</svg>
