<svg width="397" height="406" viewBox="0 0 397 406" fill="none" xmlns="http://www.w3.org/2000/svg">
<rect opacity="0.1" x="139" y="168" width="202" height="202" rx="101" fill="#35BD5B"/>
<rect opacity="0.1" x="168.43" y="197.431" width="143.139" height="143.139" rx="71.5695" fill="#35BD5B"/>
<g filter="url(#filter0_f_838_9286)">
<path fill-rule="evenodd" clip-rule="evenodd" d="M246.592 79.9647L243.071 77.9526L241.203 77.234L239.119 77.1621L236.747 77.6651L234.232 78.8149L89.5757 162.389L87.0605 164.114L84.6891 166.342L82.5333 168.857L80.7368 171.731L79.1558 174.749L78.0061 177.839L77.2874 181.001L77 184.02V277.798L77.2874 280.601L78.0061 282.829L79.1558 284.625L80.7368 285.919L84.258 287.931L82.677 286.709L81.5272 284.912L80.8086 282.613L80.5931 279.882L80.5212 186.104L80.8086 183.013L81.5272 179.923L82.677 176.762L84.258 173.743L86.0545 170.941L88.2103 168.354L90.5817 166.126L93.0969 164.401L237.753 80.8989L240.268 79.6772L242.64 79.1742L244.724 79.3179L246.592 79.9647Z" fill="#626F70"/>
<path fill-rule="evenodd" clip-rule="evenodd" d="M80.521 186.104V279.882C80.521 287.859 86.1262 291.093 93.0248 287.14L237.753 203.566C244.652 199.614 250.257 189.84 250.257 181.864V88.0852C250.257 80.1086 244.652 76.8748 237.753 80.8272L93.0967 164.402C86.198 168.354 80.5929 178.127 80.5929 186.104H80.521Z" fill="#E6EAEB"/>
<path fill-rule="evenodd" clip-rule="evenodd" d="M80.5929 197.171L80.521 226.203L250.257 128.184V99.1523L80.5929 197.171Z" fill="#1D6362"/>
<path fill-rule="evenodd" clip-rule="evenodd" d="M153.245 327.814L149.724 325.73L148.214 324.508L147.065 322.712L146.346 320.412L146.059 317.682V223.759L146.346 220.741L147.065 217.579L148.214 214.489L149.724 211.471L151.592 208.597L153.676 206.081L156.047 203.854L158.562 202.129L303.291 118.555L305.806 117.405L308.105 116.902L310.261 116.974L312.13 117.692L315.651 119.704L313.782 119.058L311.627 118.914L309.327 119.417L306.812 120.567L162.084 204.141L159.568 205.866L157.197 208.094L155.113 210.681L153.245 213.483L151.736 216.501L150.586 219.663L149.867 222.753L149.58 225.843V319.694L149.867 322.496L150.586 324.724L151.736 326.521L153.245 327.814Z" fill="#626F70"/>
<path fill-rule="evenodd" clip-rule="evenodd" d="M162.083 204.141L306.812 120.567C313.71 116.615 319.315 119.848 319.315 127.825V221.747C319.315 229.724 313.71 239.425 306.812 243.449L162.083 327.024C155.185 330.976 149.58 327.742 149.58 319.766V225.843C149.58 217.867 155.185 208.166 162.083 204.141Z" fill="#1D6362"/>
<path fill-rule="evenodd" clip-rule="evenodd" d="M303.722 164.403C303.722 158.007 303.722 151.611 303.722 145.287C303.722 144.066 302.859 143.563 301.781 144.21C289.421 151.324 277.061 158.438 264.773 165.624C263.695 166.199 262.833 167.708 262.833 168.93C262.833 175.325 262.833 181.649 262.833 188.045C262.833 189.266 263.695 189.769 264.773 189.123C277.133 182.008 289.493 174.894 301.781 167.708C302.859 167.061 303.722 165.624 303.722 164.403Z" fill="#E6EAEB"/>
<path fill-rule="evenodd" clip-rule="evenodd" d="M170.347 299.357L195.714 284.697C196.792 284.051 197.655 282.613 197.655 281.392V276.936C197.655 275.715 196.792 275.212 195.714 275.858L170.347 290.518C169.27 291.165 168.407 292.602 168.407 293.824V298.279C168.407 299.501 169.27 300.004 170.347 299.357Z" fill="#E6EAEB"/>
<path fill-rule="evenodd" clip-rule="evenodd" d="M205.703 278.948L231.07 264.289C232.148 263.642 233.01 262.205 233.01 260.983V256.528C233.01 255.306 232.148 254.803 231.07 255.45L205.703 270.109C204.625 270.684 203.763 272.193 203.763 273.415V277.87C203.763 279.092 204.625 279.595 205.703 278.948Z" fill="#E6EAEB"/>
<path fill-rule="evenodd" clip-rule="evenodd" d="M241.059 258.541L266.426 243.881C267.504 243.306 268.366 241.797 268.366 240.575V236.12C268.366 234.898 267.504 234.395 266.426 235.042L241.059 249.702C239.981 250.348 239.119 251.786 239.119 253.007V257.463C239.119 258.684 239.981 259.187 241.059 258.541Z" fill="#E6EAEB"/>
<path fill-rule="evenodd" clip-rule="evenodd" d="M276.415 238.131L301.782 223.472C302.859 222.825 303.722 221.388 303.722 220.166V215.711C303.722 214.489 302.859 213.986 301.782 214.633L276.415 229.293C275.337 229.939 274.474 231.377 274.474 232.598V237.054C274.474 238.275 275.337 238.778 276.415 238.131Z" fill="#E6EAEB"/>
<path fill-rule="evenodd" clip-rule="evenodd" d="M168.479 240.287C168.479 237.916 170.132 234.969 172.216 233.82C179.977 229.364 187.738 224.837 195.499 220.382C197.583 219.16 199.236 220.166 199.236 222.538V243.018C199.236 245.389 197.583 248.336 195.499 249.485C187.738 253.941 179.977 258.468 172.216 262.923C170.132 264.145 168.479 263.139 168.479 260.768V240.287Z" fill="#FFCB05"/>
</g>
<path fill-rule="evenodd" clip-rule="evenodd" d="M246.592 55.8026L243.071 53.7905L241.203 53.0719L239.119 53L236.747 53.503L234.232 54.6528L89.5757 138.227L87.0605 139.952L84.6891 142.18L82.5333 144.695L80.7368 147.569L79.1558 150.587L78.0061 153.677L77.2874 156.839L77 159.857V253.636L77.2874 256.439L78.0061 258.666L79.1558 260.463L80.7368 261.756L84.258 263.769L82.677 262.547L81.5272 260.75L80.8086 258.451L80.5931 255.72L80.5212 161.941L80.8086 158.851L81.5272 155.761L82.677 152.599L84.258 149.581L86.0545 146.779L88.2103 144.192L90.5817 141.964L93.0969 140.239L237.753 56.7368L240.268 55.5151L242.64 55.0121L244.724 55.1558L246.592 55.8026Z" fill="#626F70"/>
<path fill-rule="evenodd" clip-rule="evenodd" d="M80.521 161.942V255.72C80.521 263.697 86.1262 266.931 93.0248 262.978L237.753 179.404C244.652 175.451 250.257 165.678 250.257 157.702V63.923C250.257 55.9465 244.652 52.7127 237.753 56.6651L93.0967 140.24C86.198 144.192 80.5929 153.965 80.5929 161.942H80.521Z" fill="#E6EAEB"/>
<path fill-rule="evenodd" clip-rule="evenodd" d="M80.5929 173.009L80.521 202.041L250.257 104.022V74.9902L80.5929 173.009Z" fill="#1D6362"/>
<path fill-rule="evenodd" clip-rule="evenodd" d="M153.245 303.652L149.724 301.568L148.214 300.346L147.065 298.549L146.346 296.25L146.059 293.519V199.597L146.346 196.579L147.065 193.417L148.214 190.327L149.724 187.308L151.592 184.434L153.676 181.919L156.047 179.691L158.562 177.966L303.291 94.3921L305.806 93.2423L308.105 92.7393L310.261 92.8111L312.13 93.5297L315.651 95.5418L313.782 94.8951L311.627 94.7514L309.327 95.2544L306.812 96.4042L162.084 179.979L159.568 181.703L157.197 183.931L155.113 186.518L153.245 189.321L151.736 192.339L150.586 195.501L149.867 198.591L149.58 201.681V295.531L149.867 298.334L150.586 300.561L151.736 302.358L153.245 303.652Z" fill="#626F70"/>
<path fill-rule="evenodd" clip-rule="evenodd" d="M162.083 179.979L306.812 96.4043C313.71 92.452 319.315 95.6857 319.315 103.662V197.585C319.315 205.561 313.71 215.263 306.812 219.287L162.083 302.861C155.185 306.814 149.58 303.58 149.58 295.603V201.681C149.58 193.704 155.185 184.003 162.083 179.979Z" fill="#1D6362"/>
<path fill-rule="evenodd" clip-rule="evenodd" d="M303.722 140.24C303.722 133.844 303.722 127.449 303.722 121.125C303.722 119.903 302.859 119.4 301.781 120.047C289.421 127.161 277.061 134.275 264.773 141.462C263.695 142.036 262.833 143.546 262.833 144.767C262.833 151.163 262.833 157.487 262.833 163.882C262.833 165.104 263.695 165.607 264.773 164.96C277.133 157.846 289.493 150.732 301.781 143.546C302.859 142.899 303.722 141.462 303.722 140.24Z" fill="#E6EAEB"/>
<path fill-rule="evenodd" clip-rule="evenodd" d="M170.347 275.194L195.714 260.535C196.792 259.888 197.655 258.451 197.655 257.229V252.774C197.655 251.552 196.792 251.049 195.714 251.696L170.347 266.356C169.27 267.002 168.407 268.44 168.407 269.661V274.117C168.407 275.338 169.27 275.841 170.347 275.194Z" fill="#E6EAEB"/>
<path fill-rule="evenodd" clip-rule="evenodd" d="M205.703 254.786L231.07 240.127C232.148 239.48 233.01 238.043 233.01 236.821V232.366C233.01 231.144 232.148 230.641 231.07 231.288L205.703 245.947C204.625 246.522 203.763 248.031 203.763 249.253V253.708C203.763 254.93 204.625 255.433 205.703 254.786Z" fill="#E6EAEB"/>
<path fill-rule="evenodd" clip-rule="evenodd" d="M241.059 234.378L266.426 219.718C267.504 219.144 268.366 217.634 268.366 216.413V211.957C268.366 210.736 267.504 210.233 266.426 210.879L241.059 225.539C239.981 226.186 239.119 227.623 239.119 228.845V233.3C239.119 234.522 239.981 235.025 241.059 234.378Z" fill="#E6EAEB"/>
<path fill-rule="evenodd" clip-rule="evenodd" d="M276.415 213.969L301.782 199.309C302.859 198.662 303.722 197.225 303.722 196.004V191.548C303.722 190.327 302.859 189.824 301.782 190.47L276.415 205.13C275.337 205.777 274.474 207.214 274.474 208.436V212.891C274.474 214.113 275.337 214.616 276.415 213.969Z" fill="#E6EAEB"/>
<path fill-rule="evenodd" clip-rule="evenodd" d="M168.479 216.125C168.479 213.753 170.132 210.807 172.216 209.657C179.977 205.202 187.738 200.674 195.499 196.219C197.583 194.997 199.236 196.003 199.236 198.375V218.855C199.236 221.227 197.583 224.173 195.499 225.323C187.738 229.778 179.977 234.305 172.216 238.761C170.132 239.982 168.479 238.976 168.479 236.605V216.125Z" fill="#FFCB05"/>
<circle cx="312.939" cy="246.299" r="44.0609" fill="url(#paint0_linear_838_9286)"/>
<g clip-path="url(#clip0_838_9286)">
<path d="M292.082 248.121C296.009 251.951 299.932 255.782 303.859 259.612C305.53 261.244 309.267 260.465 310.714 258.865C318.308 250.478 325.903 242.087 333.497 233.7C336.658 230.209 329.058 229.833 327.067 232.037C319.473 240.423 311.878 248.815 304.284 257.201C306.569 256.952 308.853 256.703 311.138 256.454C307.211 252.624 303.288 248.794 299.36 244.963C297.195 242.85 289.71 245.8 292.082 248.121Z" fill="white"/>
</g>
<defs>
<filter id="filter0_f_838_9286" x="0.248726" y="0.410835" width="395.818" height="405.049" filterUnits="userSpaceOnUse" color-interpolation-filters="sRGB">
<feFlood flood-opacity="0" result="BackgroundImageFix"/>
<feBlend mode="normal" in="SourceGraphic" in2="BackgroundImageFix" result="shape"/>
<feGaussianBlur stdDeviation="38.3756" result="effect1_foregroundBlur_838_9286"/>
</filter>
<linearGradient id="paint0_linear_838_9286" x1="312.939" y1="202.238" x2="289.487" y2="291.781" gradientUnits="userSpaceOnUse">
<stop stop-color="#208C8A"/>
<stop offset="1" stop-color="#22C188"/>
</linearGradient>
<clipPath id="clip0_838_9286">
<rect width="42.6396" height="29.8477" fill="white" transform="translate(291.619 230.665)"/>
</clipPath>
</defs>
</svg>
