<svg width="45" height="45" viewBox="0 0 45 45" fill="none" xmlns="http://www.w3.org/2000/svg">
<rect width="45" height="45" rx="10" fill="#0E979F"/>
<path d="M18.3922 17.1526C18.5531 16.4769 19.1569 16 19.8515 16H24.1485C24.8431 16 25.4469 16.4769 25.6078 17.1526L26.5601 21.1526C26.7846 22.0951 26.0698 23 25.1009 23H18.8991C17.9302 23 17.2154 22.0951 17.4399 21.1526L18.3922 17.1526Z" fill="white"/>
<path opacity="0.4" d="M13.3923 24.1526C13.5532 23.4769 14.1569 23 14.8515 23H19.1486C19.8432 23 20.4469 23.4769 20.6078 24.1526L21.5602 28.1526C21.7846 29.0951 21.0699 30 20.101 30H13.8991C12.9302 30 12.2155 29.0951 12.4399 28.1526L13.3923 24.1526Z" fill="white"/>
<path opacity="0.4" d="M23.3923 24.1526C23.5532 23.4769 24.1569 23 24.8515 23H29.1486C29.8432 23 30.4469 23.4769 30.6078 24.1526L31.5602 28.1526C31.7846 29.0951 31.0699 30 30.101 30H23.8991C22.9302 30 22.2155 29.0951 22.4399 28.1526L23.3923 24.1526Z" fill="white"/>
<path opacity="0.4" fill-rule="evenodd" clip-rule="evenodd" d="M22 11.25C22.4142 11.25 22.75 11.5858 22.75 12V13C22.75 13.4142 22.4142 13.75 22 13.75C21.5858 13.75 21.25 13.4142 21.25 13V12C21.25 11.5858 21.5858 11.25 22 11.25Z" fill="white"/>
<path opacity="0.4" fill-rule="evenodd" clip-rule="evenodd" d="M28.5303 12.4697C28.8232 12.7626 28.8232 13.2374 28.5303 13.5303L27.5303 14.5303C27.2374 14.8232 26.7626 14.8232 26.4697 14.5303C26.1768 14.2374 26.1768 13.7626 26.4697 13.4697L27.4697 12.4697C27.7626 12.1768 28.2374 12.1768 28.5303 12.4697Z" fill="white"/>
<path opacity="0.4" fill-rule="evenodd" clip-rule="evenodd" d="M15.4697 12.4697C15.7626 12.1768 16.2374 12.1768 16.5303 12.4697L17.5303 13.4697C17.8232 13.7626 17.8232 14.2374 17.5303 14.5303C17.2374 14.8232 16.7626 14.8232 16.4697 14.5303L15.4697 13.5303C15.1768 13.2374 15.1768 12.7626 15.4697 12.4697Z" fill="white"/>
</svg>
