<svg width="73" height="73" viewBox="0 0 73 73" fill="none" xmlns="http://www.w3.org/2000/svg">
<g filter="url(#filter0_d_548_2458)">
<rect x="14" y="10" width="45" height="44" rx="10" fill="#359E10" fill-opacity="0.3" />
<rect x="14.5" y="9.5" width="44" height="44" rx="9.5" stroke="#359E10" shape-rendering="auto"/>
</g>
<path d="M32.3922 27.1526C32.5531 26.4769 33.1569 26 33.8515 26H38.1485C38.8431 26 39.4469 26.4769 39.6078 27.1526L40.5601 31.1526C40.7846 32.0951 40.0698 33 39.1009 33H32.8991C31.9302 33 31.2154 32.0951 31.4399 31.1526L32.3922 27.1526Z" fill="#359E10"/>
<path opacity="0.7" d="M27.3923 34.1526C27.5532 33.4769 28.1569 33 28.8515 33H33.1486C33.8432 33 34.4469 33.4769 34.6078 34.1526L35.5602 38.1526C35.7846 39.0951 35.0699 40 34.101 40H27.8991C26.9302 40 26.2155 39.0951 26.4399 38.1526L27.3923 34.1526Z" fill="#359E10"/>
<path opacity="0.7" d="M37.3923 34.1526C37.5532 33.4769 38.1569 33 38.8515 33H43.1486C43.8432 33 44.4469 33.4769 44.6078 34.1526L45.5602 38.1526C45.7846 39.0951 45.0699 40 44.101 40H37.8991C36.9302 40 36.2155 39.0951 36.4399 38.1526L37.3923 34.1526Z" fill="#359E10"/>
<path opacity="0.4" fill-rule="evenodd" clip-rule="evenodd" d="M36 21.25C36.4142 21.25 36.75 21.5858 36.75 22V23C36.75 23.4142 36.4142 23.75 36 23.75C35.5858 23.75 35.25 23.4142 35.25 23V22C35.25 21.5858 35.5858 21.25 36 21.25Z" fill="#359E10"/>
<path opacity="0.4" fill-rule="evenodd" clip-rule="evenodd" d="M42.5303 22.4697C42.8232 22.7626 42.8232 23.2374 42.5303 23.5303L41.5303 24.5303C41.2374 24.8232 40.7626 24.8232 40.4697 24.5303C40.1768 24.2374 40.1768 23.7626 40.4697 23.4697L41.4697 22.4697C41.7626 22.1768 42.2374 22.1768 42.5303 22.4697Z" fill="#359E10"/>
<path opacity="0.4" fill-rule="evenodd" clip-rule="evenodd" d="M29.4697 22.4697C29.7626 22.1768 30.2374 22.1768 30.5303 22.4697L31.5303 23.4697C31.8232 23.7626 31.8232 24.2374 31.5303 24.5303C31.2374 24.8232 30.7626 24.8232 30.4697 24.5303L29.4697 23.5303C29.1768 23.2374 29.1768 22.7626 29.4697 22.4697Z" fill="#359E10"/>
<defs>
<filter id="filter0_d_548_2458" x="0" y="0" width="73" height="73" filterUnits="userSpaceOnUse" color-interpolation-filters="sRGB">
<feFlood flood-opacity="0" result="BackgroundImageFix"/>
<feColorMatrix in="SourceAlpha" type="matrix" values="0 0 0 0 0 0 0 0 0 0 0 0 0 0 0 0 0 0 127 0" result="hardAlpha"/>
<feOffset dy="4"/>
<feGaussianBlur stdDeviation="7"/>
<feComposite in2="hardAlpha" operator="out"/>
<feColorMatrix type="matrix" values="0 0 0 0 0.207843 0 0 0 0 0.619608 0 0 0 0 0.0627451 0 0 0 0.5 0"/>
<feBlend mode="normal" in2="BackgroundImageFix" result="effect1_dropShadow_548_2458"/>
<feBlend mode="normal" in="SourceGraphic" in2="effect1_dropShadow_548_2458" result="shape"/>
</filter>
</defs>
</svg>
