<svg width="41" height="38" viewBox="0 0 41 38" fill="none" xmlns="http://www.w3.org/2000/svg">
<g opacity="0.2">
<path opacity="0.4" d="M2.69336 5.72373C2.69336 3.97483 4.22305 2.55707 6.11003 2.55707H14.5207C16.4077 2.55707 17.9374 3.97483 17.9374 5.72373V13.519C17.9374 15.2679 16.4077 16.6857 14.5207 16.6857H6.11003C4.22305 16.6857 2.69336 15.2679 2.69336 13.519V5.72373Z" fill="#24324D"/>
<path opacity="0.4" d="M23.0625 24.6023C23.0625 22.8534 24.5922 21.4357 26.4792 21.4357H34.8899C36.7768 21.4357 38.3065 22.8534 38.3065 24.6023V32.3976C38.3065 34.1465 36.7768 35.5643 34.8899 35.5643H26.4792C24.5922 35.5643 23.0625 34.1465 23.0625 32.3976V24.6023Z" fill="#24324D"/>
<ellipse cx="10.3154" cy="28.5" rx="7.62201" ry="7.0643" fill="#24324D"/>
<path fill-rule="evenodd" clip-rule="evenodd" d="M30.7503 3.16669C31.4579 3.16669 32.0316 3.69835 32.0316 4.35419V8.31252H36.3024C37.01 8.31252 37.5837 8.84418 37.5837 9.50002C37.5837 10.1559 37.01 10.6875 36.3024 10.6875H32.0316V14.6459C32.0316 15.3017 31.4579 15.8334 30.7503 15.8334C30.0427 15.8334 29.4691 15.3017 29.4691 14.6459V10.6875H25.1982C24.4906 10.6875 23.917 10.1559 23.917 9.50002C23.917 8.84418 24.4906 8.31252 25.1982 8.31252H29.4691V4.35419C29.4691 3.69835 30.0427 3.16669 30.7503 3.16669Z" fill="#24324D"/>
</g>
</svg>
