<svg width="38" height="38" viewBox="0 0 38 38" fill="none" xmlns="http://www.w3.org/2000/svg">
<path d="M38.0001 19.3505C38.0001 20.8905 34.9463 22.0085 34.5666 23.4288C34.1738 24.8983 36.2477 27.3911 35.5035 28.6775C34.7485 29.9826 31.5458 29.4274 30.4866 30.4865C29.4275 31.5457 29.9827 34.7482 28.6776 35.5034C27.3912 36.2478 24.8984 34.1737 23.4289 34.5665C22.0086 34.9462 20.8906 38 19.3506 38C17.8106 38 16.6926 34.9462 15.2724 34.5665C13.8029 34.1737 11.3101 36.2476 10.0236 35.5034C8.71855 34.7484 9.27368 31.5457 8.21457 30.4865C7.15546 29.4274 3.95292 29.9826 3.19771 28.6775C2.4533 27.3909 4.52738 24.8983 4.13462 23.4288C3.75474 22.0085 0.700928 20.8905 0.700928 19.3505C0.700928 17.8105 3.75474 16.6925 4.13443 15.2723C4.52719 13.8028 2.4533 11.31 3.19752 10.0235C3.95254 8.71845 7.15527 9.27358 8.21438 8.21447C9.27349 7.15535 8.71836 3.95281 10.0234 3.1976C11.3099 2.45319 13.8027 4.52727 15.2722 4.13451C16.6924 3.75482 17.8106 0.701012 19.3504 0.701012C20.8902 0.701012 22.0084 3.75482 23.4287 4.13451C24.8982 4.52727 27.391 2.45338 28.6774 3.1976C29.9825 3.95262 29.4273 7.15516 30.4865 8.21447C31.5456 9.27358 34.7481 8.71845 35.5033 10.0235C36.2477 11.31 34.1737 13.8028 34.5664 15.2723C34.9461 16.6925 37.9999 17.8105 37.9999 19.3505H38.0001Z" fill="#F5C54A"/>
<path d="M38.0001 19.3505C38.0001 20.8905 34.9463 22.0085 34.5666 23.4288C34.1738 24.8983 36.2477 27.3911 35.5035 28.6775C34.7485 29.9826 31.5458 29.4274 30.4866 30.4865C29.4275 31.5457 29.9827 34.7482 28.6776 35.5034C27.3912 36.2478 24.8984 34.1737 23.4289 34.5665C22.0086 34.9462 20.8906 38 19.3506 38C17.8106 38 16.6926 34.9462 15.2724 34.5665C13.8029 34.1737 11.3101 36.2476 10.0236 35.5034C8.71855 34.7484 9.27368 31.5457 8.21457 30.4865C7.15546 29.4274 3.95292 29.9826 3.19771 28.6775C2.4533 27.3909 4.52738 24.8983 4.13462 23.4288C3.75474 22.0085 0.700928 20.8905 0.700928 19.3505C0.700928 17.8105 3.75474 16.6925 4.13443 15.2723C4.52719 13.8028 2.4533 11.31 3.19752 10.0235C3.95254 8.71845 7.15527 9.27358 8.21438 8.21447C9.27349 7.15535 8.71836 3.95281 10.0234 3.1976C11.3099 2.45319 13.8027 4.52727 15.2722 4.13451C16.6924 3.75482 17.8106 0.701012 19.3504 0.701012C20.8902 0.701012 22.0084 3.75482 23.4287 4.13451C24.8982 4.52727 27.391 2.45338 28.6774 3.1976C29.9825 3.95262 29.4273 7.15516 30.4865 8.21447C31.5456 9.27358 34.7481 8.71845 35.5033 10.0235C36.2477 11.31 34.1737 13.8028 34.5664 15.2723C34.9461 16.6925 37.9999 17.8105 37.9999 19.3505H38.0001Z" fill="#47ADE6"/>
<path d="M16.4694 25.8824L12.2944 21.7075C11.9185 21.3316 11.9185 20.7223 12.2944 20.3464L13.4753 19.1654C13.8512 18.7895 14.4605 18.7895 14.8364 19.1654L17.1436 21.4728L25.1417 13.4203C25.5162 13.043 26.1258 13.0411 26.5028 13.4157L27.6875 14.5925C28.0647 14.9671 28.0666 15.5766 27.6921 15.9536L17.8328 25.8801C17.4573 26.2581 16.8461 26.2592 16.4694 25.8824Z" fill="#EDEDED"/>
</svg>
