<svg width="45" height="45" viewBox="0 0 45 45" fill="none" xmlns="http://www.w3.org/2000/svg">
<rect width="45" height="45" rx="10" fill="#087CB0"/>
<path opacity="0.4" fill-rule="evenodd" clip-rule="evenodd" d="M30.5243 17.2135C30.9264 17.4815 31.0351 18.0248 30.767 18.4269L24.0225 28.5435C23.7545 28.9456 23.2112 29.0543 22.8091 28.7862C22.407 28.5182 22.2984 27.9749 22.5665 27.5728L29.3109 17.4561C29.579 17.054 30.1222 16.9454 30.5243 17.2135ZM13.8335 23.8749C14.1234 23.4883 14.6719 23.41 15.0585 23.6999L20.6583 27.8998C21.0449 28.1897 21.1232 28.7382 20.8333 29.1248C20.5433 29.5114 19.9949 29.5897 19.6083 29.2998L14.0085 25.0999C13.6219 24.81 13.5435 24.2615 13.8335 23.8749Z" fill="white"/>
<path d="M15 23C15 23.5253 14.8264 24.0101 14.5335 24.4001C14.1078 24.9668 13.4301 25.3333 12.6667 25.3333C11.378 25.3333 10.3334 24.2887 10.3334 23C10.3334 21.7113 11.378 20.6667 12.6667 20.6667C13.9554 20.6667 15 21.7113 15 23Z" fill="white"/>
<path d="M24.3334 30C24.3334 31.2887 23.2887 32.3333 22 32.3333C20.7114 32.3333 19.6667 31.2887 19.6667 30C19.6667 29.4747 19.8403 28.9899 20.1333 28.5999C20.559 28.0332 21.2367 27.6667 22 27.6667C22.4789 27.6667 22.9241 27.8109 23.2945 28.0583C23.9208 28.4768 24.3334 29.1902 24.3334 30Z" fill="white"/>
<path d="M33.6667 16C33.6667 17.2887 32.622 18.3333 31.3334 18.3333C30.8545 18.3333 30.4093 18.1891 30.0389 17.9417C29.4126 17.5233 29 16.8098 29 16C29 14.7113 30.0447 13.6667 31.3334 13.6667C32.622 13.6667 33.6667 14.7113 33.6667 16Z" fill="white"/>
</svg>
