<svg width="73" height="73" viewBox="0 0 73 73" fill="none" xmlns="http://www.w3.org/2000/svg">
<g filter="url(#filter0_d_548_2487)">
<rect x="14" y="10" width="45" height="44" rx="10" fill="#109E9A" fill-opacity="0.3"/>
<rect x="14.5" y="9.5" width="44" height="44" rx="9.5" stroke="#109E9A" shape-rendering="auto"/>
</g>
<path opacity="0.4" fill-rule="evenodd" clip-rule="evenodd" d="M44.5243 27.2135C44.9264 27.4815 45.0351 28.0248 44.767 28.4269L38.0225 38.5435C37.7545 38.9456 37.2112 39.0543 36.8091 38.7862C36.407 38.5182 36.2984 37.9749 36.5665 37.5728L43.3109 27.4561C43.579 27.054 44.1222 26.9454 44.5243 27.2135ZM27.8335 33.8749C28.1234 33.4883 28.6719 33.41 29.0585 33.6999L34.6583 37.8998C35.0449 38.1897 35.1232 38.7382 34.8333 39.1248C34.5433 39.5114 33.9949 39.5897 33.6083 39.2998L28.0085 35.0999C27.6219 34.81 27.5435 34.2615 27.8335 33.8749Z" fill="#109E9A"/>
<path d="M29 33C29 33.5253 28.8264 34.0101 28.5335 34.4001C28.1078 34.9668 27.4301 35.3333 26.6667 35.3333C25.378 35.3333 24.3334 34.2887 24.3334 33C24.3334 31.7113 25.378 30.6667 26.6667 30.6667C27.9554 30.6667 29 31.7113 29 33Z" fill="#109E9A"/>
<path d="M38.3334 40C38.3334 41.2887 37.2887 42.3333 36 42.3333C34.7114 42.3333 33.6667 41.2887 33.6667 40C33.6667 39.4747 33.8403 38.9899 34.1333 38.5999C34.559 38.0332 35.2367 37.6667 36 37.6667C36.4789 37.6667 36.9241 37.8109 37.2945 38.0583C37.9208 38.4768 38.3334 39.1902 38.3334 40Z" fill="#109E9A"/>
<path d="M47.6667 26C47.6667 27.2887 46.622 28.3333 45.3334 28.3333C44.8545 28.3333 44.4093 28.1891 44.0389 27.9417C43.4126 27.5233 43 26.8098 43 26C43 24.7113 44.0447 23.6667 45.3334 23.6667C46.622 23.6667 47.6667 24.7113 47.6667 26Z" fill="#109E9A"/>
<defs>
<filter id="filter0_d_548_2487" x="0" y="0" width="73" height="73" filterUnits="userSpaceOnUse" color-interpolation-filters="sRGB">
<feFlood flood-opacity="0" result="BackgroundImageFix"/>
<feColorMatrix in="SourceAlpha" type="matrix" values="0 0 0 0 0 0 0 0 0 0 0 0 0 0 0 0 0 0 127 0" result="hardAlpha"/>
<feOffset dy="4"/>
<feGaussianBlur stdDeviation="7"/>
<feComposite in2="hardAlpha" operator="out"/>
<feColorMatrix type="matrix" values="0 0 0 0 0.0627451 0 0 0 0 0.619608 0 0 0 0 0.603922 0 0 0 0.5 0"/>
<feBlend mode="normal" in2="BackgroundImageFix" result="effect1_dropShadow_548_2487"/>
<feBlend mode="normal" in="SourceGraphic" in2="effect1_dropShadow_548_2487" result="shape"/>
</filter>
</defs>
</svg>
