<svg width="252" height="173" viewBox="0 0 252 173" fill="none" xmlns="http://www.w3.org/2000/svg">
<g opacity="0.3" filter="url(#filter0_f_1637_2784)">
<g filter="url(#filter1_b_1637_2784)">
<rect x="74.3262" y="2" width="106.965" height="53.7834" rx="9.14668" transform="rotate(13.2487 74.3262 2)" fill="white" fill-opacity="0.82"/>
<rect x="74.3262" y="2" width="106.965" height="53.7834" rx="9.14668" transform="rotate(13.2487 74.3262 2)" fill="url(#paint0_linear_1637_2784)" fill-opacity="0.2"/>
<rect x="74.5693" y="2.39284" width="106.312" height="53.1301" rx="8.82001" transform="rotate(13.2487 74.5693 2.39284)" stroke="url(#paint1_linear_1637_2784)" stroke-opacity="0.28" stroke-width="0.653334"/>
</g>
<path d="M98.6581 34.8114C98.6786 34.7243 98.7224 34.6599 98.7897 34.6183L103.859 30.658C104.141 30.437 104.379 30.2059 104.574 29.9644C104.769 29.723 104.903 29.4444 104.977 29.1287C105.075 28.7149 105.026 28.3358 104.832 27.9912C104.648 27.6491 104.322 27.423 103.854 27.3128C103.407 27.2077 103.029 27.2508 102.72 27.4423C102.411 27.6338 102.179 27.9354 102.024 28.3472C101.977 28.4509 101.907 28.4804 101.814 28.4356L100.446 27.8032C100.342 27.7558 100.314 27.6802 100.361 27.5765C100.471 27.2575 100.639 26.9581 100.866 26.6783C101.093 26.3984 101.372 26.1653 101.703 25.979C102.037 25.7818 102.417 25.6531 102.845 25.5929C103.284 25.5354 103.765 25.5681 104.287 25.6911C104.81 25.8142 105.253 26.0048 105.618 26.263C105.982 26.5211 106.267 26.8238 106.473 27.171C106.692 27.5098 106.827 27.8864 106.879 28.3008C106.944 28.7069 106.925 29.1277 106.823 29.5632C106.705 30.064 106.504 30.505 106.218 30.886C105.936 31.2562 105.585 31.5988 105.166 31.9138L101.01 35.072L101.002 35.1047L105.118 36.0737C105.227 36.0993 105.268 36.1666 105.243 36.2755L104.935 37.582C104.909 37.6909 104.842 37.7325 104.733 37.7069L98.4945 36.238C98.3857 36.2124 98.344 36.1451 98.3697 36.0362L98.6581 34.8114ZM107.787 36.0989C107.791 35.9849 107.851 35.9244 107.968 35.9174L109.466 35.9253C109.569 35.9266 109.625 35.9801 109.635 36.0858C109.678 36.4406 109.808 36.7644 110.027 37.0571C110.245 37.3498 110.583 37.55 111.04 37.6577C111.563 37.7807 112.001 37.7232 112.356 37.4849C112.714 37.2359 112.949 36.8718 113.062 36.3927C113.195 35.8266 113.135 35.3472 112.883 34.9545C112.633 34.551 112.231 34.2838 111.676 34.1531L111.202 34.0416C111.093 34.016 111.051 33.9487 111.077 33.8398L111.381 32.5496C111.407 32.4407 111.474 32.3991 111.583 32.4248L112.024 32.5286C112.514 32.6439 112.94 32.5892 113.303 32.3645C113.666 32.1397 113.906 31.7824 114.021 31.2924C114.126 30.846 114.08 30.456 113.883 30.1223C113.688 29.7777 113.357 29.5502 112.889 29.44C112.475 29.3426 112.124 29.3691 111.836 29.5196C111.548 29.6701 111.313 29.908 111.133 30.2333C111.078 30.3236 111.003 30.3463 110.91 30.3015L109.599 29.648C109.495 29.6006 109.467 29.525 109.515 29.4213C109.659 29.0991 109.852 28.817 110.093 28.575C110.347 28.3246 110.635 28.128 110.956 27.9852C111.29 27.8341 111.657 27.7423 112.055 27.7096C112.464 27.6796 112.892 27.7171 113.339 27.8222C113.861 27.9453 114.306 28.1304 114.673 28.3777C115.04 28.625 115.327 28.9168 115.535 29.253C115.754 29.5919 115.89 29.9685 115.942 30.3829C116.007 30.789 115.987 31.2152 115.882 31.6616C115.772 32.1298 115.566 32.5409 115.264 32.8951C114.965 33.2383 114.576 33.4973 114.099 33.6721L114.091 33.7048C114.239 33.8086 114.381 33.9626 114.516 34.167C114.655 34.3604 114.768 34.5881 114.855 34.8501C114.943 35.112 114.995 35.4057 115.01 35.7311C115.039 36.0481 115.011 36.3863 114.926 36.7456C114.806 37.2573 114.61 37.6995 114.338 38.0722C114.067 38.4449 113.738 38.7411 113.353 38.9607C112.979 39.1829 112.561 39.3257 112.098 39.389C111.637 39.4415 111.156 39.4088 110.656 39.2908C109.785 39.0858 109.087 38.7033 108.564 38.1435C108.041 37.5836 107.782 36.9021 107.787 36.0989ZM116.897 38.6403C116.923 38.5314 116.99 38.4898 117.099 38.5154L118.732 38.8999C118.841 38.9256 118.883 38.9928 118.857 39.1017L118.465 40.7675C118.439 40.8764 118.372 40.918 118.263 40.8924L116.63 40.5079C116.521 40.4822 116.479 40.415 116.505 40.3061L116.897 38.6403ZM121.449 39.5396C121.442 39.423 121.439 39.2901 121.439 39.1409C121.442 38.9807 121.463 38.7729 121.5 38.5174C121.551 38.2535 121.618 37.9189 121.702 37.5134C121.788 37.0971 121.907 36.5678 122.058 35.9254C122.21 35.2831 122.338 34.7617 122.444 34.3615C122.552 33.9503 122.641 33.6208 122.711 33.3729C122.794 33.1167 122.869 32.9217 122.935 32.7879C123.001 32.654 123.064 32.5311 123.125 32.419C123.507 31.7734 124.003 31.3271 124.613 31.08C125.236 30.8245 125.961 30.7942 126.789 30.989C127.616 31.1838 128.246 31.5333 128.679 32.0374C129.126 32.5332 129.381 33.1564 129.446 33.9071C129.45 34.0345 129.452 34.1729 129.451 34.3221C129.451 34.4713 129.425 34.6779 129.374 34.9418C129.337 35.1973 129.275 35.5332 129.189 35.9495C129.105 36.3549 128.987 36.8788 128.836 37.5212C128.685 38.1636 128.555 38.6903 128.447 39.1015C128.341 39.5018 128.246 39.83 128.163 40.0862C128.093 40.3341 128.024 40.5303 127.956 40.6751C127.89 40.8089 127.827 40.9265 127.769 41.0276C127.376 41.6706 126.868 42.1198 126.245 42.3753C125.635 42.6224 124.917 42.6486 124.089 42.4538C123.262 42.259 122.625 41.9136 122.179 41.4179C121.746 40.9137 121.502 40.2876 121.449 39.5396ZM123.326 39.6196C123.394 40.2562 123.777 40.6566 124.474 40.8206C125.171 40.9847 125.697 40.7984 126.053 40.2617C126.107 40.1823 126.151 40.0894 126.188 39.9831C126.235 39.8794 126.291 39.7145 126.356 39.4884C126.421 39.2623 126.498 38.9587 126.588 38.5777C126.688 38.1991 126.812 37.6996 126.958 37.079C127.104 36.4584 127.216 35.9563 127.295 35.5726C127.385 35.1916 127.451 34.8854 127.494 34.6542C127.537 34.423 127.561 34.2504 127.565 34.1364C127.579 34.025 127.581 33.9219 127.568 33.8271C127.489 33.1879 127.101 32.7862 126.404 32.6222C125.707 32.4581 125.186 32.6457 124.841 33.1849C124.788 33.2643 124.738 33.3559 124.69 33.4597C124.654 33.566 124.603 33.7322 124.538 33.9582C124.474 34.1843 124.391 34.4866 124.29 34.8651C124.201 35.2462 124.083 35.747 123.937 36.3676C123.79 36.9882 123.673 37.4891 123.583 37.8701C123.504 38.2538 123.443 38.5612 123.4 38.7924C123.357 39.0236 123.328 39.1949 123.314 39.3064C123.31 39.4204 123.314 39.5248 123.326 39.6196ZM130.565 41.686C130.558 41.5695 130.555 41.4366 130.556 41.2873C130.559 41.1272 130.579 40.9194 130.617 40.6638C130.667 40.4 130.734 40.0653 130.818 39.6599C130.905 39.2436 131.024 38.7143 131.175 38.0719C131.326 37.4295 131.455 36.9082 131.561 36.5079C131.669 36.0967 131.758 35.7672 131.828 35.5194C131.911 35.2632 131.986 35.0682 132.052 34.9343C132.118 34.8005 132.181 34.6775 132.242 34.5655C132.624 33.9199 133.12 33.4736 133.729 33.2264C134.353 32.971 135.078 32.9407 135.905 33.1355C136.733 33.3303 137.363 33.6798 137.796 34.1839C138.242 34.6797 138.498 35.3029 138.562 36.0535C138.567 36.181 138.569 36.3193 138.568 36.4686C138.567 36.6178 138.542 36.8243 138.491 37.0882C138.454 37.3438 138.392 37.6797 138.305 38.096C138.222 38.5014 138.104 39.0253 137.953 39.6677C137.801 40.31 137.672 40.8368 137.563 41.248C137.458 41.6483 137.363 41.9765 137.28 42.2327C137.21 42.4805 137.141 42.6768 137.072 42.8216C137.006 42.9554 136.944 43.0729 136.886 43.1741C136.493 43.8171 135.985 44.2663 135.362 44.5218C134.752 44.7689 134.034 44.7951 133.206 44.6002C132.379 44.4054 131.742 44.0601 131.295 43.5643C130.862 43.0602 130.619 42.4341 130.565 41.686ZM132.443 41.766C132.511 42.4027 132.894 42.803 133.591 42.9671C134.287 43.1311 134.814 42.9448 135.17 42.4082C135.223 42.3288 135.268 42.2359 135.305 42.1296C135.352 42.0258 135.408 41.8609 135.473 41.6348C135.538 41.4088 135.615 41.1052 135.704 40.7241C135.805 40.3456 135.928 39.8461 136.075 39.2255C136.221 38.6049 136.333 38.1027 136.412 37.7191C136.502 37.338 136.568 37.0319 136.611 36.8007C136.654 36.5695 136.677 36.3969 136.681 36.2829C136.696 36.1714 136.697 36.0683 136.685 35.9735C136.606 35.3343 136.218 34.9327 135.521 34.7686C134.824 34.6046 134.303 34.7922 133.958 35.3314C133.905 35.4108 133.854 35.5024 133.807 35.6061C133.77 35.7124 133.72 35.8786 133.655 36.1047C133.59 36.3308 133.508 36.6331 133.407 37.0116C133.317 37.3927 133.199 37.8935 133.053 38.5141C132.907 39.1347 132.789 39.6355 132.699 40.0166C132.621 40.4002 132.56 40.7077 132.517 40.9389C132.474 41.1701 132.445 41.3414 132.43 41.4528C132.426 41.5668 132.431 41.6712 132.443 41.766ZM139.682 43.8325C139.675 43.7159 139.672 43.583 139.673 43.4338C139.676 43.2737 139.696 43.0658 139.733 42.8103C139.784 42.5464 139.851 42.2118 139.935 41.8064C140.022 41.3901 140.14 40.8607 140.292 40.2184C140.443 39.576 140.571 39.0547 140.677 38.6544C140.785 38.2432 140.875 37.9137 140.944 37.6658C141.028 37.4097 141.102 37.2147 141.168 37.0808C141.234 36.947 141.298 36.824 141.359 36.7119C141.74 36.0664 142.236 35.62 142.846 35.3729C143.469 35.1174 144.195 35.0871 145.022 35.2819C145.849 35.4768 146.48 35.8262 146.913 36.3303C147.359 36.8261 147.614 37.4494 147.679 38.2C147.683 38.3275 147.685 38.4658 147.685 38.615C147.684 38.7643 147.658 38.9708 147.608 39.2347C147.57 39.4902 147.509 39.8261 147.422 40.2424C147.338 40.6479 147.221 41.1717 147.069 41.8141C146.918 42.4565 146.788 42.9833 146.68 43.3944C146.574 43.7947 146.48 44.123 146.396 44.3791C146.327 44.627 146.257 44.8233 146.189 44.968C146.123 45.1019 146.061 45.2194 146.002 45.3206C145.61 45.9636 145.102 46.4128 144.479 46.6682C143.869 46.9154 143.15 46.9415 142.323 46.7467C141.495 46.5519 140.858 46.2066 140.412 45.7108C139.979 45.2067 139.736 44.5806 139.682 43.8325ZM141.559 43.9125C141.628 44.5491 142.01 44.9495 142.707 45.1136C143.404 45.2776 143.931 45.0913 144.287 44.5546C144.34 44.4752 144.385 44.3824 144.421 44.2761C144.469 44.1723 144.525 44.0074 144.589 43.7813C144.654 43.5552 144.731 43.2517 144.821 42.8706C144.922 42.4921 145.045 41.9925 145.191 41.3719C145.337 40.7513 145.45 40.2492 145.529 39.8656C145.618 39.4845 145.685 39.1784 145.728 38.9472C145.771 38.716 145.794 38.5434 145.798 38.4293C145.813 38.3179 145.814 38.2148 145.802 38.12C145.722 37.4808 145.334 37.0792 144.637 36.9151C143.941 36.751 143.42 36.9386 143.074 37.4779C143.021 37.5573 142.971 37.6488 142.923 37.7526C142.887 37.8589 142.836 38.0251 142.772 38.2512C142.707 38.4773 142.624 38.7796 142.524 39.1581C142.434 39.5391 142.316 40.04 142.17 40.6606C142.024 41.2812 141.906 41.782 141.816 42.1631C141.737 42.5467 141.676 42.8541 141.633 43.0853C141.59 43.3165 141.562 43.4879 141.547 43.5993C141.543 43.7133 141.547 43.8177 141.559 43.9125ZM148.515 46.0846C148.541 45.9757 148.608 45.9341 148.717 45.9597L150.35 46.3442C150.459 46.3699 150.501 46.4371 150.475 46.546L150.083 48.2118C150.057 48.3207 149.99 48.3623 149.881 48.3367L148.248 47.9522C148.139 47.9265 148.097 47.8593 148.123 47.7504L148.515 46.0846ZM152.778 47.5535C152.798 47.4664 152.842 47.4021 152.909 47.3605L157.979 43.4002C158.26 43.1792 158.499 42.9481 158.693 42.7066C158.888 42.4652 159.023 42.1866 159.097 41.8709C159.195 41.4571 159.146 41.078 158.951 40.7334C158.767 40.3913 158.442 40.1652 157.973 40.055C157.527 39.9499 157.149 39.993 156.84 40.1845C156.53 40.3759 156.298 40.6776 156.144 41.0894C156.097 41.1931 156.026 41.2226 155.934 41.1777L154.566 40.5454C154.462 40.498 154.434 40.4224 154.481 40.3187C154.591 39.9997 154.759 39.7003 154.986 39.4205C155.212 39.1406 155.491 38.9075 155.822 38.7212C156.156 38.524 156.537 38.3953 156.965 38.3351C157.404 38.2776 157.884 38.3103 158.407 38.4333C158.929 38.5564 159.373 38.747 159.737 39.0051C160.102 39.2633 160.387 39.566 160.592 39.9131C160.811 40.252 160.947 40.6286 160.998 41.043C161.064 41.4491 161.045 41.8699 160.943 42.3054C160.825 42.8062 160.623 43.2471 160.338 43.6282C160.056 43.9983 159.705 44.3409 159.286 44.656L155.129 47.8142L155.122 47.8469L159.237 48.8159C159.346 48.8415 159.388 48.9088 159.362 49.0177L159.055 50.3242C159.029 50.4331 158.962 50.4747 158.853 50.449L152.614 48.9802C152.505 48.9545 152.464 48.8873 152.489 48.7784L152.778 47.5535Z" fill="#1D6362"/>
<path d="M126.945 49.8664C126.959 49.8084 126.994 49.7862 127.052 49.7999L127.861 49.9903C127.919 50.004 127.941 50.0398 127.928 50.0978L127.428 52.2202C127.387 52.3942 127.42 52.5426 127.525 52.6654C127.637 52.7896 127.803 52.8777 128.023 52.9295L128.171 52.9644C128.287 52.9917 128.366 53.044 128.409 53.1215C128.452 53.1989 128.456 53.313 128.421 53.4638C128.381 53.632 128.325 53.7411 128.252 53.7913C128.184 53.8428 128.09 53.8542 127.968 53.8255C127.771 53.7791 127.604 53.7214 127.467 53.6525C127.336 53.5849 127.236 53.4787 127.166 53.3337L127.127 53.4989C127.053 53.8121 126.963 54.0785 126.856 54.2982C126.748 54.5236 126.615 54.7003 126.456 54.8282C126.303 54.9575 126.119 55.0366 125.904 55.0656C125.688 55.1003 125.435 55.0836 125.145 55.0153L124.823 54.9395C124.765 54.9259 124.743 54.8901 124.757 54.8321L124.921 54.1362C124.934 54.0782 124.97 54.056 125.028 54.0697L125.219 54.1147C125.388 54.1543 125.525 54.1561 125.631 54.1199C125.738 54.0838 125.825 54.0125 125.893 53.9061C125.965 53.8068 126.023 53.6767 126.067 53.5157C126.116 53.3618 126.165 53.1805 126.214 52.9718L126.945 49.8664ZM131.517 50.6857C132.184 50.8427 132.641 51.0821 132.89 51.4038C133.139 51.7255 133.215 52.0894 133.12 52.4953C133.079 52.6693 133.011 52.8277 132.916 52.9706C132.828 53.1091 132.725 53.2348 132.607 53.3477C132.49 53.4548 132.364 53.5476 132.229 53.626C132.094 53.7045 131.967 53.7662 131.846 53.8112C131.889 53.8337 131.937 53.8511 131.99 53.8634C132.048 53.8771 132.108 53.8914 132.172 53.9064L133.26 54.1624C133.393 54.1938 133.475 54.2498 133.505 54.3303C133.535 54.4108 133.531 54.5323 133.492 54.6946C133.454 54.857 133.399 54.9604 133.327 55.0047C133.263 55.0446 133.173 55.0509 133.057 55.0236L131.761 54.7184C131.552 54.6693 131.356 54.6048 131.173 54.5249C130.997 54.4406 130.837 54.3265 130.693 54.1825C130.477 54.2419 130.257 54.2666 130.033 54.2566C129.811 54.2409 129.615 54.2133 129.447 54.1737L128.194 53.8787C128.084 53.8528 128.007 53.804 127.963 53.7324C127.918 53.6607 127.914 53.5466 127.951 53.39C127.987 53.2393 128.034 53.131 128.092 53.0651C128.145 52.9979 128.246 52.9821 128.397 53.0176L129.415 53.2572C129.508 53.2791 129.613 53.3007 129.73 53.3222C129.849 53.3379 129.99 53.3468 130.155 53.3489C130.154 53.1466 130.129 52.9663 130.081 52.808C130.038 52.6511 129.98 52.5088 129.906 52.3813C129.833 52.2479 129.748 52.1269 129.651 52.0184C129.562 51.9055 129.468 51.7948 129.371 51.6863C129.319 51.6249 129.29 51.5754 129.287 51.5379C129.291 51.4959 129.298 51.4518 129.309 51.4054L129.438 50.8574C129.453 50.7936 129.525 50.7369 129.653 50.6875C129.78 50.6381 129.941 50.6055 130.135 50.5898C130.329 50.5684 130.548 50.5646 130.789 50.5787C131.031 50.5927 131.273 50.6284 131.517 50.6857ZM131.029 53.3434C131.135 53.3073 131.244 53.2595 131.356 53.2002C131.474 53.1422 131.578 53.075 131.67 52.9986C131.768 52.9178 131.854 52.8277 131.926 52.7285C131.999 52.6292 132.048 52.5216 132.076 52.4056C132.132 52.1679 132.084 51.9821 131.931 51.8484C131.785 51.716 131.579 51.6184 131.312 51.5556C131.08 51.501 130.871 51.4764 130.687 51.4818C130.507 51.4886 130.382 51.5019 130.31 51.5217C130.537 51.7526 130.711 52.0262 130.833 52.3425C130.961 52.6543 131.027 52.9879 131.029 53.3434ZM135.695 54.1666C135.61 54.5262 135.777 54.7551 136.194 54.8534C136.322 54.8835 136.425 54.9015 136.503 54.9077C136.582 54.9081 136.647 54.8927 136.697 54.8617C136.755 54.8262 136.799 54.7663 136.831 54.6821C136.869 54.5992 136.906 54.4824 136.941 54.3316L137.251 53.0181C137.264 52.9601 137.3 52.938 137.358 52.9516L138.167 53.1421C138.225 53.1557 138.247 53.1915 138.234 53.2495L137.898 54.6761C137.854 54.8617 137.876 55.0138 137.965 55.1325C138.054 55.2455 138.192 55.3238 138.378 55.3675C138.517 55.4002 138.629 55.4175 138.714 55.4192C138.801 55.4151 138.869 55.3882 138.917 55.3384C138.973 55.2841 139.019 55.2033 139.057 55.0959C139.094 54.9884 139.135 54.8419 139.179 54.6563L139.605 52.847C139.618 52.789 139.654 52.7669 139.712 52.7805L140.521 52.971C140.579 52.9846 140.601 53.0205 140.587 53.0785L140.016 55.5054C139.922 55.9055 139.771 56.1698 139.563 56.2984C139.363 56.4226 139.065 56.4382 138.671 56.3454L138.297 56.2573C138.094 56.2095 137.929 56.1309 137.801 56.0213C137.681 55.9074 137.601 55.769 137.559 55.6063C137.439 55.7554 137.292 55.8463 137.119 55.879C136.953 55.9073 136.74 55.8907 136.479 55.8293L136.096 55.7391C135.684 55.6422 135.439 55.4223 135.361 55.0795C135.24 55.2285 135.093 55.3194 134.92 55.3521C134.753 55.3862 134.536 55.3719 134.269 55.3091L133.278 55.0756C133.162 55.0483 133.081 55.0017 133.035 54.9359C132.991 54.8642 132.986 54.753 133.022 54.6022C133.063 54.4283 133.12 54.3133 133.195 54.2574C133.263 54.2001 133.359 54.1858 133.48 54.2144L134.176 54.3783C134.356 54.4206 134.48 54.4008 134.548 54.319C134.618 54.2313 134.682 54.0628 134.741 53.8134L135.05 52.5C135.064 52.442 135.099 52.4198 135.157 52.4335L135.966 52.6239C136.024 52.6376 136.047 52.6734 136.033 52.7314L135.695 54.1666ZM144.594 54.0217C144.608 53.9637 144.643 53.9416 144.701 53.9552L145.51 54.1457C145.568 54.1594 145.59 54.1952 145.577 54.2532L145.077 56.3756C145.036 56.5496 145.069 56.698 145.174 56.8208C145.286 56.945 145.452 57.033 145.672 57.0849L145.82 57.1197C145.936 57.147 146.015 57.1994 146.058 57.2768C146.101 57.3543 146.105 57.4684 146.07 57.6192C146.03 57.7873 145.974 57.8965 145.901 57.9466C145.833 57.9981 145.739 58.0096 145.617 57.9809C145.42 57.9345 145.253 57.8768 145.116 57.8079C144.985 57.7403 144.885 57.634 144.815 57.489L144.776 57.6543C144.702 57.9674 144.612 58.2339 144.505 58.4535C144.397 58.679 144.264 58.8557 144.105 58.9836C143.952 59.1129 143.768 59.192 143.553 59.2209C143.337 59.2557 143.084 59.239 142.794 59.1707L142.472 59.0949C142.414 59.0813 142.392 59.0454 142.406 58.9874L142.569 58.2916C142.583 58.2336 142.619 58.2114 142.677 58.2251L142.868 58.2701C143.036 58.3097 143.174 58.3114 143.28 58.2753C143.387 58.2391 143.474 58.1679 143.542 58.0614C143.614 57.9622 143.672 57.832 143.716 57.671C143.765 57.5172 143.814 57.3359 143.863 57.1271L144.594 54.0217ZM148.577 53.9496C148.519 53.936 148.497 53.9001 148.51 53.8422L148.686 53.0941C148.7 53.0361 148.736 53.0139 148.794 53.0276L149.629 53.2242C149.687 53.2378 149.709 53.2737 149.695 53.3317L149.519 54.0797C149.506 54.1377 149.47 54.1599 149.412 54.1462L148.577 53.9496ZM145.843 58.0341C145.727 58.0068 145.648 57.9544 145.605 57.877C145.563 57.7937 145.561 57.6738 145.598 57.5173C145.637 57.3491 145.693 57.2428 145.765 57.1985C145.83 57.1528 145.924 57.1443 146.046 57.173L148.36 57.7177C148.511 57.7532 148.635 57.7703 148.733 57.7689C148.832 57.7676 148.914 57.7441 148.98 57.6984C149.045 57.6527 149.098 57.5855 149.137 57.4968C149.178 57.4023 149.214 57.2855 149.247 57.1463C149.291 56.9607 149.314 56.7856 149.316 56.6208C149.319 56.4502 149.294 56.2974 149.24 56.1623C149.186 56.0272 149.1 55.9121 148.982 55.8169C148.869 55.723 148.714 55.6529 148.517 55.6065C148.326 55.5614 148.143 55.5582 147.969 55.5967C147.794 55.6352 147.631 55.7039 147.479 55.8028C147.429 55.8339 147.388 55.8272 147.356 55.7829L147.014 55.2066C146.978 55.1493 146.982 55.1074 147.025 55.0808C147.253 54.9201 147.507 54.8025 147.788 54.7278C148.068 54.6531 148.389 54.6581 148.748 54.7428C149.137 54.8343 149.447 54.9716 149.679 55.1548C149.913 55.3322 150.084 55.5409 150.193 55.7807C150.303 56.0147 150.359 56.2726 150.36 56.5544C150.368 56.8318 150.337 57.1183 150.267 57.4141C150.194 57.7272 150.104 57.9784 149.998 58.1677C149.892 58.3571 149.767 58.4989 149.623 58.5934C149.485 58.6835 149.324 58.7312 149.139 58.7366C148.96 58.7434 148.757 58.7202 148.531 58.6669L145.843 58.0341ZM152.13 59.4225C152.116 59.4805 152.081 59.5027 152.023 59.489L151.214 59.2986C151.156 59.2849 151.134 59.2491 151.147 59.1911L152.499 53.45C152.513 53.392 152.548 53.3699 152.606 53.3835L153.415 53.574C153.473 53.5877 153.495 53.6235 153.482 53.6815L152.13 59.4225ZM151.616 52.3242C151.718 52.1277 151.844 51.9923 151.997 51.9179C152.144 51.8364 152.302 51.8155 152.47 51.8551C152.598 51.8851 152.725 51.9426 152.852 52.0276C152.986 52.1081 153.116 52.1937 153.242 52.2845C153.368 52.3695 153.492 52.4537 153.614 52.5373C153.742 52.6165 153.867 52.6704 153.989 52.6991C154.081 52.7209 154.15 52.7156 154.194 52.6832C154.24 52.645 154.276 52.5709 154.302 52.4607C154.315 52.4027 154.351 52.3805 154.409 52.3942L154.731 52.4699C154.789 52.4836 154.811 52.5194 154.798 52.5774C154.736 52.8384 154.63 53.0277 154.48 53.1454C154.337 53.2586 154.156 53.2893 153.935 53.2374C153.779 53.2005 153.63 53.1411 153.491 53.0592C153.357 52.9787 153.226 52.896 153.099 52.811C152.972 52.7261 152.851 52.6454 152.734 52.5689C152.623 52.4939 152.518 52.4447 152.42 52.4215C152.362 52.4079 152.303 52.4123 152.242 52.4348C152.183 52.4515 152.128 52.5057 152.075 52.5975C152.044 52.6514 152.002 52.6628 151.948 52.6318L151.651 52.4516C151.603 52.4219 151.591 52.3794 151.616 52.3242Z" fill="#838383"/>
</g>
<g filter="url(#filter2_f_1637_2784)">
<g filter="url(#filter3_b_1637_2784)">
<rect x="72.6318" y="79.7388" width="161.256" height="81.0816" rx="13.7891" transform="rotate(-18.4455 72.6318 79.7388)" fill="white" fill-opacity="0.82"/>
<rect x="72.6318" y="79.7388" width="161.256" height="81.0816" rx="13.7891" transform="rotate(-18.4455 72.6318 79.7388)" fill="url(#paint2_linear_1637_2784)" fill-opacity="0.2"/>
<rect x="73.2548" y="80.0501" width="160.271" height="80.0966" rx="13.2967" transform="rotate(-18.4455 73.2548 80.0501)" stroke="url(#paint3_linear_1637_2784)" stroke-opacity="0.28" stroke-width="0.984939"/>
</g>
<path d="M131.509 100.027C131.525 99.9479 131.593 99.9145 131.714 99.9272L133.023 99.9984C133.077 100.002 133.111 100.022 133.123 100.06C133.142 100.086 133.149 100.121 133.142 100.165C133.079 100.483 133.036 100.846 133.014 101.256C132.998 101.652 133.062 102.065 133.205 102.494C133.329 102.865 133.489 103.156 133.686 103.365C133.896 103.581 134.116 103.735 134.348 103.827C134.589 103.916 134.834 103.951 135.081 103.932C135.332 103.922 135.567 103.881 135.786 103.808C136.338 103.623 136.732 103.328 136.967 102.922C137.205 102.525 137.216 102.002 137 101.355L133.922 92.1265C133.89 92.0312 133.922 91.9677 134.017 91.936L135.346 91.4928C135.441 91.4611 135.504 91.4928 135.536 91.5881L138.629 100.859C138.81 101.402 138.883 101.907 138.848 102.374C138.823 102.837 138.697 103.255 138.472 103.626C138.259 104.004 137.961 104.331 137.577 104.607C137.193 104.884 136.739 105.109 136.215 105.284C135.71 105.452 135.221 105.541 134.748 105.551C134.285 105.557 133.85 105.475 133.443 105.303C133.04 105.141 132.68 104.886 132.362 104.537C132.054 104.184 131.808 103.732 131.624 103.18C131.452 102.665 131.362 102.124 131.352 101.556C131.343 100.988 131.395 100.478 131.509 100.027ZM137.613 90.8952C137.582 90.8 137.613 90.7365 137.709 90.7047L139.037 90.2616C139.132 90.2298 139.196 90.2616 139.228 90.3568L141.696 97.7567C141.791 98.0424 141.91 98.2249 142.053 98.3042C142.202 98.3709 142.396 98.3645 142.634 98.2851L143.134 98.1183C143.325 98.0548 143.486 98.0643 143.62 98.1468C143.75 98.2198 143.86 98.3896 143.949 98.6563C144.047 98.9515 144.063 99.1579 143.996 99.2753C143.936 99.3801 143.806 99.4659 143.606 99.5326L142.477 99.909C141.877 100.109 141.401 100.109 141.049 99.9092C140.693 99.6998 140.412 99.2855 140.206 98.6665L137.613 90.8952ZM143.828 99.4586C143.637 99.5222 143.48 99.5269 143.356 99.473C143.229 99.4095 143.123 99.2492 143.037 98.9921C142.945 98.7159 142.927 98.5048 142.984 98.3587C143.032 98.2159 143.156 98.1111 143.356 98.0444L144.284 97.7347C144.522 97.6552 144.676 97.5457 144.746 97.406C144.822 97.2536 144.813 97.0345 144.718 96.7488L143.512 93.1346C143.48 93.0394 143.512 92.9759 143.607 92.9441L144.936 92.501C145.031 92.4692 145.095 92.5009 145.126 92.5962L146.456 96.5818C146.662 97.2009 146.686 97.7009 146.527 98.0819C146.366 98.4534 145.985 98.7391 145.385 98.9393L143.828 99.4586ZM147.142 101.401C147.047 101.433 146.984 101.401 146.952 101.306L146.542 100.077C146.51 99.982 146.542 99.9185 146.637 99.8867L147.837 99.4865C147.932 99.4547 147.996 99.4864 148.028 99.5817L148.437 100.81C148.469 100.905 148.438 100.969 148.342 101.001L147.142 101.401ZM145.285 102.02C145.19 102.052 145.126 102.02 145.095 101.925L144.685 100.697C144.653 100.601 144.685 100.538 144.78 100.506L145.98 100.106C146.075 100.074 146.139 100.106 146.171 100.201L146.58 101.43C146.612 101.525 146.58 101.588 146.485 101.62L145.285 102.02ZM149.414 100.802C149.318 100.834 149.255 100.802 149.223 100.707L148.842 99.5641C148.81 99.4689 148.842 99.4054 148.937 99.3736L149.251 99.2688C149.651 99.1354 149.904 98.9401 150.008 98.6829C150.123 98.4226 150.111 98.0876 149.975 97.6781L147.964 91.6497C147.932 91.5544 147.964 91.4909 148.059 91.4592L149.388 91.016C149.483 90.9843 149.547 91.016 149.578 91.1112L151.599 97.1683C152.18 98.9111 151.628 100.064 149.942 100.626L149.414 100.802ZM163.54 85.3645L163.476 85.3325C163.386 85.4338 163.236 85.5458 163.028 85.6685C162.815 85.7752 162.581 85.8712 162.325 85.9566C161.701 86.1647 161.072 86.2501 160.437 86.2129C159.802 86.1757 159.2 86.0212 158.629 85.7493C158.059 85.4775 157.547 85.0883 157.093 84.5818C156.656 84.0699 156.312 83.4381 156.061 82.6863C155.784 81.8545 155.674 81.0733 155.733 80.3427C155.791 79.6122 155.98 78.9536 156.3 78.367C156.631 77.759 157.071 77.239 157.62 76.807C158.185 76.3696 158.827 76.0309 159.547 75.7908C160.283 75.5454 161 75.4306 161.699 75.4465C162.413 75.457 163.075 75.6008 163.683 75.878C164.29 76.1552 164.834 76.5604 165.314 77.0935C165.794 77.6267 166.168 78.2932 166.435 79.093C166.653 79.7488 166.766 80.4314 166.771 81.1406C166.787 81.8285 166.731 82.5137 166.603 83.1963L164.909 92.2671C164.877 92.3844 164.797 92.4644 164.669 92.5071L162.342 93.2834C162.166 93.3421 162.091 93.2781 162.118 93.0914L163.54 85.3645ZM162.076 83.3731C162.844 83.117 163.372 82.6743 163.66 82.045C163.947 81.4157 163.963 80.7172 163.707 79.9493C163.451 79.1815 163.019 78.6324 162.411 78.3018C161.803 77.9714 161.115 77.9341 160.348 78.1902C159.58 78.4463 159.052 78.889 158.764 79.5183C158.492 80.1423 158.484 80.8381 158.74 81.606C158.996 82.3738 159.421 82.9256 160.012 83.2615C160.62 83.592 161.308 83.6292 162.076 83.3731ZM172.808 86.3528C172.728 86.2195 172.76 86.1022 172.904 86.0009L174.776 84.8167C174.914 84.7527 175.032 84.7847 175.128 84.9126C175.442 85.3232 175.832 85.6111 176.296 85.7763C176.76 85.9415 177.295 85.9227 177.903 85.72C178.367 85.5653 178.746 85.3146 179.039 84.9679C179.327 84.6053 179.471 84.184 179.471 83.704C179.476 83.4534 179.449 83.1868 179.391 82.9042C179.326 82.6056 179.225 82.2483 179.086 81.8324C178.937 81.3845 178.801 81.0299 178.678 80.7687C178.556 80.5074 178.42 80.2861 178.27 80.1049C177.95 79.6783 177.572 79.4224 177.134 79.3372C176.697 79.252 176.246 79.2867 175.782 79.4414C175.239 79.6228 174.839 79.8895 174.583 80.2415C174.343 80.5882 174.204 80.9188 174.167 81.2334C174.156 81.4147 174.087 81.5267 173.959 81.5694L171.944 82.2417C171.784 82.295 171.677 82.2417 171.624 82.0818L168.695 73.2998C168.641 73.1398 168.694 73.0331 168.854 72.9798L177.54 70.0827C177.7 70.0293 177.807 70.0826 177.86 70.2426L178.501 72.1621C178.554 72.3221 178.501 72.4288 178.341 72.4821L172.03 74.5869C171.934 74.6189 171.902 74.6829 171.934 74.7789L173.159 78.4501L173.231 78.4261C173.369 78.2021 173.612 77.9434 173.958 77.6501C174.321 77.3514 174.798 77.1033 175.39 76.9059C176.446 76.5538 177.414 76.4976 178.294 76.7374C179.184 76.9559 179.923 77.465 180.509 78.2648C180.739 78.5793 180.955 78.9339 181.158 79.3285C181.36 79.723 181.574 80.2562 181.798 80.9281C182.145 81.9678 182.318 82.861 182.318 83.6075C182.318 84.674 181.988 85.6019 181.327 86.3913C180.666 87.1806 179.791 87.7566 178.704 88.1195C178.08 88.3275 177.469 88.4423 176.872 88.4637C176.275 88.4852 175.72 88.4213 175.208 88.2721C174.691 88.1069 174.23 87.8696 173.824 87.5604C173.414 87.2352 173.075 86.8327 172.808 86.3528ZM185.979 82.4133C185.925 82.2533 185.979 82.1467 186.139 82.0933L188.538 81.293C188.698 81.2397 188.805 81.293 188.858 81.4529L189.674 83.9004C189.728 84.0603 189.674 84.167 189.514 84.2203L187.115 85.0206C186.955 85.074 186.848 85.0207 186.795 84.8607L185.979 82.4133ZM190.256 71.2276C189.92 70.2198 189.891 69.3853 190.168 68.724C190.461 68.0574 191.111 67.556 192.119 67.2199L197.062 65.5713C197.222 65.5179 197.329 65.5712 197.382 65.7312L198.022 67.6508C198.076 67.8107 198.022 67.9174 197.862 67.9707L194.215 69.1872C193.623 69.3846 193.274 69.6433 193.167 69.9633C193.061 70.2832 193.098 70.7152 193.28 71.259L196.713 81.5527C196.766 81.7127 196.713 81.8193 196.553 81.8727L194.322 82.617C194.162 82.6703 194.055 82.617 194.002 82.457L190.256 71.2276ZM203.62 67.9169L205.108 67.4207L204.203 64.7093C204.15 64.5493 204.203 64.4427 204.363 64.3893L206.211 63.7731C206.371 63.7197 206.477 63.773 206.531 63.933L207.435 66.6444C207.936 66.4416 208.261 66.2176 208.411 65.9723C208.576 65.7216 208.581 65.3644 208.427 64.9005L207.57 62.3331C207.517 62.1731 207.57 62.0664 207.73 62.0131L209.89 61.2928C210.05 61.2395 210.156 61.2928 210.21 61.4527L211.13 64.2121C211.354 64.8839 211.453 65.4732 211.426 65.9797C211.394 66.4703 211.256 66.9076 211.011 67.2916C210.76 67.6596 210.405 67.9823 209.947 68.2596C209.499 68.5157 208.963 68.7477 208.339 68.9558L204.404 70.2683L207.021 78.1145C207.075 78.2745 207.021 78.3812 206.861 78.4345L204.63 79.1788C204.47 79.2321 204.363 79.1788 204.31 79.0189L199.628 64.9821C199.575 64.8221 199.628 64.7155 199.788 64.6621L202.019 63.9178C202.179 63.8645 202.286 63.9178 202.339 64.0777L203.62 67.9169Z" fill="#1D6362"/>
<path d="M178.171 99.8571C178.143 99.7719 178.171 99.7151 178.256 99.6867L179.445 99.2902C179.53 99.2618 179.587 99.2902 179.615 99.3754L180.655 102.494C180.74 102.749 180.9 102.914 181.132 102.988C181.374 103.059 181.657 103.04 181.98 102.932L182.198 102.86C182.368 102.803 182.511 102.807 182.628 102.873C182.744 102.938 182.839 103.081 182.913 103.303C182.996 103.55 183.01 103.734 182.956 103.857C182.911 103.976 182.798 104.065 182.62 104.125C182.33 104.222 182.07 104.28 181.84 104.3C181.618 104.317 181.405 104.26 181.201 104.13L181.282 104.372C181.435 104.832 181.531 105.246 181.568 105.612C181.607 105.987 181.576 106.319 181.474 106.609C181.38 106.896 181.207 107.143 180.954 107.35C180.704 107.566 180.367 107.745 179.941 107.887L179.468 108.045C179.382 108.073 179.326 108.045 179.297 107.96L178.956 106.937C178.928 106.852 178.956 106.795 179.041 106.767L179.323 106.673C179.57 106.591 179.747 106.484 179.855 106.354C179.963 106.223 180.018 106.063 180.021 105.872C180.035 105.688 180.007 105.475 179.936 105.233C179.876 104.997 179.795 104.726 179.693 104.42L178.171 99.8571ZM184.684 97.287C185.664 96.9602 186.441 96.9047 187.015 97.1204C187.588 97.3362 187.975 97.7422 188.174 98.3386C188.259 98.5942 188.297 98.8513 188.289 99.1097C188.286 99.3568 188.253 99.5997 188.191 99.8382C188.126 100.068 188.038 100.287 187.927 100.494C187.816 100.702 187.701 100.882 187.582 101.035C187.656 101.03 187.731 101.014 187.808 100.989C187.893 100.96 187.982 100.93 188.076 100.899L189.674 100.366C189.87 100.301 190.019 100.308 190.121 100.387C190.223 100.467 190.314 100.626 190.394 100.865C190.473 101.103 190.485 101.279 190.428 101.393C190.377 101.495 190.266 101.575 190.096 101.631L188.191 102.267C187.885 102.369 187.582 102.441 187.284 102.484C186.992 102.515 186.696 102.496 186.398 102.425C186.168 102.672 185.905 102.878 185.61 103.042C185.312 103.199 185.039 103.318 184.792 103.4L182.952 104.014C182.79 104.068 182.652 104.067 182.538 104.01C182.425 103.953 182.33 103.81 182.253 103.58C182.179 103.358 182.153 103.182 182.176 103.052C182.19 102.924 182.308 102.823 182.53 102.749L184.025 102.25C184.161 102.205 184.313 102.149 184.481 102.084C184.645 102.01 184.834 101.909 185.047 101.782C184.885 101.523 184.711 101.312 184.523 101.147C184.344 100.979 184.157 100.843 183.961 100.738C183.762 100.624 183.557 100.536 183.347 100.474C183.143 100.4 182.935 100.332 182.725 100.27C182.609 100.233 182.533 100.191 182.499 100.146C182.471 100.089 182.445 100.027 182.423 99.9586L182.154 99.1535C182.123 99.0597 182.17 98.9305 182.295 98.7657C182.42 98.601 182.6 98.432 182.836 98.2587C183.068 98.0769 183.345 97.8993 183.666 97.726C183.987 97.5527 184.327 97.4063 184.684 97.287ZM186.163 101.083C186.271 100.952 186.373 100.804 186.47 100.639C186.575 100.472 186.656 100.303 186.713 100.132C186.775 99.9507 186.814 99.7675 186.828 99.5829C186.842 99.3983 186.821 99.2208 186.764 99.0504C186.647 98.701 186.438 98.5008 186.137 98.4498C185.845 98.3959 185.503 98.4343 185.111 98.565C184.77 98.6787 184.483 98.8122 184.25 98.9656C184.026 99.1162 183.875 99.2327 183.799 99.315C184.273 99.4314 184.713 99.6443 185.119 99.9538C185.531 100.252 185.879 100.628 186.163 101.083ZM192.801 98.4426C192.977 98.9709 193.372 99.1327 193.986 98.9281C194.173 98.8656 194.319 98.8073 194.424 98.7533C194.527 98.6908 194.598 98.6198 194.637 98.5403C194.683 98.4494 194.693 98.3372 194.667 98.2037C194.65 98.0674 194.604 97.8885 194.531 97.667L193.887 95.7372C193.859 95.652 193.887 95.5952 193.972 95.5667L195.161 95.1703C195.246 95.1419 195.303 95.1703 195.331 95.2555L196.03 97.3514C196.121 97.6241 196.27 97.8015 196.478 97.8839C196.682 97.9577 196.921 97.9491 197.193 97.8582C197.398 97.79 197.555 97.7232 197.666 97.6579C197.774 97.584 197.839 97.4959 197.862 97.3937C197.89 97.2801 197.886 97.1395 197.849 96.9719C197.812 96.8044 197.748 96.5843 197.657 96.3116L196.771 93.6534C196.742 93.5682 196.771 93.5114 196.856 93.4829L198.044 93.0865C198.13 93.0581 198.186 93.0865 198.215 93.1717L199.404 96.7373C199.6 97.3252 199.616 97.7839 199.451 98.1134C199.292 98.4315 198.923 98.6872 198.344 98.8804L197.794 99.0637C197.496 99.1632 197.222 99.1931 196.972 99.1533C196.728 99.1023 196.515 98.9887 196.333 98.8126C196.296 99.0995 196.18 99.3324 195.984 99.5114C195.793 99.679 195.507 99.8267 195.123 99.9546L194.561 100.142C193.956 100.344 193.467 100.256 193.095 99.8783C193.058 100.165 192.942 100.398 192.746 100.577C192.559 100.753 192.269 100.907 191.877 101.037L190.42 101.523C190.25 101.58 190.109 101.584 189.998 101.536C189.885 101.479 189.791 101.34 189.717 101.119C189.632 100.863 189.615 100.67 189.666 100.539C189.708 100.411 189.819 100.318 189.998 100.258L191.021 99.917C191.285 99.8289 191.428 99.7054 191.451 99.5463C191.471 99.3787 191.419 99.1118 191.297 98.7454L190.654 96.8156C190.625 96.7304 190.654 96.6736 190.739 96.6452L191.927 96.2488C192.013 96.2203 192.069 96.2487 192.098 96.3339L192.801 98.4426ZM204.101 91.2084C204.073 91.1232 204.101 91.0664 204.186 91.038L205.375 90.6416C205.46 90.6132 205.517 90.6416 205.545 90.7268L206.585 93.8451C206.671 94.1007 206.83 94.2654 207.063 94.3392C207.304 94.4101 207.587 94.3916 207.91 94.2836L208.128 94.2112C208.298 94.1543 208.441 94.1586 208.558 94.2239C208.674 94.2892 208.77 94.4326 208.843 94.6541C208.926 94.9012 208.94 95.0858 208.886 95.2079C208.841 95.3272 208.729 95.4167 208.55 95.4764C208.26 95.573 208 95.6313 207.77 95.6512C207.548 95.6683 207.335 95.6115 207.131 95.4809L207.212 95.7237C207.365 96.1838 207.461 96.597 207.498 96.9634C207.537 97.3383 207.506 97.6706 207.404 97.9603C207.31 98.2472 207.137 98.4943 206.884 98.7017C206.635 98.9176 206.297 99.0966 205.871 99.2387L205.398 99.3964C205.313 99.4248 205.256 99.3964 205.227 99.3112L204.886 98.2888C204.858 98.2036 204.886 98.1468 204.971 98.1184L205.253 98.0246C205.5 97.9422 205.677 97.8357 205.785 97.705C205.893 97.5744 205.948 97.4139 205.951 97.2236C205.965 97.039 205.937 96.826 205.866 96.5846C205.806 96.3488 205.725 96.0776 205.623 95.7709L204.101 91.2084ZM209.153 87.9612C209.068 87.9896 209.011 87.9613 208.983 87.8761L208.616 86.777C208.588 86.6918 208.616 86.635 208.701 86.6065L209.928 86.1973C210.013 86.1689 210.07 86.1973 210.099 86.2825L210.465 87.3816C210.494 87.4668 210.465 87.5236 210.38 87.552L209.153 87.9612ZM208.882 95.3656C208.711 95.4225 208.568 95.4182 208.451 95.3529C208.332 95.2791 208.234 95.1272 208.157 94.8971C208.075 94.65 208.062 94.4697 208.119 94.3561C208.167 94.2453 208.281 94.1601 208.46 94.1004L211.859 92.9665C212.081 92.8927 212.254 92.8159 212.379 92.7364C212.504 92.6568 212.59 92.5617 212.639 92.4509C212.687 92.3401 212.701 92.2123 212.681 92.0675C212.659 91.9141 212.613 91.7352 212.545 91.5307C212.454 91.2581 212.345 91.0152 212.217 90.8023C212.086 90.5808 211.933 90.4047 211.756 90.2741C211.58 90.1435 211.379 90.064 211.151 90.0356C210.933 90.0044 210.679 90.0371 210.389 90.1337C210.108 90.2275 209.871 90.3681 209.678 90.5556C209.484 90.7431 209.33 90.9604 209.213 91.2075C209.174 91.2871 209.115 91.3112 209.039 91.28L208.144 90.8115C208.053 90.7661 208.025 90.7093 208.059 90.6411C208.223 90.2548 208.456 89.9026 208.757 89.5845C209.058 89.2663 209.473 89.0191 210.001 88.8429C210.572 88.6525 211.079 88.5829 211.522 88.6339C211.962 88.6764 212.347 88.8084 212.676 89.0299C213.003 89.2429 213.279 89.5297 213.503 89.8903C213.733 90.2396 213.921 90.6315 214.066 91.0661C214.219 91.5261 214.303 91.9195 214.317 92.2461C214.332 92.5727 214.283 92.8539 214.173 93.0897C214.068 93.3141 213.899 93.503 213.666 93.6564C213.441 93.8069 213.163 93.9376 212.831 94.0485L208.882 95.3656ZM218.046 92.1671C218.074 92.2523 218.046 92.3091 217.961 92.3375L216.772 92.7339C216.687 92.7623 216.63 92.7339 216.602 92.6487L213.788 84.2139C213.76 84.1287 213.788 84.0719 213.873 84.0435L215.062 83.6471C215.147 83.6187 215.204 83.647 215.232 83.7322L218.046 92.1671ZM211.765 83.4687C211.739 83.1364 211.794 82.8624 211.931 82.6465C212.055 82.4249 212.241 82.2729 212.489 82.1905C212.676 82.128 212.885 82.101 213.115 82.1095C213.351 82.1066 213.585 82.1136 213.818 82.1306C214.048 82.1391 214.274 82.149 214.495 82.1603C214.722 82.1603 214.925 82.1304 215.104 82.0708C215.241 82.0253 215.324 81.9642 215.356 81.8875C215.384 81.8023 215.371 81.6788 215.317 81.5169C215.289 81.4317 215.317 81.3749 215.402 81.3465L215.875 81.1887C215.96 81.1603 216.017 81.1887 216.046 81.2739C216.174 81.6573 216.188 81.9839 216.088 82.2538C215.995 82.5122 215.786 82.6955 215.462 82.8035C215.232 82.8802 214.995 82.9214 214.751 82.9271C214.515 82.93 214.282 82.9272 214.052 82.9187C213.822 82.9103 213.602 82.9032 213.392 82.8976C213.19 82.8891 213.017 82.909 212.872 82.9573C212.787 82.9857 212.715 83.0383 212.655 83.115C212.592 83.1832 212.564 83.2968 212.57 83.4558C212.573 83.5495 212.527 83.5978 212.433 83.6007L211.909 83.605C211.824 83.6051 211.776 83.5596 211.765 83.4687Z" fill="#838383"/>
</g>
<g filter="url(#filter4_b_1637_2784)">
<rect x="50.0195" y="76" width="157.618" height="79.2523" rx="11.6754" transform="rotate(6.53483 50.0195 76)" fill="white" fill-opacity="0.02"/>
<rect x="50.0195" y="76" width="157.618" height="79.2523" rx="11.6754" transform="rotate(6.53483 50.0195 76)" fill="url(#paint4_linear_1637_2784)" fill-opacity="0.2"/>
<rect x="50.3863" y="76.4617" width="156.784" height="78.4184" rx="11.2584" transform="rotate(6.53483 50.3863 76.4617)" stroke="url(#paint5_linear_1637_2784)" stroke-opacity="0.28" stroke-width="0.833958"/>
</g>
<path d="M90.9004 118.65C90.9472 118.586 91.0214 118.585 91.1231 118.646L92.254 119.25C92.3005 119.275 92.3215 119.307 92.3171 119.346C92.3235 119.376 92.3147 119.41 92.2907 119.446C92.1035 119.701 91.9155 120.006 91.7268 120.36C91.549 120.705 91.435 121.097 91.3847 121.535C91.3412 121.915 91.3634 122.239 91.4513 122.506C91.5479 122.784 91.6799 123.011 91.8473 123.188C92.0244 123.367 92.2266 123.498 92.4539 123.584C92.68 123.679 92.9052 123.739 93.1294 123.765C93.6949 123.83 94.1655 123.73 94.5414 123.467C94.9161 123.214 95.1414 122.756 95.2174 122.093L96.2995 112.646C96.3107 112.548 96.365 112.505 96.4625 112.516L97.8225 112.672C97.92 112.683 97.9632 112.738 97.952 112.835L96.8648 122.326C96.8012 122.882 96.6576 123.359 96.4341 123.758C96.2203 124.158 95.937 124.477 95.584 124.713C95.2396 124.96 94.8402 125.126 94.3859 125.213C93.9316 125.299 93.4363 125.311 92.9001 125.25C92.3834 125.191 91.9135 125.068 91.4904 124.881C91.0771 124.695 90.7257 124.443 90.4364 124.123C90.146 123.813 89.9321 123.438 89.7949 122.998C89.6674 122.558 89.6361 122.056 89.7009 121.491C89.7612 120.964 89.9044 120.447 90.1304 119.94C90.3564 119.432 90.6131 119.002 90.9004 118.65ZM100.078 113.079C100.09 112.981 100.144 112.938 100.241 112.949L101.601 113.105C101.699 113.116 101.742 113.171 101.731 113.268L100.863 120.843C100.83 121.136 100.86 121.346 100.954 121.476C101.058 121.596 101.233 121.671 101.476 121.699L101.988 121.757C102.183 121.78 102.323 121.855 102.407 121.983C102.492 122.101 102.519 122.297 102.488 122.57C102.453 122.872 102.382 123.062 102.274 123.138C102.178 123.206 102.027 123.228 101.822 123.205L100.667 123.073C100.053 123.002 99.6309 122.806 99.4012 122.483C99.1726 122.151 99.0946 121.668 99.1672 121.034L100.078 113.079ZM102.049 123.231C101.854 123.209 101.713 123.148 101.626 123.049C101.539 122.94 101.511 122.755 101.541 122.491C101.574 122.209 101.645 122.014 101.756 121.908C101.857 121.802 102.01 121.76 102.215 121.783L103.166 121.892C103.409 121.92 103.591 121.887 103.711 121.792C103.841 121.688 103.923 121.49 103.956 121.197L104.38 117.498C104.391 117.4 104.446 117.357 104.543 117.368L105.903 117.524C106.001 117.535 106.044 117.589 106.033 117.687L105.565 121.767C105.493 122.401 105.308 122.854 105.01 123.126C104.713 123.388 104.257 123.484 103.643 123.414L102.049 123.231ZM104.184 126.32C104.087 126.309 104.044 126.255 104.055 126.157L104.199 124.9C104.21 124.802 104.265 124.759 104.362 124.77L105.59 124.911C105.688 124.922 105.731 124.976 105.72 125.074L105.576 126.331C105.565 126.429 105.51 126.472 105.413 126.461L104.184 126.32ZM102.283 126.102C102.186 126.091 102.143 126.037 102.154 125.939L102.298 124.682C102.309 124.584 102.363 124.541 102.461 124.552L103.689 124.693C103.787 124.704 103.83 124.758 103.819 124.856L103.675 126.114C103.664 126.211 103.609 126.254 103.512 126.243L102.283 126.102ZM106.444 126.727C106.346 126.716 106.303 126.662 106.314 126.564L106.448 125.394C106.46 125.297 106.514 125.254 106.611 125.265L106.933 125.302C107.343 125.349 107.647 125.28 107.846 125.095C108.054 124.912 108.183 124.61 108.231 124.191L108.938 118.02C108.949 117.922 109.003 117.879 109.101 117.89L110.461 118.046C110.558 118.057 110.601 118.112 110.59 118.209L109.88 124.41C109.676 126.194 108.711 126.987 106.985 126.789L106.444 126.727ZM118.74 122.555C118.577 122.536 118.504 122.445 118.523 122.281L118.739 120.39C118.753 120.275 118.788 120.18 118.847 120.104L125.57 109.203C125.651 109.079 125.773 109.027 125.937 109.045L128.27 109.313C128.45 109.333 128.499 109.414 128.417 109.554L121.803 120.367L121.797 120.417L125.58 120.85C125.678 120.861 125.733 120.818 125.744 120.719L126.222 116.544C126.241 116.38 126.332 116.307 126.496 116.326L128.756 116.585C128.92 116.604 128.992 116.695 128.973 116.859L128.495 121.035C128.484 121.133 128.527 121.188 128.626 121.199L129.854 121.339C130.018 121.358 130.09 121.449 130.071 121.613L129.846 123.578C129.827 123.742 129.736 123.815 129.572 123.796L128.344 123.655C128.246 123.644 128.191 123.687 128.18 123.786L127.932 125.947C127.914 126.111 127.822 126.183 127.659 126.165L125.399 125.906C125.235 125.887 125.163 125.796 125.181 125.632L125.429 123.47C125.44 123.372 125.397 123.317 125.299 123.306L118.74 122.555ZM133.116 123.754C133.086 123.584 133.058 123.39 133.034 123.172C133.011 122.937 133.005 122.629 133.015 122.249C133.044 121.854 133.085 121.353 133.138 120.745C133.192 120.121 133.275 119.326 133.386 118.36C133.497 117.394 133.595 116.609 133.681 116.005C133.768 115.384 133.842 114.887 133.901 114.512C133.979 114.123 134.055 113.824 134.128 113.617C134.202 113.41 134.273 113.219 134.343 113.044C134.791 112.034 135.439 111.295 136.289 110.829C137.157 110.347 138.214 110.178 139.458 110.321C140.703 110.463 141.685 110.866 142.405 111.529C143.144 112.178 143.625 113.046 143.849 114.133C143.877 114.319 143.904 114.521 143.929 114.74C143.954 114.958 143.952 115.265 143.923 115.66C143.913 116.04 143.88 116.542 143.825 117.167C143.772 117.774 143.69 118.561 143.579 119.527C143.469 120.494 143.37 121.287 143.282 121.907C143.196 122.511 143.114 123.008 143.037 123.397C142.977 123.772 142.91 124.071 142.834 124.295C142.761 124.502 142.69 124.685 142.622 124.843C142.158 125.851 141.492 126.596 140.624 127.077C139.774 127.544 138.727 127.706 137.483 127.564C136.238 127.421 135.247 127.026 134.508 126.377C133.788 125.714 133.324 124.839 133.116 123.754ZM135.877 123.547C136.087 124.467 136.716 124.987 137.764 125.107C138.812 125.227 139.551 124.864 139.979 124.017C140.044 123.892 140.093 123.748 140.128 123.587C140.18 123.427 140.233 123.175 140.289 122.833C140.345 122.491 140.406 122.034 140.471 121.461C140.553 120.89 140.648 120.137 140.755 119.204C140.862 118.27 140.94 117.516 140.989 116.941C141.055 116.368 141.099 115.909 141.122 115.563C141.145 115.217 141.15 114.961 141.136 114.793C141.138 114.627 141.122 114.476 141.088 114.34C140.862 113.418 140.225 112.897 139.177 112.777C138.129 112.657 137.398 113.021 136.986 113.87C136.922 113.995 136.864 114.138 136.813 114.298C136.777 114.46 136.732 114.712 136.676 115.054C136.62 115.396 136.552 115.852 136.47 116.424C136.404 116.997 136.318 117.75 136.211 118.683C136.104 119.617 136.017 120.37 135.952 120.943C135.903 121.518 135.866 121.978 135.843 122.324C135.82 122.67 135.808 122.926 135.805 123.091C135.819 123.259 135.843 123.411 135.877 123.547ZM146.431 125.528C146.45 125.364 146.541 125.292 146.705 125.31L149.161 125.592C149.325 125.611 149.398 125.702 149.379 125.866L149.092 128.371C149.073 128.535 148.982 128.607 148.818 128.588L146.362 128.307C146.198 128.288 146.126 128.197 146.144 128.033L146.431 125.528ZM159.175 122.757L159.131 122.702C159.009 122.755 158.831 122.792 158.596 122.815C158.363 122.822 158.115 122.81 157.853 122.78C157.215 122.707 156.622 122.523 156.075 122.228C155.528 121.933 155.058 121.547 154.665 121.071C154.271 120.595 153.978 120.038 153.786 119.403C153.61 118.769 153.566 118.067 153.654 117.297C153.751 116.446 153.977 115.708 154.33 115.085C154.684 114.462 155.123 113.957 155.649 113.569C156.192 113.167 156.797 112.887 157.462 112.731C158.143 112.577 158.852 112.542 159.589 112.627C160.342 112.713 161.025 112.907 161.637 113.21C162.266 113.514 162.793 113.914 163.217 114.411C163.641 114.907 163.956 115.491 164.161 116.161C164.366 116.832 164.422 117.577 164.328 118.395C164.251 119.067 164.069 119.718 163.781 120.348C163.511 120.965 163.179 121.549 162.784 122.101L157.539 129.438C157.462 129.529 157.358 129.567 157.227 129.552L154.844 129.279C154.664 129.258 154.625 129.171 154.725 129.016L159.175 122.757ZM158.7 120.388C159.486 120.479 160.136 120.304 160.651 119.865C161.166 119.427 161.468 118.814 161.558 118.028C161.648 117.242 161.492 116.577 161.09 116.034C160.688 115.49 160.094 115.173 159.307 115.083C158.521 114.993 157.871 115.167 157.356 115.606C156.858 116.047 156.564 116.66 156.474 117.446C156.384 118.232 156.532 118.896 156.917 119.438C157.32 119.982 157.914 120.298 158.7 120.388ZM166.978 127.459C166.963 127.307 167.039 127.217 167.209 127.186L169.356 126.91C169.505 126.91 169.596 126.987 169.628 127.14C169.737 127.634 169.963 128.049 170.306 128.387C170.649 128.725 171.132 128.93 171.754 129.001C172.229 129.055 172.668 128.99 173.07 128.803C173.475 128.601 173.777 128.287 173.975 127.862C174.083 127.642 174.169 127.395 174.234 127.12C174.3 126.829 174.358 126.471 174.407 126.045C174.459 125.586 174.485 125.216 174.484 124.934C174.483 124.652 174.454 124.4 174.397 124.177C174.289 123.667 174.059 123.284 173.707 123.028C173.355 122.772 172.941 122.617 172.466 122.563C171.91 122.499 171.445 122.57 171.073 122.776C170.718 122.985 170.458 123.22 170.296 123.484C170.211 123.64 170.104 123.711 169.973 123.696L167.909 123.459C167.746 123.44 167.673 123.349 167.692 123.185L168.722 114.195C168.74 114.032 168.832 113.959 168.995 113.978L177.887 114.996C178.051 115.015 178.123 115.107 178.105 115.27L177.88 117.235C177.861 117.399 177.77 117.472 177.606 117.453L171.146 116.713C171.048 116.702 170.993 116.745 170.982 116.843L170.551 120.601L170.625 120.61C170.84 120.469 171.162 120.34 171.59 120.223C172.034 120.108 172.56 120.085 173.165 120.154C174.246 120.278 175.127 120.628 175.807 121.203C176.506 121.765 176.951 122.521 177.14 123.471C177.214 123.845 177.259 124.248 177.275 124.681C177.292 125.115 177.261 125.675 177.182 126.363C177.06 127.427 176.845 128.29 176.537 128.952C176.097 129.897 175.422 130.582 174.51 131.009C173.599 131.435 172.586 131.585 171.472 131.457C170.834 131.384 170.246 131.234 169.708 131.006C169.17 130.779 168.705 130.493 168.313 130.15C167.922 129.79 167.612 129.389 167.38 128.948C167.151 128.49 167.017 127.994 166.978 127.459Z" fill="black"/>
<path d="M125.534 136.683C125.544 136.596 125.593 136.557 125.68 136.567L126.897 136.706C126.984 136.716 127.023 136.765 127.013 136.852L126.647 140.044C126.617 140.306 126.69 140.518 126.866 140.679C127.05 140.842 127.308 140.942 127.64 140.98L127.862 141.005C128.037 141.025 128.162 141.088 128.238 141.194C128.314 141.3 128.34 141.467 128.314 141.693C128.285 141.946 128.221 142.116 128.123 142.202C128.033 142.289 127.897 142.322 127.714 142.301C127.417 142.267 127.163 142.211 126.951 142.134C126.748 142.057 126.582 141.919 126.455 141.719L126.427 141.968C126.373 142.439 126.286 142.844 126.168 143.184C126.049 143.532 125.884 143.814 125.674 144.029C125.472 144.244 125.217 144.391 124.907 144.471C124.597 144.559 124.223 144.578 123.787 144.528L123.303 144.473C123.216 144.463 123.177 144.414 123.187 144.327L123.307 143.28C123.317 143.193 123.366 143.154 123.453 143.164L123.741 143.197C123.994 143.226 124.195 143.205 124.345 143.134C124.494 143.063 124.609 142.943 124.69 142.776C124.779 142.618 124.842 142.418 124.879 142.175C124.923 141.941 124.963 141.667 124.999 141.353L125.534 136.683ZM132.366 137.094C133.369 137.209 134.08 137.481 134.499 137.909C134.919 138.337 135.093 138.856 135.023 139.466C134.993 139.728 134.921 139.972 134.807 140.197C134.703 140.415 134.574 140.617 134.42 140.802C134.267 140.979 134.099 141.137 133.915 141.275C133.731 141.413 133.555 141.525 133.386 141.612C133.454 141.637 133.527 141.654 133.605 141.663C133.693 141.673 133.784 141.684 133.88 141.695L135.515 141.882C135.716 141.905 135.845 141.973 135.903 142.086C135.961 142.198 135.976 142.377 135.948 142.621C135.92 142.865 135.857 143.026 135.76 143.103C135.672 143.173 135.542 143.197 135.367 143.177L133.418 142.954C133.104 142.918 132.806 142.857 132.524 142.772C132.252 142.679 131.998 142.54 131.763 142.354C131.458 142.478 131.14 142.552 130.81 142.576C130.482 142.591 130.191 142.584 129.938 142.555L128.054 142.34C127.888 142.321 127.767 142.262 127.689 142.165C127.612 142.068 127.587 141.902 127.614 141.666C127.64 141.439 127.69 141.273 127.764 141.166C127.829 141.059 127.975 141.018 128.202 141.044L129.733 141.22C129.872 141.236 130.03 141.249 130.205 141.261C130.382 141.263 130.591 141.252 130.832 141.226C130.795 140.931 130.728 140.671 130.63 140.448C130.54 140.225 130.431 140.027 130.3 139.853C130.171 139.671 130.026 139.508 129.866 139.366C129.715 139.216 129.559 139.07 129.399 138.928C129.311 138.847 129.261 138.78 129.25 138.726C129.248 138.664 129.251 138.598 129.259 138.528L129.354 137.704C129.365 137.608 129.46 137.513 129.638 137.418C129.817 137.324 130.046 137.248 130.327 137.192C130.608 137.127 130.927 137.084 131.283 137.063C131.639 137.042 132 137.052 132.366 137.094ZM132.11 141.068C132.259 140.997 132.411 140.908 132.564 140.802C132.726 140.697 132.868 140.58 132.989 140.453C133.119 140.318 133.228 140.171 133.317 140.013C133.406 139.856 133.46 139.689 133.48 139.515C133.521 139.157 133.419 138.894 133.173 138.724C132.936 138.556 132.617 138.449 132.216 138.403C131.867 138.363 131.558 138.363 131.288 138.402C131.027 138.443 130.846 138.484 130.744 138.526C131.116 138.825 131.418 139.195 131.651 139.637C131.892 140.071 132.045 140.548 132.11 141.068ZM139.08 141.469C139.018 142.009 139.301 142.316 139.929 142.388C140.121 142.41 140.275 142.418 140.39 142.414C140.507 142.401 140.599 142.367 140.667 142.313C140.745 142.251 140.8 142.156 140.832 142.027C140.873 141.899 140.907 141.722 140.933 141.495L141.159 139.52C141.169 139.433 141.218 139.394 141.305 139.404L142.522 139.543C142.609 139.553 142.647 139.602 142.638 139.689L142.392 141.835C142.36 142.114 142.419 142.333 142.568 142.491C142.719 142.641 142.934 142.732 143.213 142.764C143.422 142.788 143.59 142.794 143.715 142.782C143.841 142.761 143.935 142.71 143.997 142.628C144.069 142.539 144.124 142.413 144.16 142.249C144.196 142.086 144.231 141.864 144.263 141.585L144.574 138.864C144.584 138.777 144.633 138.738 144.72 138.748L145.937 138.888C146.024 138.898 146.063 138.946 146.053 139.033L145.635 142.683C145.566 143.285 145.39 143.698 145.108 143.922C144.836 144.138 144.404 144.212 143.81 144.144L143.248 144.08C142.943 144.045 142.687 143.958 142.482 143.82C142.287 143.674 142.145 143.485 142.057 143.254C141.906 143.493 141.706 143.652 141.459 143.729C141.221 143.799 140.906 143.812 140.514 143.767L139.938 143.701C139.319 143.63 138.922 143.35 138.748 142.862C138.597 143.101 138.398 143.259 138.151 143.337C137.912 143.416 137.592 143.432 137.191 143.386L135.699 143.215C135.525 143.195 135.398 143.141 135.32 143.053C135.243 142.955 135.217 142.793 135.243 142.567C135.273 142.305 135.338 142.127 135.437 142.032C135.528 141.937 135.664 141.899 135.848 141.92L136.894 142.04C137.165 142.071 137.343 142.021 137.428 141.889C137.515 141.749 137.58 141.491 137.623 141.116L137.849 139.141C137.859 139.054 137.908 139.015 137.995 139.025L139.212 139.164C139.299 139.174 139.338 139.223 139.328 139.31L139.08 141.469ZM154.817 150.415C154.729 150.405 154.691 150.357 154.701 150.27L154.83 149.144C154.84 149.057 154.888 149.019 154.975 149.029L156.074 149.155C156.162 149.165 156.2 149.213 156.19 149.3L156.061 150.425C156.051 150.513 156.003 150.551 155.916 150.541L154.817 150.415ZM153.116 150.221C153.029 150.211 152.99 150.162 153 150.075L153.129 148.95C153.139 148.862 153.187 148.824 153.275 148.834L154.374 148.96C154.461 148.97 154.499 149.018 154.489 149.106L154.361 150.231C154.351 150.318 154.302 150.356 154.215 150.346L153.116 150.221ZM156.463 146.919C156.986 146.979 157.351 146.955 157.558 146.846C157.765 146.737 157.88 146.582 157.903 146.382C157.922 146.216 157.886 146.066 157.795 145.932C157.713 145.808 157.568 145.681 157.362 145.551C157.166 145.414 156.908 145.269 156.59 145.118C156.281 144.959 155.914 144.771 155.488 144.554C155.412 144.519 155.392 144.464 155.427 144.388L155.899 143.395C155.935 143.311 155.991 143.287 156.067 143.322C156.334 143.458 156.587 143.598 156.827 143.74C157.068 143.874 157.306 143.998 157.54 144.113C157.775 144.22 158.007 144.317 158.235 144.405C158.465 144.485 158.706 144.539 158.959 144.568L160.267 144.717C160.442 144.737 160.568 144.796 160.645 144.893C160.722 144.99 160.748 145.152 160.722 145.379C160.693 145.632 160.629 145.806 160.529 145.901C160.439 145.996 160.302 146.034 160.119 146.013L159.216 145.909C159.252 145.984 159.287 146.099 159.323 146.253C159.366 146.417 159.377 146.586 159.357 146.76C159.329 147.005 159.255 147.23 159.134 147.437C159.013 147.644 158.839 147.819 158.61 147.961C158.391 148.103 158.11 148.204 157.767 148.262C157.433 148.329 157.03 148.336 156.559 148.282L153.576 147.941C152.442 147.811 151.626 147.452 151.128 146.865C150.638 146.279 150.445 145.536 150.548 144.638C150.576 144.394 150.626 144.152 150.697 143.913C150.778 143.666 150.871 143.434 150.976 143.216C151.081 142.989 151.193 142.781 151.312 142.592C151.441 142.394 151.571 142.224 151.702 142.08C151.754 142.015 151.816 142.013 151.889 142.074L152.861 142.729C152.925 142.781 152.932 142.839 152.88 142.904C152.704 143.131 152.532 143.398 152.364 143.706C152.205 144.015 152.106 144.339 152.067 144.679C152.029 145.011 152.055 145.292 152.143 145.523C152.24 145.755 152.377 145.948 152.554 146.1C152.731 146.253 152.938 146.37 153.177 146.45C153.414 146.539 153.659 146.598 153.912 146.627L156.463 146.919ZM162.686 139.481C162.599 139.471 162.56 139.422 162.57 139.335L162.699 138.21C162.709 138.123 162.758 138.084 162.845 138.094L164.101 138.238C164.188 138.248 164.227 138.296 164.217 138.384L164.088 139.509C164.078 139.596 164.029 139.635 163.942 139.625L162.686 139.481ZM160.528 146.059C160.353 146.039 160.226 145.994 160.146 145.923C160.065 145.852 160.036 145.725 160.057 145.542C160.082 145.324 160.147 145.137 160.253 144.981C160.352 144.816 160.493 144.743 160.676 144.764L161.317 144.838C161.535 144.863 161.698 144.833 161.804 144.748C161.921 144.655 161.994 144.478 162.024 144.216L162.404 140.906C162.414 140.819 162.462 140.781 162.549 140.791L163.766 140.93C163.853 140.94 163.892 140.988 163.882 141.076L163.464 144.726C163.399 145.293 163.233 145.698 162.967 145.941C162.701 146.176 162.294 146.262 161.744 146.199L160.528 146.059ZM170.275 144.91C170.225 145.346 170.144 145.703 170.032 145.982C169.922 146.252 169.778 146.465 169.601 146.622C169.424 146.778 169.21 146.877 168.957 146.919C168.705 146.961 168.413 146.963 168.082 146.925L165.047 146.577C164.96 146.567 164.921 146.519 164.931 146.431L165.049 145.398C165.059 145.311 165.108 145.272 165.195 145.282L167.629 145.561C167.864 145.588 168.054 145.592 168.197 145.573C168.341 145.554 168.452 145.509 168.531 145.439C168.619 145.361 168.68 145.257 168.712 145.128C168.753 145 168.785 144.84 168.807 144.649L168.907 143.772C168.995 143.005 168.594 142.57 167.705 142.468L166.135 142.288C166.047 142.278 166.009 142.229 166.019 142.142L166.139 141.096C166.149 141.008 166.197 140.97 166.285 140.98L168.378 141.22C169.075 141.3 169.607 141.555 169.973 141.986C170.349 142.409 170.491 143.021 170.399 143.824L170.275 144.91ZM173.382 147.399C173.372 147.487 173.324 147.525 173.236 147.515L172.02 147.376C171.932 147.366 171.894 147.317 171.904 147.23L172.893 138.596C172.903 138.508 172.952 138.47 173.039 138.48L174.255 138.619C174.343 138.629 174.381 138.678 174.371 138.765L173.382 147.399ZM172.863 137.121C172.813 137.018 172.773 136.903 172.744 136.776C172.724 136.641 172.722 136.499 172.739 136.351C172.756 136.203 172.795 136.057 172.856 135.914C172.926 135.763 173.025 135.633 173.152 135.524C173.28 135.406 173.436 135.318 173.62 135.259C173.804 135.192 174.023 135.173 174.276 135.202C174.52 135.23 174.733 135.303 174.913 135.421C175.095 135.53 175.234 135.665 175.331 135.826C175.351 135.882 175.347 135.921 175.317 135.944L174.94 136.232C174.882 136.27 174.838 136.269 174.807 136.23C174.73 136.133 174.642 136.052 174.544 135.988C174.446 135.915 174.336 135.871 174.214 135.857C174.013 135.834 173.849 135.882 173.72 136C173.593 136.109 173.518 136.259 173.496 136.451C173.476 136.626 173.503 136.783 173.575 136.924C173.657 137.057 173.742 137.16 173.831 137.232L175.153 137.383C175.205 137.389 175.228 137.423 175.221 137.484L175.165 137.968C175.158 138.029 175.128 138.056 175.076 138.05L172.303 137.733C172.25 137.727 172.228 137.693 172.235 137.632L172.29 137.148C172.297 137.087 172.327 137.059 172.379 137.065L172.863 137.121Z" fill="#838383"/>
<g opacity="0.3" filter="url(#filter5_d_1637_2784)">
<circle cx="44.147" cy="120.146" r="16.4574" stroke="#17AC74" stroke-width="0.183882" shape-rendering="crispEdges"/>
</g>
<g opacity="0.2" filter="url(#filter6_d_1637_2784)">
<circle cx="44.1464" cy="120.146" r="21.0544" stroke="#17AC74" stroke-width="0.183882" shape-rendering="crispEdges"/>
</g>
<g filter="url(#filter7_d_1637_2784)">
<circle cx="44.1461" cy="120.146" r="12.8717" fill="url(#paint6_linear_1637_2784)"/>
</g>
<path d="M48.7432 121.985L44.1461 118.308L39.5491 121.985" stroke="white" stroke-width="1.37911" stroke-linecap="round" stroke-linejoin="round"/>
<defs>
<filter id="filter0_f_1637_2784" x="60.9695" y="0.969723" width="118.505" height="78.9268" filterUnits="userSpaceOnUse" color-interpolation-filters="sRGB">
<feFlood flood-opacity="0" result="BackgroundImageFix"/>
<feBlend mode="normal" in="SourceGraphic" in2="BackgroundImageFix" result="shape"/>
<feGaussianBlur stdDeviation="1.44055" result="effect1_foregroundBlur_1637_2784"/>
</filter>
<filter id="filter1_b_1637_2784" x="50.5468" y="-9.45293" width="139.351" height="99.7721" filterUnits="userSpaceOnUse" color-interpolation-filters="sRGB">
<feFlood flood-opacity="0" result="BackgroundImageFix"/>
<feGaussianBlur in="BackgroundImageFix" stdDeviation="6.65188"/>
<feComposite in2="SourceAlpha" operator="in" result="effect1_backgroundBlur_1637_2784"/>
<feBlend mode="normal" in="SourceGraphic" in2="effect1_backgroundBlur_1637_2784" result="shape"/>
</filter>
<filter id="filter2_f_1637_2784" x="71.9388" y="28.0242" width="180.012" height="129.323" filterUnits="userSpaceOnUse" color-interpolation-filters="sRGB">
<feFlood flood-opacity="0" result="BackgroundImageFix"/>
<feBlend mode="normal" in="SourceGraphic" in2="BackgroundImageFix" result="shape"/>
<feGaussianBlur stdDeviation="2.17172" result="effect1_foregroundBlur_1637_2784"/>
</filter>
<filter id="filter3_b_1637_2784" x="56.226" y="12.3115" width="211.438" height="160.749" filterUnits="userSpaceOnUse" color-interpolation-filters="sRGB">
<feFlood flood-opacity="0" result="BackgroundImageFix"/>
<feGaussianBlur in="BackgroundImageFix" stdDeviation="10.0281"/>
<feComposite in2="SourceAlpha" operator="in" result="effect1_backgroundBlur_1637_2784"/>
<feBlend mode="normal" in="SourceGraphic" in2="effect1_backgroundBlur_1637_2784" result="shape"/>
</filter>
<filter id="filter4_b_1637_2784" x="25.2702" y="60.2699" width="197.073" height="128.135" filterUnits="userSpaceOnUse" color-interpolation-filters="sRGB">
<feFlood flood-opacity="0" result="BackgroundImageFix"/>
<feGaussianBlur in="BackgroundImageFix" stdDeviation="8.49089"/>
<feComposite in2="SourceAlpha" operator="in" result="effect1_backgroundBlur_1637_2784"/>
<feBlend mode="normal" in="SourceGraphic" in2="effect1_backgroundBlur_1637_2784" result="shape"/>
</filter>
<filter id="filter5_d_1637_2784" x="5.53186" y="85.2088" width="77.2302" height="77.2302" filterUnits="userSpaceOnUse" color-interpolation-filters="sRGB">
<feFlood flood-opacity="0" result="BackgroundImageFix"/>
<feColorMatrix in="SourceAlpha" type="matrix" values="0 0 0 0 0 0 0 0 0 0 0 0 0 0 0 0 0 0 127 0" result="hardAlpha"/>
<feOffset dy="3.67763"/>
<feGaussianBlur stdDeviation="11.0329"/>
<feComposite in2="hardAlpha" operator="out"/>
<feColorMatrix type="matrix" values="0 0 0 0 0 0 0 0 0 0 0 0 0 0 0 0 0 0 0.25 0"/>
<feBlend mode="normal" in2="BackgroundImageFix" result="effect1_dropShadow_1637_2784"/>
<feBlend mode="normal" in="SourceGraphic" in2="effect1_dropShadow_1637_2784" result="shape"/>
</filter>
<filter id="filter6_d_1637_2784" x="0.934208" y="80.6118" width="86.4246" height="86.4243" filterUnits="userSpaceOnUse" color-interpolation-filters="sRGB">
<feFlood flood-opacity="0" result="BackgroundImageFix"/>
<feColorMatrix in="SourceAlpha" type="matrix" values="0 0 0 0 0 0 0 0 0 0 0 0 0 0 0 0 0 0 127 0" result="hardAlpha"/>
<feOffset dy="3.67763"/>
<feGaussianBlur stdDeviation="11.0329"/>
<feComposite in2="hardAlpha" operator="out"/>
<feColorMatrix type="matrix" values="0 0 0 0 0 0 0 0 0 0 0 0 0 0 0 0 0 0 0.25 0"/>
<feBlend mode="normal" in2="BackgroundImageFix" result="effect1_dropShadow_1637_2784"/>
<feBlend mode="normal" in="SourceGraphic" in2="effect1_dropShadow_1637_2784" result="shape"/>
</filter>
<filter id="filter7_d_1637_2784" x="9.20862" y="88.8865" width="69.8747" height="69.875" filterUnits="userSpaceOnUse" color-interpolation-filters="sRGB">
<feFlood flood-opacity="0" result="BackgroundImageFix"/>
<feColorMatrix in="SourceAlpha" type="matrix" values="0 0 0 0 0 0 0 0 0 0 0 0 0 0 0 0 0 0 127 0" result="hardAlpha"/>
<feOffset dy="3.67763"/>
<feGaussianBlur stdDeviation="11.0329"/>
<feComposite in2="hardAlpha" operator="out"/>
<feColorMatrix type="matrix" values="0 0 0 0 0 0 0 0 0 0 0 0 0 0 0 0 0 0 0.25 0"/>
<feBlend mode="normal" in2="BackgroundImageFix" result="effect1_dropShadow_1637_2784"/>
<feBlend mode="normal" in="SourceGraphic" in2="effect1_dropShadow_1637_2784" result="shape"/>
</filter>
<linearGradient id="paint0_linear_1637_2784" x1="153.024" y1="19.6621" x2="119.258" y2="50.4227" gradientUnits="userSpaceOnUse">
<stop stop-color="#75F5B2"/>
<stop offset="1" stop-color="#1771F9" stop-opacity="0"/>
</linearGradient>
<linearGradient id="paint1_linear_1637_2784" x1="79.9631" y1="10.3641" x2="127.809" y2="55.7834" gradientUnits="userSpaceOnUse">
<stop stop-color="white"/>
<stop offset="1" stop-color="#3877F2" stop-opacity="0.35"/>
</linearGradient>
<linearGradient id="paint2_linear_1637_2784" x1="191.274" y1="106.365" x2="140.369" y2="152.739" gradientUnits="userSpaceOnUse">
<stop stop-color="#BABABA"/>
<stop offset="1" stop-color="#1771F9" stop-opacity="0"/>
</linearGradient>
<linearGradient id="paint3_linear_1637_2784" x1="81.1299" y1="92.3481" x2="153.26" y2="160.82" gradientUnits="userSpaceOnUse">
<stop stop-color="white"/>
<stop offset="1" stop-color="#3877F2" stop-opacity="0.35"/>
</linearGradient>
<linearGradient id="paint4_linear_1637_2784" x1="165.985" y1="102.026" x2="116.229" y2="147.353" gradientUnits="userSpaceOnUse">
<stop stop-color="white"/>
<stop offset="1" stop-color="#1771F9" stop-opacity="0"/>
</linearGradient>
<linearGradient id="paint5_linear_1637_2784" x1="58.3258" y1="88.3249" x2="128.829" y2="155.252" gradientUnits="userSpaceOnUse">
<stop stop-color="white"/>
<stop offset="1" stop-color="#3877F2" stop-opacity="0.35"/>
</linearGradient>
<linearGradient id="paint6_linear_1637_2784" x1="44.1461" y1="107.275" x2="37.7103" y2="133.478" gradientUnits="userSpaceOnUse">
<stop stop-color="#17DC72"/>
<stop offset="0.492191" stop-color="#16B873"/>
<stop offset="1" stop-color="#159274"/>
</linearGradient>
</defs>
</svg>
