<svg width="22" height="22" viewBox="0 0 22 22" fill="none" xmlns="http://www.w3.org/2000/svg">
<ellipse cx="11" cy="11" rx="4" ry="10" stroke="black" stroke-width="1.5"/>
<path d="M20.9962 10.7205C19.1938 12.2016 15.3949 13.2222 11 13.2222C6.60511 13.2222 2.80619 12.2016 1.00383 10.7205M20.9962 10.7205C20.8482 5.32691 16.4294 1 11 1C5.57061 1 1.15183 5.32691 1.00383 10.7205M20.9962 10.7205C20.9987 10.8134 21 10.9065 21 11C21 16.5228 16.5228 21 11 21C5.47715 21 1 16.5228 1 11C1 10.9065 1.00128 10.8134 1.00383 10.7205" stroke="black" stroke-width="1.5"/>
</svg>
