<svg width="25" height="31" viewBox="0 0 25 31" fill="none" xmlns="http://www.w3.org/2000/svg">
<path d="M20.8741 22.8202C20.5156 23.0276 20.3931 23.4864 20.6005 23.845C20.8079 24.2035 21.2667 24.326 21.6252 24.1186L20.8741 22.8202ZM3.37413 24.1186C3.73267 24.326 4.19147 24.2035 4.39888 23.845C4.60628 23.4864 4.48376 23.0276 4.12522 22.8202L3.37413 24.1186ZM6.66634 5.99984C6.25213 5.99984 5.91634 6.33562 5.91634 6.74984C5.91634 7.16405 6.25213 7.49984 6.66634 7.49984V5.99984ZM18.333 7.49984C18.7472 7.49984 19.083 7.16405 19.083 6.74984C19.083 6.33562 18.7472 5.99984 18.333 5.99984V7.49984ZM6.66634 11.8332C6.25213 11.8332 5.91634 12.169 5.91634 12.5832C5.91634 12.9974 6.25213 13.3332 6.66634 13.3332V11.8332ZM12.4997 13.3332C12.9139 13.3332 13.2497 12.9974 13.2497 12.5832C13.2497 12.169 12.9139 11.8332 12.4997 11.8332V13.3332ZM9.60384 24.979V24.229H8.10384V24.979H9.60384ZM8.85384 30.0832H8.10384C8.10384 30.332 8.22729 30.5647 8.43337 30.7042C8.63945 30.8437 8.90132 30.872 9.13238 30.7795L8.85384 30.0832ZM12.4997 28.6248L12.7782 27.9285C12.5994 27.857 12.3999 27.857 12.2211 27.9285L12.4997 28.6248ZM16.1455 30.0832L15.867 30.7795C16.098 30.872 16.3599 30.8437 16.566 30.7042C16.7721 30.5647 16.8955 30.332 16.8955 30.0832H16.1455ZM16.8955 24.979V24.229H15.3955V24.979H16.8955ZM23.4163 6.74984V18.4165H24.9163V6.74984H23.4163ZM1.58301 18.4165V6.74984H0.0830078V18.4165H1.58301ZM6.66634 1.6665H18.333V0.166504H6.66634V1.6665ZM1.58301 6.74984C1.58301 3.94239 3.85889 1.6665 6.66634 1.6665V0.166504C3.03047 0.166504 0.0830078 3.11396 0.0830078 6.74984H1.58301ZM24.9163 6.74984C24.9163 3.11396 21.9689 0.166504 18.333 0.166504V1.6665C21.1405 1.6665 23.4163 3.94239 23.4163 6.74984H24.9163ZM23.4163 18.4165C23.4163 20.2971 22.3955 21.9402 20.8741 22.8202L21.6252 24.1186C23.591 22.9815 24.9163 20.8542 24.9163 18.4165H23.4163ZM0.0830078 18.4165C0.0830078 20.8542 1.40832 22.9815 3.37413 24.1186L4.12522 22.8202C2.60385 21.9402 1.58301 20.2971 1.58301 18.4165H0.0830078ZM16.1247 21.3332C16.1247 23.3352 14.5017 24.9582 12.4997 24.9582V26.4582C15.3301 26.4582 17.6247 24.1636 17.6247 21.3332H16.1247ZM12.4997 24.9582C10.4976 24.9582 8.87467 23.3352 8.87467 21.3332H7.37467C7.37467 24.1636 9.66922 26.4582 12.4997 26.4582V24.9582ZM8.87467 21.3332C8.87467 19.3311 10.4976 17.7082 12.4997 17.7082V16.2082C9.66922 16.2082 7.37467 18.5027 7.37467 21.3332H8.87467ZM12.4997 17.7082C14.5017 17.7082 16.1247 19.3311 16.1247 21.3332H17.6247C17.6247 18.5027 15.3301 16.2082 12.4997 16.2082V17.7082ZM6.66634 7.49984H18.333V5.99984H6.66634V7.49984ZM6.66634 13.3332H12.4997V11.8332H6.66634V13.3332ZM8.10384 24.979V30.0832H9.60384V24.979H8.10384ZM9.13238 30.7795L12.7782 29.3212L12.2211 27.9285L8.5753 29.3868L9.13238 30.7795ZM12.2211 29.3212L15.867 30.7795L16.4241 29.3868L12.7782 27.9285L12.2211 29.3212ZM16.8955 30.0832V24.979H15.3955V30.0832H16.8955Z" fill="#F5C54A"/>
</svg>
