<svg width="20" height="20" viewBox="0 0 20 20" fill="none" xmlns="http://www.w3.org/2000/svg">
<path opacity="0.4" d="M4 0.00244141H16C18.2091 0.00244141 20 1.7933 20 4.00244V16.0024C20 18.2116 18.2091 20.0024 16 20.0024H4C1.79086 20.0024 0 18.2116 0 16.0024V4.00244C0 1.7933 1.79086 0.00244141 4 0.00244141Z" fill="#45AE62"/>
<path fill-rule="evenodd" clip-rule="evenodd" d="M9.46967 5.47211C9.76256 5.17922 10.2374 5.17922 10.5303 5.47211L13.5303 8.47211C13.8232 8.765 13.8232 9.23988 13.5303 9.53277C13.2374 9.82566 12.7626 9.82566 12.4697 9.53277L10.75 7.8131V14.0024C10.75 14.4167 10.4142 14.7524 10 14.7524C9.58579 14.7524 9.25 14.4167 9.25 14.0024V7.8131L7.53033 9.53277C7.23744 9.82566 6.76256 9.82566 6.46967 9.53277C6.17678 9.23988 6.17678 8.765 6.46967 8.47211L9.46967 5.47211Z" fill="#45AE62"/>
</svg>
