<svg width="27" height="24" viewBox="0 0 27 24" fill="none" xmlns="http://www.w3.org/2000/svg">
<path opacity="0.4" d="M15.9173 13.9167C15.9173 15.2514 14.8353 16.3333 13.5007 16.3333C12.166 16.3333 11.084 15.2514 11.084 13.9167C11.084 12.582 12.166 11.5 13.5007 11.5C14.8353 11.5 15.9173 12.582 15.9173 13.9167Z" fill="white"/>
<path fill-rule="evenodd" clip-rule="evenodd" d="M13.5 7.573C9.99644 7.573 7.15625 10.4132 7.15625 13.9167C7.15625 15.6688 7.86531 17.2535 9.01429 18.4025C9.3682 18.7564 9.3682 19.3302 9.01429 19.6841C8.66038 20.038 8.08657 20.038 7.73266 19.6841C6.25766 18.2091 5.34375 16.1688 5.34375 13.9167C5.34375 9.41218 8.99543 5.7605 13.5 5.7605C18.0046 5.7605 21.6562 9.41218 21.6562 13.9167C21.6562 16.1688 20.7423 18.2091 19.2673 19.6841C18.9134 20.038 18.3396 20.038 17.9857 19.6841C17.6318 19.3302 17.6318 18.7564 17.9857 18.4025C19.1347 17.2535 19.8438 15.6688 19.8438 13.9167C19.8438 10.4132 17.0036 7.573 13.5 7.573Z" fill="white"/>
<path opacity="0.4" fill-rule="evenodd" clip-rule="evenodd" d="M13.5003 2.73962C7.32739 2.73962 2.32324 7.74377 2.32324 13.9167C2.32324 17.0034 3.57329 19.7965 5.59693 21.8201C5.95085 22.174 5.95085 22.7478 5.59693 23.1017C5.24302 23.4556 4.66922 23.4556 4.3153 23.1017C1.96564 20.7521 0.510742 17.5034 0.510742 13.9167C0.510742 6.74276 6.32638 0.927124 13.5003 0.927124C20.6743 0.927124 26.4899 6.74276 26.4899 13.9167C26.4899 17.5034 25.035 20.7521 22.6853 23.1017C22.3314 23.4556 21.7576 23.4556 21.4037 23.1017C21.0498 22.7478 21.0498 22.174 21.4037 21.8201C23.4274 19.7965 24.6774 17.0034 24.6774 13.9167C24.6774 7.74377 19.6733 2.73962 13.5003 2.73962Z" fill="white"/>
</svg>
