<svg width="52" height="52" viewBox="0 0 52 52" fill="none" xmlns="http://www.w3.org/2000/svg">
<circle opacity="0.1" cx="26" cy="26" r="26" fill="#14B58A"/>
<path opacity="0.4" d="M28.9173 26.9167C28.9173 28.2514 27.8353 29.3333 26.5007 29.3333C25.166 29.3333 24.084 28.2514 24.084 26.9167C24.084 25.582 25.166 24.5 26.5007 24.5C27.8353 24.5 28.9173 25.582 28.9173 26.9167Z" fill="#14B58A"/>
<path fill-rule="evenodd" clip-rule="evenodd" d="M26.5 20.573C22.9964 20.573 20.1562 23.4132 20.1562 26.9167C20.1562 28.6688 20.8653 30.2535 22.0143 31.4025C22.3682 31.7564 22.3682 32.3302 22.0143 32.6841C21.6604 33.038 21.0866 33.038 20.7327 32.6841C19.2577 31.2091 18.3438 29.1688 18.3438 26.9167C18.3438 22.4122 21.9954 18.7605 26.5 18.7605C31.0046 18.7605 34.6562 22.4122 34.6562 26.9167C34.6562 29.1688 33.7423 31.2091 32.2673 32.6841C31.9134 33.038 31.3396 33.038 30.9857 32.6841C30.6318 32.3302 30.6318 31.7564 30.9857 31.4025C32.1347 30.2535 32.8438 28.6688 32.8438 26.9167C32.8438 23.4132 30.0036 20.573 26.5 20.573Z" fill="#14B58A"/>
<path opacity="0.4" fill-rule="evenodd" clip-rule="evenodd" d="M26.5003 15.7396C20.3274 15.7396 15.3232 20.7438 15.3232 26.9167C15.3232 30.0034 16.5733 32.7965 18.5969 34.8201C18.9508 35.174 18.9508 35.7478 18.5969 36.1017C18.243 36.4556 17.6692 36.4556 17.3153 36.1017C14.9656 33.7521 13.5107 30.5034 13.5107 26.9167C13.5107 19.7428 19.3264 13.9271 26.5003 13.9271C33.6743 13.9271 39.4899 19.7428 39.4899 26.9167C39.4899 30.5034 38.035 33.7521 35.6853 36.1017C35.3314 36.4556 34.7576 36.4556 34.4037 36.1017C34.0498 35.7478 34.0498 35.174 34.4037 34.8201C36.4274 32.7965 37.6774 30.0034 37.6774 26.9167C37.6774 20.7438 32.6733 15.7396 26.5003 15.7396Z" fill="#14B58A"/>
</svg>
