<svg width="38" height="33" viewBox="0 0 38 33" fill="none" xmlns="http://www.w3.org/2000/svg">
<path fill-rule="evenodd" clip-rule="evenodd" d="M8.75065 0.375H30.2507C34.2087 0.375 37.4173 3.58363 37.4173 7.54167V25.4583C37.4173 29.4164 34.2087 32.625 30.2507 32.625H16.8132C15.8236 32.625 15.0215 31.8228 15.0215 30.8333V24.5625C15.0215 20.6045 11.8129 17.3958 7.85482 17.3958H3.37565C2.38614 17.3958 1.58398 16.5937 1.58398 15.6042V7.54167C1.58398 3.58363 4.79261 0.375 8.75065 0.375ZM9.49604 8.21519C8.87854 7.80353 8.04425 7.97039 7.63259 8.58788C7.22093 9.20537 7.38779 10.0397 8.00528 10.4513L14.7799 14.9678C17.6386 16.8735 21.3627 16.8735 24.2214 14.9678L30.996 10.4513C31.6135 10.0397 31.7804 9.20537 31.3687 8.58788C30.9571 7.97039 30.1228 7.80353 29.5053 8.21519L22.7306 12.7316C20.7747 14.0356 18.2266 14.0356 16.2707 12.7316L9.49604 8.21519ZM0.240234 21.875C0.240234 21.1329 0.841852 20.5312 1.58398 20.5312H10.5423C11.2845 20.5312 11.8861 21.1329 11.8861 21.875C11.8861 22.6171 11.2845 23.2188 10.5423 23.2188H1.58398C0.841852 23.2188 0.240234 22.6171 0.240234 21.875ZM1.58398 25.9062C0.841852 25.9062 0.240234 26.5079 0.240234 27.25C0.240234 27.9921 0.841852 28.5938 1.58398 28.5938H10.5423C11.2845 28.5938 11.8861 27.9921 11.8861 27.25C11.8861 26.5079 11.2845 25.9062 10.5423 25.9062H1.58398Z" fill="#148EB5"/>
</svg>
