<svg width="77" height="77" viewBox="0 0 77 77" fill="none" xmlns="http://www.w3.org/2000/svg">
<g filter="url(#filter0_d_784_5787)">
<rect x="14" y="10" width="48.8889" height="47.8889" rx="10" fill="#6466F1" fill-opacity="0.3" />
<rect x="14.5" y="9.5" width="47.8889" height="47.8889" rx="9.5" stroke="#6466F1" shape-rendering="auto"/>
</g>
<path opacity="0.4" d="M44 25H32C29.7909 25 28 26.7909 28 29V39C28 41.2091 29.7909 43 32 43H44C46.2091 43 48 41.2091 48 39V29C48 26.7909 46.2091 25 44 25Z" fill="#6466F1"/>
<path fill-rule="evenodd" clip-rule="evenodd" d="M31.376 29.5841C31.6058 29.2394 32.0715 29.1463 32.4161 29.376L36.1973 31.8968C37.289 32.6246 38.7112 32.6246 39.8029 31.8968L43.5841 29.376C43.9287 29.1463 44.3944 29.2394 44.6241 29.5841C44.8539 29.9287 44.7608 30.3944 44.4161 30.6241L40.6349 33.1449C39.0394 34.2086 36.9608 34.2086 35.3653 33.1449L31.5841 30.6241C31.2394 30.3944 31.1463 29.9287 31.376 29.5841Z" fill="#6466F1"/>
<path fill-rule="evenodd" clip-rule="evenodd" d="M27.25 37C27.25 36.5858 27.5858 36.25 28 36.25H34C34.4142 36.25 34.75 36.5858 34.75 37C34.75 37.4142 34.4142 37.75 34 37.75H28C27.5858 37.75 27.25 37.4142 27.25 37Z" fill="#6466F1"/>
<path fill-rule="evenodd" clip-rule="evenodd" d="M27.25 40C27.25 39.5858 27.5858 39.25 28 39.25H34C34.4142 39.25 34.75 39.5858 34.75 40C34.75 40.4142 34.4142 40.75 34 40.75H28C27.5858 40.75 27.25 40.4142 27.25 40Z" fill="#6466F1"/>
<defs>
<filter id="filter0_d_784_5787" x="0" y="0" width="76.8887" height="76.8889" filterUnits="userSpaceOnUse" color-interpolation-filters="sRGB">
<feFlood flood-opacity="0" result="BackgroundImageFix"/>
<feColorMatrix in="SourceAlpha" type="matrix" values="0 0 0 0 0 0 0 0 0 0 0 0 0 0 0 0 0 0 127 0" result="hardAlpha"/>
<feOffset dy="4"/>
<feGaussianBlur stdDeviation="7"/>
<feComposite in2="hardAlpha" operator="out"/>
<feColorMatrix type="matrix" values="0 0 0 0 0.392157 0 0 0 0 0.4 0 0 0 0 0.945098 0 0 0 0.3 0"/>
<feBlend mode="normal" in2="BackgroundImageFix" result="effect1_dropShadow_784_5787"/>
<feBlend mode="normal" in="SourceGraphic" in2="effect1_dropShadow_784_5787" result="shape"/>
</filter>
</defs>
</svg>
