<svg width="45" height="45" viewBox="0 0 45 45" fill="none" xmlns="http://www.w3.org/2000/svg">
<rect width="45" height="45" rx="10" fill="#0675B5"/>
<path opacity="0.4" d="M24.2598 15.5833L19.7404 15.5833L18.2225 13.8424C16.7346 12.1358 18.4704 9.5849 20.6427 10.2857L21.6478 10.6099C21.8767 10.6837 22.1235 10.6837 22.3523 10.6099L23.3574 10.2857C25.5297 9.5849 27.2655 12.1358 25.7776 13.8424L24.2598 15.5833Z" fill="white"/>
<path opacity="0.4" d="M15.158 19.0612C16.006 16.3476 18.5191 14.5 21.3621 14.5H22.638C25.481 14.5 27.9941 16.3476 28.8421 19.0612L30.1963 23.3946C31.5042 27.5801 28.3773 31.8333 23.9921 31.8333H20.008C15.6228 31.8333 12.4958 27.5801 13.8038 23.3945L15.158 19.0612Z" fill="white"/>
<path d="M21.9998 29.6667C21.9998 28.4701 22.9698 27.5 24.1664 27.5H30.6664C31.863 27.5 32.8331 28.4701 32.8331 29.6667C32.8331 30.8633 31.863 31.8333 30.6664 31.8333H24.1664C22.9698 31.8333 21.9998 30.8633 21.9998 29.6667Z" fill="white"/>
<path d="M21.9998 25.3333C21.9998 24.1367 22.9698 23.1667 24.1664 23.1667H29.9442H30.6664C31.863 23.1667 32.8331 24.1367 32.8331 25.3333C32.8331 26.53 31.863 27.5 30.6664 27.5H24.1664C22.9698 27.5 21.9998 26.53 21.9998 25.3333Z" fill="white"/>
</svg>
