<svg width="73" height="73" viewBox="0 0 73 73" fill="none" xmlns="http://www.w3.org/2000/svg">
<g filter="url(#filter0_d_548_2494)">
<rect x="14" y="10" width="45" height="44" rx="10" fill="#10739E" fill-opacity="0.3"/>
<rect x="14.5" y="9.5" width="44" height="44" rx="9.5" stroke="#10739E" shape-rendering="auto"/>
</g>
<path opacity="0.4" d="M38.2598 25.5833L33.7404 25.5833L32.2225 23.8424C30.7346 22.1358 32.4704 19.5849 34.6427 20.2857L35.6478 20.6099C35.8767 20.6837 36.1235 20.6837 36.3523 20.6099L37.3574 20.2857C39.5297 19.5849 41.2655 22.1358 39.7776 23.8424L38.2598 25.5833Z" fill="#10739E"/>
<path opacity="0.4" d="M29.158 29.0612C30.006 26.3476 32.5191 24.5 35.3621 24.5H36.638C39.481 24.5 41.9941 26.3476 42.8421 29.0612L44.1963 33.3946C45.5042 37.5801 42.3773 41.8333 37.9921 41.8333H34.008C29.6228 41.8333 26.4958 37.5801 27.8038 33.3945L29.158 29.0612Z" fill="#10739E"/>
<path d="M35.9998 39.6667C35.9998 38.4701 36.9698 37.5 38.1664 37.5H44.6664C45.863 37.5 46.8331 38.4701 46.8331 39.6667C46.8331 40.8633 45.863 41.8333 44.6664 41.8333H38.1664C36.9698 41.8333 35.9998 40.8633 35.9998 39.6667Z" fill="#10739E"/>
<path d="M35.9998 35.3333C35.9998 34.1367 36.9698 33.1667 38.1664 33.1667H43.9442H44.6664C45.863 33.1667 46.8331 34.1367 46.8331 35.3333C46.8331 36.53 45.863 37.5 44.6664 37.5H38.1664C36.9698 37.5 35.9998 36.53 35.9998 35.3333Z" fill="#10739E"/>
<defs>
<filter id="filter0_d_548_2494" x="0" y="0" width="73" height="73" filterUnits="userSpaceOnUse" color-interpolation-filters="sRGB">
<feFlood flood-opacity="0" result="BackgroundImageFix"/>
<feColorMatrix in="SourceAlpha" type="matrix" values="0 0 0 0 0 0 0 0 0 0 0 0 0 0 0 0 0 0 127 0" result="hardAlpha"/>
<feOffset dy="4"/>
<feGaussianBlur stdDeviation="7"/>
<feComposite in2="hardAlpha" operator="out"/>
<feColorMatrix type="matrix" values="0 0 0 0 0.0627451 0 0 0 0 0.45098 0 0 0 0 0.619608 0 0 0 0.5 0"/>
<feBlend mode="normal" in2="BackgroundImageFix" result="effect1_dropShadow_548_2494"/>
<feBlend mode="normal" in="SourceGraphic" in2="effect1_dropShadow_548_2494" result="shape"/>
</filter>
</defs>
</svg>
