<svg width="21" height="27" viewBox="0 0 21 27" fill="none" xmlns="http://www.w3.org/2000/svg">
<path opacity="0.4" d="M2.33555 10.6507C2.81887 6.3841 6.32849 3.16675 10.4994 3.16675C14.6702 3.16675 18.1798 6.3841 18.6632 10.6507L19.1086 14.5831C19.2193 15.5603 19.6153 16.4798 20.2443 17.2201C21.5792 18.7913 20.4958 21.2501 18.4688 21.2501H2.52994C0.502899 21.2501 -0.580456 18.7913 0.75436 17.2201C1.38336 16.4798 1.77939 15.5603 1.89008 14.5831L2.33555 10.6507Z" fill="white"/>
<path d="M10.499 26.4167C12.288 26.4167 13.81 25.3384 14.374 23.8333C14.374 23.4766 14.0849 23.1875 13.7282 23.1875H7.26986C6.91317 23.1875 6.62402 23.4766 6.62402 23.8333C7.18807 25.3384 8.71003 26.4167 10.499 26.4167Z" fill="white"/>
<path d="M20.833 4.45837C20.833 6.59848 19.0981 8.33337 16.958 8.33337C14.8179 8.33337 13.083 6.59848 13.083 4.45837C13.083 2.31827 14.8179 0.583374 16.958 0.583374C19.0981 0.583374 20.833 2.31827 20.833 4.45837Z" fill="white"/>
</svg>
