<svg width="20" height="24" viewBox="0 0 20 24" fill="none" xmlns="http://www.w3.org/2000/svg">
<path d="M14.25 5.75C14.25 8.09721 12.3472 10 10 10V11.5C13.1756 11.5 15.75 8.92564 15.75 5.75H14.25ZM10 10C7.65279 10 5.75 8.09721 5.75 5.75H4.25C4.25 8.92564 6.82436 11.5 10 11.5V10ZM5.75 5.75C5.75 3.40279 7.65279 1.5 10 1.5V0C6.82436 0 4.25 2.57436 4.25 5.75H5.75ZM10 1.5C12.3472 1.5 14.25 3.40279 14.25 5.75H15.75C15.75 2.57436 13.1756 0 10 0V1.5ZM18 18.875C18 19.646 17.3555 20.5459 15.8518 21.2978C14.3929 22.0272 12.3251 22.5 10 22.5V24C12.5074 24 14.8146 23.4934 16.5226 22.6394C18.1858 21.8078 19.5 20.5202 19.5 18.875H18ZM10 22.5C7.67494 22.5 5.60708 22.0272 4.14823 21.2978C2.64452 20.5459 2 19.646 2 18.875H0.5C0.5 20.5202 1.81424 21.8078 3.47741 22.6394C5.18543 23.4934 7.49257 24 10 24V22.5ZM2 18.875C2 18.104 2.64452 17.2041 4.14823 16.4522C5.60708 15.7228 7.67494 15.25 10 15.25V13.75C7.49257 13.75 5.18543 14.2566 3.47741 15.1106C1.81424 15.9422 0.5 17.2298 0.5 18.875H2ZM10 15.25C12.3251 15.25 14.3929 15.7228 15.8518 16.4522C17.3555 17.2041 18 18.104 18 18.875H19.5C19.5 17.2298 18.1858 15.9422 16.5226 15.1106C14.8146 14.2566 12.5074 13.75 10 13.75V15.25Z" fill="#1D6362"/>
</svg>
