<svg width="77" height="77" viewBox="0 0 77 77" fill="none" xmlns="http://www.w3.org/2000/svg">
<g filter="url(#filter0_d_784_5807)">
<rect x="14" y="10" width="48.87" height="47.87" rx="10" fill="#359E10" fill-opacity="0.3"/>
<rect x="14.5" y="9.5" width="47.87" height="47.87" rx="9.5" stroke="#359E10" shape-rendering="auto"/>
</g>
<path opacity="0.4" d="M45.6994 26.4679L43.067 29.1004C41.7497 28.0467 40.0789 27.4166 38.2608 27.4166C34.0083 27.4166 30.5609 30.864 30.5609 35.1165C30.5609 39.3691 34.0083 42.8165 38.2608 42.8165C42.5134 42.8165 45.9607 39.3691 45.9607 35.1165C45.9607 33.891 45.6744 32.7323 45.165 31.7037L47.8826 28.9862C49.013 30.7567 49.6681 32.8601 49.6681 35.1165C49.6681 41.4166 44.5609 46.5238 38.2608 46.5238C31.9607 46.5238 26.8535 41.4166 26.8535 35.1165C26.8535 28.8165 31.9607 23.7092 38.2608 23.7092C41.1029 23.7092 43.7022 24.7486 45.6994 26.4679Z" fill="#359E10"/>
<path d="M41.8479 30.32C40.8481 29.5712 39.6065 29.1277 38.2613 29.1277C34.9538 29.1277 32.2725 31.809 32.2725 35.1165C32.2725 38.4241 34.9538 41.1054 38.2613 41.1054C41.5688 41.1054 44.2501 38.4241 44.2501 35.1165C44.2501 34.3724 44.1144 33.6601 43.8664 33.0028L41.3759 35.4933C41.1898 37.0482 39.8663 38.2535 38.2613 38.2535C36.5288 38.2535 35.1243 36.849 35.1243 35.1165C35.1243 33.384 36.5288 31.9795 38.2613 31.9795C38.8167 31.9795 39.3383 32.1238 39.7908 32.377L41.8479 30.32Z" fill="#359E10"/>
<path d="M50.2731 24.3143L39.6726 34.9148C39.682 34.9807 39.6868 35.0481 39.6868 35.1166C39.6868 35.9041 39.0484 36.5425 38.2609 36.5425C37.4734 36.5425 36.835 35.9041 36.835 35.1166C36.835 34.3291 37.4734 33.6907 38.2609 33.6907C38.3294 33.6907 38.3968 33.6955 38.4627 33.7049L49.0632 23.1043C49.3973 22.7702 49.939 22.7702 50.2731 23.1043C50.6073 23.4385 50.6073 23.9802 50.2731 24.3143Z" fill="#359E10"/>
<defs>
<filter id="filter0_d_784_5807" x="0" y="0" width="76.8701" height="76.8701" filterUnits="userSpaceOnUse" color-interpolation-filters="sRGB">
<feFlood flood-opacity="0" result="BackgroundImageFix"/>
<feColorMatrix in="SourceAlpha" type="matrix" values="0 0 0 0 0 0 0 0 0 0 0 0 0 0 0 0 0 0 127 0" result="hardAlpha"/>
<feOffset dy="4"/>
<feGaussianBlur stdDeviation="7"/>
<feComposite in2="hardAlpha" operator="out"/>
<feColorMatrix type="matrix" values="0 0 0 0 0.207843 0 0 0 0 0.619608 0 0 0 0 0.0627451 0 0 0 0.3 0"/>
<feBlend mode="normal" in2="BackgroundImageFix" result="effect1_dropShadow_784_5807"/>
<feBlend mode="normal" in="SourceGraphic" in2="effect1_dropShadow_784_5807" result="shape"/>
</filter>
</defs>
</svg>
