<svg width="77" height="77" viewBox="0 0 77 77" fill="none" xmlns="http://www.w3.org/2000/svg">
<g filter="url(#filter0_d_784_5817)">
<rect x="14" y="10" width="48.89" height="47.89" rx="10" fill="#109E9A" fill-opacity="0.3" />
<rect x="14.5" y="9.5" width="47.89" height="47.89" rx="9.5" stroke="#109E9A" shape-rendering="auto"/>
</g>
<path opacity="0.4" d="M46 30C47.1046 30 48 30.8954 48 32L48 42C48 43.1046 47.1046 44 46 44C44.8954 44 44 43.1046 44 42L44 32C44 30.8954 44.8954 30 46 30Z" fill="#109E9A"/>
<path opacity="0.4" d="M30 38C31.1046 38 32 38.8954 32 40V42C32 43.1046 31.1046 44 30 44C28.8954 44 28 43.1046 28 42L28 40C28 38.8954 28.8954 38 30 38Z" fill="#109E9A"/>
<path opacity="0.4" d="M38 34C39.1046 34 40 34.8954 40 36L40 42C40 43.1046 39.1046 44 38 44C36.8954 44 36 43.1046 36 42L36 36C36 34.8954 36.8954 34 38 34Z" fill="#109E9A"/>
<path fill-rule="evenodd" clip-rule="evenodd" d="M44.2501 24C44.2501 23.5858 44.5859 23.25 45.0001 23.25H47.0001C47.9666 23.25 48.7501 24.0335 48.7501 25V27C48.7501 27.4142 48.4143 27.75 48.0001 27.75C47.5859 27.75 47.2501 27.4142 47.2501 27V25.7611C43.3671 28.8716 40.3562 30.8923 37.4409 32.2445C34.4592 33.6274 31.6136 34.2944 28.0951 34.744C27.6843 34.7965 27.3086 34.5059 27.2561 34.0951C27.2036 33.6842 27.4941 33.3085 27.905 33.256C31.3287 32.8186 34.0123 32.1812 36.8097 30.8837C39.5189 29.6272 42.3682 27.7362 46.1126 24.75H45.0001C44.5859 24.75 44.2501 24.4142 44.2501 24Z" fill="#109E9A"/>
<defs>
<filter id="filter0_d_784_5817" x="0" y="0" width="76.8896" height="76.8899" filterUnits="userSpaceOnUse" color-interpolation-filters="sRGB">
<feFlood flood-opacity="0" result="BackgroundImageFix"/>
<feColorMatrix in="SourceAlpha" type="matrix" values="0 0 0 0 0 0 0 0 0 0 0 0 0 0 0 0 0 0 127 0" result="hardAlpha"/>
<feOffset dy="4"/>
<feGaussianBlur stdDeviation="7"/>
<feComposite in2="hardAlpha" operator="out"/>
<feColorMatrix type="matrix" values="0 0 0 0 0.0627451 0 0 0 0 0.619608 0 0 0 0 0.603922 0 0 0 0.3 0"/>
<feBlend mode="normal" in2="BackgroundImageFix" result="effect1_dropShadow_784_5817"/>
<feBlend mode="normal" in="SourceGraphic" in2="effect1_dropShadow_784_5817" result="shape"/>
</filter>
</defs>
</svg>
