<svg width="37" height="37" viewBox="0 0 37 37" fill="none" xmlns="http://www.w3.org/2000/svg">
<path d="M36.9999 18.4999C36.9999 20.0275 33.9706 21.1366 33.594 22.5454C33.2044 24.0031 35.2616 26.4759 34.5234 27.7521C33.7744 29.0466 30.5974 28.4959 29.5467 29.5466C28.4961 30.5972 29.0468 33.774 27.7522 34.5232C26.4761 35.2616 24.0033 33.2042 22.5456 33.5938C21.1367 33.9704 20.0277 36.9997 18.5001 36.9997C16.9724 36.9997 15.8634 33.9704 14.4545 33.5938C12.9968 33.2042 10.524 35.2614 9.24787 34.5232C7.9533 33.7742 8.50398 30.5972 7.45336 29.5466C6.40274 28.4959 3.2259 29.0466 2.47675 27.7521C1.73831 26.4757 3.79575 24.0031 3.40614 22.5454C3.02931 21.1366 0 20.0275 0 18.4999C0 16.9722 3.02931 15.8632 3.40595 14.4543C3.79556 12.9966 1.73831 10.5238 2.47656 9.24768C3.22552 7.95311 6.40256 8.50379 7.45317 7.45317C8.50379 6.40256 7.95311 3.22571 9.24768 2.47656C10.5238 1.73812 12.9966 3.79556 14.4543 3.40595C15.8632 3.02931 16.9724 0 18.4999 0C20.0273 0 21.1366 3.02931 22.5454 3.40595C24.0031 3.79556 26.4759 1.73831 27.7521 2.47656C29.0466 3.22552 28.4959 6.40237 29.5466 7.45317C30.5972 8.50379 33.774 7.95311 34.5232 9.24768C35.2616 10.5238 33.2042 12.9966 33.5938 14.4543C33.9704 15.8632 36.9997 16.9722 36.9997 18.4999H36.9999Z" fill="#F5C54A"/>
<path d="M36.9999 18.4999C36.9999 20.0275 33.9706 21.1366 33.594 22.5454C33.2044 24.0031 35.2616 26.4759 34.5234 27.7521C33.7744 29.0466 30.5974 28.4959 29.5467 29.5466C28.4961 30.5972 29.0468 33.774 27.7522 34.5232C26.4761 35.2616 24.0033 33.2042 22.5456 33.5938C21.1367 33.9704 20.0277 36.9997 18.5001 36.9997C16.9724 36.9997 15.8634 33.9704 14.4545 33.5938C12.9968 33.2042 10.524 35.2614 9.24787 34.5232C7.9533 33.7742 8.50398 30.5972 7.45336 29.5466C6.40274 28.4959 3.2259 29.0466 2.47675 27.7521C1.73831 26.4757 3.79575 24.0031 3.40614 22.5454C3.02931 21.1366 0 20.0275 0 18.4999C0 16.9722 3.02931 15.8632 3.40595 14.4543C3.79556 12.9966 1.73831 10.5238 2.47656 9.24768C3.22552 7.95311 6.40256 8.50379 7.45317 7.45317C8.50379 6.40256 7.95311 3.22571 9.24768 2.47656C10.5238 1.73812 12.9966 3.79556 14.4543 3.40595C15.8632 3.02931 16.9724 0 18.4999 0C20.0273 0 21.1366 3.02931 22.5454 3.40595C24.0031 3.79556 26.4759 1.73831 27.7521 2.47656C29.0466 3.22552 28.4959 6.40237 29.5466 7.45317C30.5972 8.50379 33.774 7.95311 34.5232 9.24768C35.2616 10.5238 33.2042 12.9966 33.5938 14.4543C33.9704 15.8632 36.9997 16.9722 36.9997 18.4999H36.9999Z" fill="#6C2CF2"/>
<path d="M15.6419 24.9788L11.5004 20.8374C11.1275 20.4645 11.1275 19.8601 11.5004 19.4872L12.6718 18.3157C13.0447 17.9428 13.6491 17.9428 14.022 18.3157L16.3106 20.6045L24.2446 12.6166C24.6162 12.2424 25.2208 12.2406 25.5948 12.6121L26.77 13.7795C27.1442 14.151 27.1461 14.7557 26.7745 15.1297L16.9944 24.9765C16.6219 25.3515 16.0156 25.3526 15.6419 24.9788Z" fill="#EDEDED"/>
</svg>
