<svg width="20" height="20" viewBox="0 0 20 20" fill="none" xmlns="http://www.w3.org/2000/svg">
<path opacity="0.4" d="M16 20.0024L4 20.0024C1.79086 20.0024 1.56562e-07 18.2116 3.49691e-07 16.0024L1.39876e-06 4.00244C1.59189e-06 1.7933 1.79086 0.00243981 4 0.00244001L16 0.00244106C18.2091 0.00244125 20 1.7933 20 4.00244L20 16.0024C20 18.2116 18.2091 20.0024 16 20.0024Z" fill="#E57E7E"/>
<path fill-rule="evenodd" clip-rule="evenodd" d="M10.5303 14.5328C10.2374 14.8257 9.76256 14.8257 9.46967 14.5328L6.46967 11.5328C6.17678 11.2399 6.17678 10.765 6.46967 10.4721C6.76256 10.1792 7.23744 10.1792 7.53033 10.4721L9.25 12.1918L9.25 6.00244C9.25 5.58823 9.58579 5.25244 10 5.25244C10.4142 5.25244 10.75 5.58823 10.75 6.00244L10.75 12.1918L12.4697 10.4721C12.7626 10.1792 13.2374 10.1792 13.5303 10.4721C13.8232 10.765 13.8232 11.2399 13.5303 11.5328L10.5303 14.5328Z" fill="#E57E7E"/>
</svg>
