<svg width="14" height="14" viewBox="0 0 14 14" fill="none" xmlns="http://www.w3.org/2000/svg">
<path opacity="0.4" fill-rule="evenodd" clip-rule="evenodd" d="M11.0257 2.81996C11.1492 3.06695 11.0491 3.36729 10.8021 3.49078L3.78395 6.99984L10.8021 10.5089C11.0491 10.6324 11.1492 10.9327 11.0257 11.1797C10.9022 11.4267 10.6018 11.5268 10.3549 11.4033L3.19642 7.82411C2.94944 7.70062 2.84932 7.40028 2.97282 7.15329C3.00295 7.09303 3.04361 7.0415 3.09146 6.99984C3.04361 6.95818 3.00295 6.90665 2.97282 6.84639C2.84932 6.5994 2.94944 6.29906 3.19642 6.17557L10.3549 2.59635C10.6018 2.47286 10.9022 2.57297 11.0257 2.81996Z" fill="white"/>
<path d="M13.6663 2.66659C13.6663 3.95525 12.6217 4.99992 11.333 4.99992C10.4195 4.99992 9.62864 4.47498 9.24555 3.71031C9.08822 3.39626 8.99967 3.04176 8.99967 2.66659C8.99967 1.37792 10.0443 0.333252 11.333 0.333252C12.6217 0.333252 13.6663 1.37792 13.6663 2.66659Z" fill="white"/>
<path d="M13.6663 11.3333C13.6663 12.6219 12.6217 13.6666 11.333 13.6666C10.0443 13.6666 8.99967 12.6219 8.99967 11.3333C8.99967 10.9581 9.08822 10.6036 9.24555 10.2895C9.62864 9.52485 10.4195 8.99992 11.333 8.99992C12.6217 8.99992 13.6663 10.0446 13.6663 11.3333Z" fill="white"/>
<path d="M4.99967 6.99992C4.99967 7.37509 4.91113 7.72959 4.75379 8.04365C4.37071 8.80832 3.57983 9.33325 2.66634 9.33325C1.37768 9.33325 0.333008 8.28858 0.333008 6.99992C0.333008 5.71125 1.37768 4.66659 2.66634 4.66659C3.57983 4.66659 4.37071 5.19152 4.75379 5.95619C4.91113 6.27025 4.99967 6.62474 4.99967 6.99992Z" fill="white"/>
</svg>
