<svg width="280" height="280" viewBox="0 0 280 280" fill="none" xmlns="http://www.w3.org/2000/svg">
<path d="M280 214.144H0V214.284H280V214.144Z" fill="#E0E0E0"/>
<path d="M67.7094 220.578H60.3174V220.718H67.7094V220.578Z" fill="#E0E0E0"/>
<path d="M56.2132 220.646H45.002V220.786H56.2132V220.646Z" fill="#E0E0E0"/>
<path d="M122.634 219.705H93.5195V219.845H122.634V219.705Z" fill="#E0E0E0"/>
<path d="M133.84 218.193H118.216V218.333H133.84V218.193Z" fill="#E0E0E0"/>
<path d="M224.241 222.622H187.785V222.762H224.241V222.622Z" fill="#E0E0E0"/>
<path d="M184.677 222.622H175.706V222.762H184.677V222.622Z" fill="#E0E0E0"/>
<path d="M234.456 219.24H218.423V219.38H234.456V219.24Z" fill="#E0E0E0"/>
<path d="M132.72 189.168H24.5895C23.7424 189.167 22.9305 188.829 22.332 188.229C21.7336 187.63 21.3975 186.817 21.3975 185.97V33.9696C21.4048 33.1274 21.7442 32.3221 22.3419 31.7286C22.9395 31.1351 23.7472 30.8014 24.5895 30.8H132.72C133.568 30.8 134.381 31.1369 134.981 31.7365C135.581 32.3362 135.917 33.1495 135.917 33.9976V185.97C135.917 186.818 135.581 187.632 134.981 188.231C134.381 188.831 133.568 189.168 132.72 189.168ZM24.5895 30.912C23.7795 30.9135 23.0032 31.2363 22.431 31.8095C21.8588 32.3828 21.5375 33.1596 21.5375 33.9696V185.97C21.5375 186.78 21.8588 187.557 22.431 188.13C23.0032 188.704 23.7795 189.027 24.5895 189.028H132.72C133.53 189.027 134.307 188.704 134.88 188.131C135.453 187.558 135.776 186.781 135.777 185.97V33.9696C135.776 33.1591 135.453 32.3823 134.88 31.8092C134.307 31.2361 133.53 30.9135 132.72 30.912H24.5895Z" fill="#E0E0E0"/>
<path d="M253.853 189.168H145.717C144.87 189.167 144.057 188.829 143.458 188.23C142.858 187.63 142.521 186.818 142.52 185.97V33.9696C142.528 33.1269 142.869 32.3216 143.468 31.7282C144.066 31.1349 144.874 30.8014 145.717 30.8H253.853C254.694 30.8029 255.501 31.1372 256.097 31.7306C256.694 32.3239 257.032 33.1283 257.04 33.9696V185.97C257.04 186.817 256.704 187.628 256.107 188.227C255.51 188.827 254.699 189.165 253.853 189.168ZM145.717 30.912C144.907 30.9135 144.13 31.2361 143.557 31.8092C142.984 32.3823 142.661 33.1591 142.66 33.9696V185.97C142.661 186.781 142.984 187.558 143.557 188.131C144.13 188.704 144.907 189.027 145.717 189.028H253.853C254.664 189.027 255.44 188.704 256.014 188.131C256.587 187.558 256.909 186.781 256.911 185.97V33.9696C256.909 33.1591 256.587 32.3823 256.014 31.8092C255.44 31.2361 254.664 30.9135 253.853 30.912H145.717Z" fill="#E0E0E0"/>
<path d="M35.2016 214.144H50.6016L50.6016 155.31H35.2016L35.2016 214.144Z" fill="#E0E0E0"/>
<path d="M38.1302 214.144H35.207V205.822H41.199L38.1302 214.144Z" fill="#EBEBEB"/>
<path d="M123.082 214.144H138.482V155.31H123.082V214.144Z" fill="#E0E0E0"/>
<path d="M35.202 209.037H125.631V155.31H35.202V209.037Z" fill="#EBEBEB"/>
<path d="M95.8213 158.032V198.632H122.629V158.032H95.8213Z" fill="#E0E0E0"/>
<path d="M106.573 160.362H111.876C113.016 160.362 114.144 160.13 115.192 159.681C116.239 159.231 117.184 158.573 117.969 157.746H100.48C101.265 158.573 102.21 159.231 103.258 159.681C104.305 160.13 105.433 160.362 106.573 160.362Z" fill="#EBEBEB"/>
<path d="M67.0156 158.032V198.632H93.8228V158.032H67.0156Z" fill="#E0E0E0"/>
<path d="M77.4981 160.362H82.8013C83.9402 160.361 85.0671 160.129 86.1136 159.679C87.16 159.23 88.1041 158.572 88.8885 157.746H71.4053C72.1903 158.573 73.1353 159.231 74.1827 159.681C75.2302 160.13 76.3582 160.362 77.4981 160.362Z" fill="#EBEBEB"/>
<path d="M38.209 158.038V198.638H65.0162V158.038H38.209Z" fill="#E0E0E0"/>
<path d="M48.7204 160.362H54.0236C55.1635 160.362 56.2915 160.13 57.339 159.681C58.3864 159.231 59.3314 158.573 60.1164 157.746H42.5996C43.3878 158.576 44.3374 159.236 45.3899 159.686C46.4425 160.136 47.5758 160.366 48.7204 160.362Z" fill="#EBEBEB"/>
<path d="M122.712 214.144H125.636V205.822H119.644L122.712 214.144Z" fill="#EBEBEB"/>
<path d="M159.242 120.898L244.082 120.898V41.4344L159.242 41.4344V120.898Z" fill="#E0E0E0"/>
<path d="M156.195 120.898L242.659 120.898V41.4344L156.195 41.4344V120.898Z" fill="#EBEBEB"/>
<path d="M159.242 126.554L244.082 126.554V120.893L159.242 120.893V126.554Z" fill="#E0E0E0"/>
<path d="M151.122 126.554L237.586 126.554V120.893L151.122 120.893V126.554Z" fill="#EBEBEB"/>
<path d="M238.397 116.631V45.7016L160.462 45.7016V116.631H238.397Z" fill="#F5F5F5"/>
<path d="M230.233 116.631L205.195 45.7016H193.379L218.417 116.631H230.233Z" fill="#FAFAFA"/>
<path d="M236.421 92.568C236.34 92.568 236.261 92.5356 236.203 92.4778C236.146 92.42 236.113 92.3417 236.113 92.26V48.4736C236.115 48.3929 236.148 48.316 236.205 48.2594C236.263 48.2029 236.341 48.1712 236.421 48.1712C236.501 48.1712 236.578 48.2031 236.635 48.2598C236.692 48.3165 236.724 48.3934 236.724 48.4736V92.26C236.724 92.3407 236.692 92.4182 236.635 92.4758C236.579 92.5334 236.502 92.5665 236.421 92.568Z" fill="#EBEBEB"/>
<path d="M215.874 116.631L190.837 45.7016H186.233L211.265 116.631H215.874Z" fill="#FAFAFA"/>
<path d="M161 116.631V45.7016H160.457V116.631H161Z" fill="#E0E0E0"/>
<path d="M155.188 51.156H240.028L240.42 47.3592H155.58L155.188 51.156Z" fill="#E0E0E0"/>
<path d="M155.188 53.9392H240.028L240.42 50.1368H155.58L155.188 53.9392Z" fill="#E0E0E0"/>
<path d="M155.188 57.2768H240.028L240.42 53.4744H155.58L155.188 57.2768Z" fill="#E0E0E0"/>
<path d="M155.188 60.9896H240.028L240.42 57.1928H155.58L155.188 60.9896Z" fill="#E0E0E0"/>
<path d="M155.188 65.4416H240.028L240.42 61.6392H155.58L155.188 65.4416Z" fill="#E0E0E0"/>
<path d="M155.188 70.4424H240.028L240.42 66.6456H155.58L155.188 70.4424Z" fill="#E0E0E0"/>
<path d="M154.28 214.144H179.391V161.392H154.28V214.144Z" fill="#E0E0E0"/>
<path d="M156.8 214.144H154.28V206.959H159.449L156.8 214.144Z" fill="#EBEBEB"/>
<path d="M216.048 214.144H241.158V161.392H216.048V214.144Z" fill="#E0E0E0"/>
<path d="M154.28 209.737H218.249V161.392H154.28V209.737Z" fill="#EBEBEB"/>
<path d="M156.235 176.792H216.289V163.531H156.235V176.792Z" fill="#E0E0E0"/>
<path d="M183.428 167.653H189.1C191.564 167.653 193.916 166.018 195.613 163.128H176.909C178.606 166.018 180.964 167.653 183.428 167.653Z" fill="#EBEBEB"/>
<path d="M215.723 214.144H218.249V206.959H213.074L215.723 214.144Z" fill="#EBEBEB"/>
<path d="M156.235 192.192H216.289V178.931H156.235V192.192Z" fill="#E0E0E0"/>
<path d="M183.428 183.053H189.1C191.564 183.053 193.916 181.418 195.613 178.528H176.909C178.606 181.44 180.964 183.053 183.428 183.053Z" fill="#EBEBEB"/>
<path d="M156.235 207.592H216.289V194.331H156.235V207.592Z" fill="#E0E0E0"/>
<path d="M183.428 198.453H189.1C191.564 198.453 193.916 196.818 195.613 193.928H176.909C178.606 196.818 180.964 198.453 183.428 198.453Z" fill="#EBEBEB"/>
<path d="M53.1107 117.544H101.864L101.864 52.3376H53.1107L53.1107 117.544Z" fill="#E0E0E0"/>
<path d="M49.7219 117.544H100.962L100.962 52.3376H49.7219L49.7219 117.544Z" fill="#EBEBEB"/>
<path d="M96.6729 113.254V56.6328H54.0176V113.254H96.6729Z" fill="#FAFAFA"/>
<path d="M76.0371 95.76H64.9603C64.8504 95.76 64.745 95.7163 64.6673 95.6386C64.5896 95.5609 64.5459 95.4555 64.5459 95.3456V84.252C64.5548 81.5813 65.6196 79.0226 67.508 77.1341C69.3965 75.2457 71.9552 74.1809 74.6259 74.172H85.6971C85.7515 74.172 85.8054 74.1827 85.8557 74.2035C85.906 74.2244 85.9516 74.2549 85.9901 74.2934C86.0286 74.3319 86.0591 74.3775 86.08 74.4278C86.1008 74.4781 86.1115 74.532 86.1115 74.5864V85.6576C86.1086 88.3312 85.0471 90.8948 83.1592 92.7879C81.2713 94.6811 78.7107 95.7496 76.0371 95.76ZM65.3971 94.9368H76.0371C78.4967 94.9338 80.8546 93.9551 82.5932 92.2154C84.3319 90.4757 85.3092 88.1172 85.3107 85.6576V75.0176H74.6707C72.2116 75.0206 69.8539 75.9984 68.1146 77.7367C66.3752 79.475 65.3959 81.8321 65.3915 84.2912L65.3971 94.9368Z" fill="#EBEBEB"/>
<path d="M119.84 129.175H77.9019L71.8203 153.944H113.759L119.84 129.175Z" fill="#E0E0E0"/>
<path d="M113.759 153.944L113.591 155.31H71.6523L71.8203 153.944H113.759Z" fill="#E0E0E0"/>
<path d="M118.547 129.175H76.6082L70.5322 153.944H112.471L118.547 129.175Z" fill="#F0F0F0"/>
<path d="M111.58 152.813L117.108 130.306H77.4989L71.9717 152.813H111.58Z" fill="#FAFAFA"/>
<path d="M101.54 153.944L101.372 155.31H55.1885L55.3621 153.944H101.54Z" fill="#F0F0F0"/>
<path d="M213.875 157.046H213.209C213.209 155.669 213.209 152.174 213.142 144.166C213.019 129.651 212.789 128.766 212.789 128.766L214.379 135.486C215.393 142.89 214.088 150.343 213.875 157.046Z" fill="#E0E0E0"/>
<path d="M216.844 132.989C220.349 129.522 227.187 129.069 234.176 128.772C236.92 128.654 226.515 133.924 221.296 137.872C217.247 140.935 214.772 141.658 213.428 144.967C213.299 140.672 213.825 135.974 216.844 132.989Z" fill="#E0E0E0"/>
<path d="M212.99 125.44C210.616 120.932 204.641 116.682 197.938 115.069C195.306 114.436 204.036 123.402 207.351 129.181C209.933 133.661 213.349 138.947 213.881 142.738C214.682 135.24 215.365 129.965 212.99 125.44Z" fill="#E0E0E0"/>
<path d="M213.299 161.386C214.423 161.387 215.504 160.957 216.322 160.186C217.139 159.414 217.63 158.359 217.695 157.237L218.081 153.255H208.511L208.903 157.237C208.967 158.359 209.458 159.414 210.276 160.186C211.093 160.957 212.175 161.387 213.299 161.386Z" fill="#EBEBEB"/>
<path d="M207.895 154.79H218.703L219.011 150.354H207.581L207.895 154.79Z" fill="#EBEBEB"/>
<path d="M140 239.434C199.966 239.434 248.579 236.595 248.579 233.094C248.579 229.593 199.966 226.755 140 226.755C80.0341 226.755 31.4219 229.593 31.4219 233.094C31.4219 236.595 80.0341 239.434 140 239.434Z" fill="#F5F5F5"/>
<path d="M80.6956 113.316H53.7988V232.994H80.6956V113.316Z" fill="white"/>
<path d="M121.845 73.7576H94.9482V232.988H121.845V73.7576Z" fill="#2EB268"/>
<path opacity="0.1" d="M121.845 73.7576H94.9482V232.988H121.845V73.7576Z" fill="black"/>
<path d="M162.999 113.316H136.103V232.994H162.999V113.316Z" fill="#2EB268"/>
<path opacity="0.4" d="M162.999 113.316H136.103V232.994H162.999V113.316Z" fill="black"/>
<path d="M71.1536 113.316H44.2568V232.994H71.1536V113.316Z" fill="#E0E0E0"/>
<path d="M112.308 73.7576H85.4111V232.988H112.308V73.7576Z" fill="#2EB268"/>
<path opacity="0.2" d="M112.308 73.7576H85.4111V232.988H112.308V73.7576Z" fill="#FAFAFA"/>
<path d="M153.456 113.316H126.56V232.994H153.456V113.316Z" fill="#2EB268"/>
<path opacity="0.2" d="M153.456 113.316H126.56V232.994H153.456V113.316Z" fill="black"/>
<path d="M254.062 178.08H253.501C253.488 167.757 250.644 157.635 245.281 148.814L245.762 148.523C251.177 157.432 254.047 167.655 254.062 178.08ZM242.167 144.234C240.587 142.144 238.862 140.167 237.004 138.32L237.402 137.928C239.28 139.799 241.022 141.801 242.615 143.92L242.167 144.234Z" fill="#2EB268"/>
<path opacity="0.3" d="M254.062 178.08H253.501C253.488 167.757 250.644 157.635 245.281 148.814L245.762 148.523C251.177 157.432 254.047 167.655 254.062 178.08ZM242.167 144.234C240.587 142.144 238.862 140.167 237.004 138.32L237.402 137.928C239.28 139.799 241.022 141.801 242.615 143.92L242.167 144.234Z" fill="black"/>
<path d="M236.018 139.283C225.722 128.991 211.762 123.207 197.204 123.2H189.28V123.788C182.409 124.791 175.791 127.086 169.775 130.553C143.69 145.6 134.613 179.452 149.66 205.52C153.804 212.703 159.522 218.853 166.384 223.508C173.246 228.164 181.074 231.204 189.28 232.4V232.96H197.215C208.074 232.965 218.69 229.749 227.72 223.718C236.75 217.688 243.789 209.114 247.944 199.082C252.1 189.049 253.185 178.01 251.064 167.36C248.943 156.711 243.711 146.93 236.029 139.255L236.018 139.283ZM197.204 218.669C189.179 218.67 181.333 216.291 174.66 211.834C167.986 207.376 162.785 201.04 159.712 193.626C156.64 186.212 155.835 178.054 157.399 170.182C158.963 162.311 162.826 155.08 168.5 149.404C174.173 143.729 181.402 139.862 189.273 138.295C197.144 136.728 205.303 137.529 212.718 140.599C220.133 143.668 226.471 148.867 230.932 155.539C235.392 162.21 237.774 170.055 237.776 178.08C237.79 183.413 236.75 188.696 234.716 193.625C232.683 198.555 229.695 203.034 225.925 206.806C222.155 210.578 217.677 213.567 212.748 215.603C207.819 217.639 202.537 218.681 197.204 218.669Z" fill="#2EB268"/>
<path opacity="0.3" d="M236.018 139.283C225.722 128.991 211.762 123.207 197.204 123.2H189.28V123.788C182.409 124.791 175.791 127.086 169.775 130.553C143.69 145.6 134.613 179.452 149.66 205.52C153.804 212.703 159.522 218.853 166.384 223.508C173.246 228.164 181.074 231.204 189.28 232.4V232.96H197.215C208.074 232.965 218.69 229.749 227.72 223.718C236.75 217.688 243.789 209.114 247.944 199.082C252.1 189.049 253.185 178.01 251.064 167.36C248.943 156.711 243.711 146.93 236.029 139.255L236.018 139.283ZM197.204 218.669C189.179 218.67 181.333 216.291 174.66 211.834C167.986 207.376 162.785 201.04 159.712 193.626C156.64 186.212 155.835 178.054 157.399 170.182C158.963 162.311 162.826 155.08 168.5 149.404C174.173 143.729 181.402 139.862 189.273 138.295C197.144 136.728 205.303 137.529 212.718 140.599C220.133 143.668 226.471 148.867 230.932 155.539C235.392 162.21 237.774 170.055 237.776 178.08C237.79 183.413 236.75 188.696 234.716 193.625C232.683 198.555 229.695 203.034 225.925 206.806C222.155 210.578 217.677 213.567 212.748 215.603C207.819 217.639 202.537 218.681 197.204 218.669Z" fill="black"/>
<path d="M229.841 178.08H244.16C244.17 190.17 240.189 201.925 232.833 211.519C225.477 221.114 215.158 228.011 203.48 231.139C191.802 234.267 179.418 233.452 168.251 228.819C157.084 224.187 147.759 215.996 141.725 205.52L154.134 198.358C158.597 206.095 165.489 212.143 173.74 215.564C181.992 218.984 191.142 219.585 199.77 217.274C208.398 214.963 216.022 209.869 221.459 202.782C226.896 195.695 229.843 187.012 229.841 178.08Z" fill="#2EB268"/>
<path opacity="0.2" d="M229.841 178.08H244.16C244.17 190.17 240.189 201.925 232.833 211.519C225.477 221.114 215.158 228.011 203.48 231.139C191.802 234.267 179.418 233.452 168.251 228.819C157.084 224.187 147.759 215.996 141.725 205.52L154.134 198.358C158.597 206.095 165.489 212.143 173.74 215.564C181.992 218.984 191.142 219.585 199.77 217.274C208.398 214.963 216.022 209.869 221.459 202.782C226.896 195.695 229.843 187.012 229.841 178.08Z" fill="#FAFAFA"/>
<path d="M189.28 123.2C203.833 123.209 217.786 128.994 228.076 139.284C238.367 149.574 244.151 163.528 244.16 178.08H229.841C229.835 167.324 225.56 157.011 217.955 149.406C210.349 141.8 200.036 137.525 189.28 137.519V123.2Z" fill="#2EB268"/>
<path d="M189.28 123.2V137.519C182.158 137.517 175.162 139.39 168.993 142.95C162.825 146.51 157.703 151.631 154.142 157.798C150.581 163.966 148.706 170.962 148.707 178.084C148.708 185.206 150.583 192.202 154.146 198.369L141.725 205.52C126.678 179.441 135.75 145.6 161.829 130.542C170.178 125.73 179.645 123.199 189.28 123.2Z" fill="#2EB268"/>
<path opacity="0.8" d="M189.28 123.2V137.519C182.158 137.517 175.162 139.39 168.993 142.95C162.825 146.51 157.703 151.631 154.142 157.798C150.581 163.966 148.706 170.962 148.707 178.084C148.708 185.206 150.583 192.202 154.146 198.369L141.725 205.52C126.678 179.441 135.75 145.6 161.829 130.542C170.178 125.73 179.645 123.199 189.28 123.2Z" fill="#FAFAFA"/>
<path d="M175.824 161.521L171.422 164.097L164.786 154.302L169.188 151.726L175.824 161.521Z" fill="#E4897B"/>
<path d="M168.974 161.314L173.802 158.239C173.884 158.184 173.983 158.161 174.082 158.174C174.18 158.188 174.269 158.237 174.334 158.312L177.318 161.784C177.39 161.874 177.441 161.978 177.47 162.09C177.499 162.201 177.504 162.317 177.485 162.431C177.466 162.544 177.423 162.652 177.36 162.748C177.296 162.844 177.214 162.926 177.117 162.988C175.437 164.03 174.541 164.45 172.418 165.788C171.108 166.617 168.498 168.476 166.69 169.63C164.881 170.783 163.654 169.07 164.304 168.414C167.21 165.542 167.899 163.699 168.426 162.019C168.523 161.728 168.716 161.479 168.974 161.314Z" fill="#263238"/>
<path d="M166.763 163.47H166.634C166.531 163.452 166.434 163.409 166.351 163.346C166.269 163.282 166.202 163.2 166.158 163.106C166.127 163.053 166.111 162.993 166.111 162.932C166.111 162.871 166.127 162.811 166.158 162.758C166.494 162.148 168.745 161.935 169.003 161.913C169.02 161.91 169.038 161.914 169.053 161.923C169.069 161.932 169.08 161.947 169.087 161.963C169.097 161.977 169.103 161.994 169.103 162.011C169.103 162.028 169.097 162.045 169.087 162.058C168.504 162.596 167.479 163.47 166.763 163.47ZM168.767 162.103C167.983 162.193 166.527 162.434 166.309 162.837C166.292 162.865 166.283 162.897 166.283 162.929C166.283 162.962 166.292 162.994 166.309 163.022C166.34 163.093 166.389 163.154 166.451 163.201C166.513 163.248 166.585 163.279 166.662 163.29C167.093 163.363 167.871 162.921 168.767 162.103Z" fill="#2EB268"/>
<path d="M168.722 162.098C167.978 162.098 166.762 161.829 166.566 161.375C166.516 161.258 166.505 161.078 166.751 160.888C166.841 160.814 166.945 160.76 167.057 160.729C167.169 160.699 167.286 160.692 167.401 160.709C168.213 160.815 169.042 161.896 169.081 161.941C169.089 161.953 169.093 161.968 169.093 161.983C169.093 161.998 169.089 162.012 169.081 162.025C169.076 162.038 169.068 162.05 169.057 162.059C169.047 162.068 169.033 162.074 169.019 162.075C168.921 162.091 168.822 162.099 168.722 162.098ZM167.278 160.871C167.124 160.871 166.976 160.924 166.858 161.022C166.662 161.174 166.706 161.274 166.723 161.308C166.874 161.661 168.106 161.969 168.846 161.924C168.477 161.431 167.965 161.065 167.378 160.877L167.278 160.871Z" fill="#2EB268"/>
<path d="M187.942 85.4C187.858 85.8424 187.791 86.156 187.707 86.52L187.444 87.556C187.259 88.2448 187.063 88.9168 186.884 89.5888C186.458 90.9272 185.988 92.2376 185.489 93.5088C184.991 94.78 184.442 96.0848 183.876 97.3448C183.596 97.9776 183.316 98.5992 182.992 99.2208L182.762 99.6912L182.633 99.9488C182.572 100.078 182.504 100.206 182.432 100.33C182.16 100.791 181.831 101.217 181.452 101.595C180.794 102.236 180.037 102.767 179.212 103.169C178.491 103.522 177.741 103.814 176.972 104.042C175.561 104.452 174.115 104.733 172.654 104.882C169.861 105.173 167.046 105.173 164.254 104.882L164.299 102.25C165.576 102.11 166.908 101.965 168.219 101.746C169.529 101.528 170.789 101.31 172.032 101.018C173.236 100.74 174.416 100.365 175.56 99.8984C176.498 99.5727 177.349 99.0363 178.047 98.3304C178.137 98.2248 178.211 98.1058 178.265 97.9776L178.551 97.244C178.797 96.6336 179.027 96.0176 179.256 95.4016C179.727 94.1752 180.152 92.932 180.584 91.7C181.015 90.468 181.407 89.2192 181.765 87.976C181.955 87.3544 182.135 86.7384 182.325 86.1224L182.566 85.1984L182.773 84.3472L187.942 85.4Z" fill="#E4897B"/>
<path d="M184.386 78.8536C182.286 79.4136 180.813 88.032 180.813 88.032L186.604 91.952C186.604 91.952 192.153 83.2328 190.524 80.9256C188.855 78.5344 187.449 78.0752 184.386 78.8536Z" fill="#2EB268"/>
<path opacity="0.6" d="M184.386 78.8536C182.286 79.4136 180.813 88.032 180.813 88.032L186.604 91.952C186.604 91.952 192.153 83.2328 190.524 80.9256C188.855 78.5344 187.449 78.0752 184.386 78.8536Z" fill="#FAFAFA"/>
<path d="M184.195 81.9952L188.675 83.0368L189.107 87.4328C188.344 88.9866 187.503 90.5006 186.587 91.9688L183.12 89.6C183.243 87.5616 183.624 83.3616 184.195 81.9952Z" fill="#2EB268"/>
<path opacity="0.3" d="M184.195 81.9952L188.675 83.0368L189.107 87.4328C188.344 88.9866 187.503 90.5006 186.587 91.9688L183.12 89.6C183.243 87.5616 183.624 83.3616 184.195 81.9952Z" fill="#FAFAFA"/>
<path d="M165.038 102.245L161.426 98.56L160.95 103.723C160.95 103.723 163.661 105.554 165.537 104.569L165.038 102.245Z" fill="#E4897B"/>
<path d="M157.176 98.0336L157.008 102.379L160.95 103.746L161.421 98.5824L157.176 98.0336Z" fill="#E4897B"/>
<path d="M156.067 162.915L152.449 159.326L159.589 149.789L163.207 153.373L156.067 162.915Z" fill="#E4897B"/>
<path d="M154.476 156.8L159.695 159.163C159.786 159.201 159.86 159.271 159.901 159.36C159.943 159.449 159.949 159.551 159.919 159.645L158.648 164.041C158.612 164.15 158.553 164.251 158.476 164.337C158.398 164.422 158.304 164.49 158.198 164.537C158.092 164.583 157.978 164.607 157.863 164.606C157.747 164.606 157.633 164.581 157.528 164.534C155.725 163.677 154.896 163.173 152.6 162.137C151.189 161.498 147.504 160.003 145.555 159.124C143.607 158.245 144.374 156.268 145.264 156.458C149.263 157.326 151.883 157.209 153.575 156.733C153.874 156.65 154.193 156.674 154.476 156.8Z" fill="#263238"/>
<path d="M164.791 154.302L168.213 159.354L172.614 156.778L169.193 151.732L164.791 154.302Z" fill="#CE6F64"/>
<path d="M163.207 153.373L159.584 149.789L155.904 154.706L159.527 158.295L163.207 153.373Z" fill="#CE6F64"/>
<path d="M207.52 109.62H186.8C181.933 79.7104 184.364 78.8592 184.364 78.8592C184.364 78.8592 187.696 78.176 191.185 77.7392C191.784 77.6664 192.383 77.5992 192.977 77.5432C196.107 77.3189 199.249 77.3189 202.379 77.5432C202.973 77.5712 203.566 77.616 204.149 77.6664C206.505 77.8799 208.848 78.2257 211.165 78.7024C207.161 96.0008 207.201 101.192 207.52 109.62Z" fill="#2EB268"/>
<path opacity="0.6" d="M207.52 109.62H186.8C181.933 79.7104 184.364 78.8592 184.364 78.8592C184.364 78.8592 187.696 78.176 191.185 77.7392C191.784 77.6664 192.383 77.5992 192.977 77.5432C196.107 77.3189 199.249 77.3189 202.379 77.5432C202.973 77.5712 203.566 77.616 204.149 77.6664C206.505 77.8799 208.848 78.2257 211.165 78.7024C207.161 96.0008 207.201 101.192 207.52 109.62Z" fill="#FAFAFA"/>
<path d="M204.171 77.672L203.947 78.1984C203.829 78.4896 200.945 85.2656 195.356 89.7904L193.99 90.9104L192.943 89.4936C189.801 85.2376 190.742 79.7048 191.207 77.7616C191.806 77.6888 192.405 77.6216 192.999 77.5656C196.129 77.3413 199.271 77.3413 202.401 77.5656C202.995 77.5768 203.588 77.6216 204.171 77.672Z" fill="#2EB268"/>
<path opacity="0.1" d="M204.171 77.672L203.947 78.1984C203.829 78.4896 200.945 85.2656 195.356 89.7904L193.99 90.9104L192.943 89.4936C189.801 85.2376 190.742 79.7048 191.207 77.7616C191.806 77.6888 192.405 77.6216 192.999 77.5656C196.129 77.3413 199.271 77.3413 202.401 77.5656C202.995 77.5768 203.588 77.6216 204.171 77.672Z" fill="#FAFAFA"/>
<path d="M191.985 51.7664C187.46 49.7448 184.738 57.4336 185.046 62.8768C185.354 68.32 186.166 74.9952 183.781 73.8752C181.395 72.7552 183.086 71.0752 183.086 71.0752C183.086 71.0752 179.726 73.7352 183.54 75.1968C187.353 76.6584 194.135 76.5184 198.1 74.6368C200.368 71.2152 199.393 58.4248 199.393 58.4248L191.985 51.7664Z" fill="#263238"/>
<path d="M201.466 66.9648C200.878 69.9888 200.284 75.5328 202.401 77.5488C202.401 77.5488 199.601 84.1736 194.298 88.48C190.971 83.972 192.998 77.5488 192.998 77.5488C196.358 76.7424 196.286 74.2392 195.698 71.8928L201.466 66.9648Z" fill="#E4897B"/>
<path d="M199.114 68.9752L195.698 71.8872C195.846 72.4371 195.944 72.9995 195.989 73.5672C197.277 73.3824 199.047 71.9656 199.187 70.616C199.264 70.0693 199.239 69.513 199.114 68.9752Z" fill="#CE6F64"/>
<path d="M201.824 58.996C202.384 64.036 202.759 66.136 200.704 69.132C197.613 73.6456 191.313 73.2648 189.241 68.516C187.376 64.2432 186.732 56.756 191.245 53.8944C192.237 53.2604 193.375 52.8907 194.55 52.8205C195.725 52.7502 196.898 52.9818 197.958 53.4931C199.019 54.0044 199.93 54.7785 200.607 55.7417C201.284 56.7049 201.702 57.8252 201.824 58.996Z" fill="#E4897B"/>
<path d="M191.806 55.5352C193.615 57.6576 199.086 63.8344 202.905 63.0336C206.825 62.2104 206.96 54.9136 202.234 51.8952C197.507 48.8768 186.951 49.84 191.806 55.5352Z" fill="#263238"/>
<path d="M203.135 46.676C199.534 45.4832 199.215 49 199.495 51.1896L203.919 54.4432C205.332 54.2201 206.701 53.7721 207.973 53.116C209.709 52.1248 206.735 47.8688 203.135 46.676Z" fill="#263238"/>
<path d="M203.947 63.3136C203.843 64.2825 203.377 65.1765 202.642 65.8168C201.656 66.6512 200.676 65.912 200.536 64.6968C200.413 63.6104 200.777 61.8968 201.964 61.4992C203.152 61.1016 204.059 62.1264 203.947 63.3136Z" fill="#E4897B"/>
<path d="M166.606 131.6C166.455 136.147 167.844 141.68 169.367 146.294C169.692 147.28 170.022 148.226 170.347 149.094C171.736 152.88 172.979 155.518 172.979 155.518L166.88 158.99C166.88 158.99 166.052 157.948 164.831 156.117C164.271 155.31 163.677 154.342 163.022 153.244C159.606 147.532 155.137 138.197 154.924 128.262C154.588 112.717 186.811 109.62 186.811 109.62H202.048L197.781 121.744C197.781 121.744 166.88 123.329 166.606 131.6Z" fill="#2EB268"/>
<path opacity="0.6" d="M166.606 131.6C166.455 136.147 167.844 141.68 169.367 146.294C169.692 147.28 170.022 148.226 170.347 149.094C171.736 152.88 172.979 155.518 172.979 155.518L166.88 158.99C166.88 158.99 166.052 157.948 164.831 156.117C164.271 155.31 163.677 154.342 163.022 153.244C159.606 147.532 155.137 138.197 154.924 128.262C154.588 112.717 186.811 109.62 186.811 109.62H202.048L197.781 121.744C197.781 121.744 166.88 123.329 166.606 131.6Z" fill="black"/>
<path d="M170.347 149.122C169.552 150.444 167.401 153.81 164.842 156.117C164.282 155.31 163.688 154.342 163.033 153.244L169.367 146.311C169.68 147.28 170.022 148.243 170.347 149.122Z" fill="#263238"/>
<path d="M175.594 118.72L174.945 125.328C170.465 126.739 166.97 128.688 166.629 131.298C165.867 125.44 169.944 122.002 175.594 118.72Z" fill="#263238"/>
<path d="M192.288 109.614C192.288 109.614 173.214 117.398 170.308 126C166.601 136.976 156.521 152.488 156.521 152.488L160.754 157.998C160.754 157.998 172.391 146.72 180.321 133.806C190.255 117.566 214.189 134.719 207.548 109.614H192.288Z" fill="#2EB268"/>
<path opacity="0.6" d="M192.288 109.614C192.288 109.614 173.214 117.398 170.308 126C166.601 136.976 156.521 152.488 156.521 152.488L160.754 157.998C160.754 157.998 172.391 146.72 180.321 133.806C190.255 117.566 214.189 134.719 207.548 109.614H192.288Z" fill="black"/>
<path d="M194.533 61.7344C194.606 62.1376 194.449 62.5072 194.186 62.552C193.923 62.5968 193.626 62.3112 193.576 61.9024C193.525 61.4936 193.66 61.1352 193.923 61.0848C194.186 61.0344 194.461 61.3312 194.533 61.7344Z" fill="#263238"/>
<path d="M189.958 62.552C190.031 62.9552 189.874 63.3248 189.611 63.3696C189.348 63.4144 189.051 63.1288 189.001 62.7256C188.95 62.3224 189.085 61.9528 189.348 61.9024C189.611 61.852 189.885 62.16 189.958 62.552Z" fill="#263238"/>
<path d="M189.471 61.908L188.446 61.8016C188.446 61.8016 189.085 62.468 189.471 61.908Z" fill="#263238"/>
<path d="M191.291 63.0336C191.095 64.0204 190.766 64.9757 190.311 65.8728C190.545 65.9815 190.8 66.0379 191.058 66.0379C191.316 66.0379 191.572 65.9815 191.806 65.8728L191.291 63.0336Z" fill="#DE5753"/>
<path d="M194.136 66.9368C194.12 66.936 194.105 66.9309 194.092 66.922C194.079 66.9131 194.069 66.9007 194.063 66.8864C194.055 66.8671 194.056 66.8457 194.064 66.8268C194.073 66.8079 194.088 66.7931 194.107 66.7856C194.874 66.4136 195.473 65.7684 195.787 64.9768C195.791 64.9675 195.796 64.9589 195.802 64.9515C195.809 64.9442 195.817 64.9382 195.826 64.9341C195.834 64.9299 195.844 64.9275 195.854 64.9272C195.864 64.9268 195.874 64.9285 195.883 64.932C195.902 64.9396 195.918 64.9541 195.927 64.9727C195.937 64.9913 195.939 65.0127 195.933 65.0328C195.6 65.8695 194.962 66.5483 194.147 66.9312L194.136 66.9368Z" fill="#263238"/>
<path d="M195.043 59.92C195.004 59.9206 194.966 59.9066 194.937 59.8808C194.708 59.6648 194.432 59.5053 194.13 59.4149C193.829 59.3245 193.51 59.3057 193.201 59.36C193.181 59.3659 193.161 59.3679 193.14 59.3657C193.12 59.3635 193.1 59.3573 193.083 59.3473C193.065 59.3374 193.049 59.324 193.037 59.3079C193.024 59.2917 193.015 59.2733 193.01 59.2536C193 59.2142 193.005 59.1724 193.025 59.1368C193.045 59.1013 193.078 59.0749 193.117 59.0632C193.477 58.9868 193.851 58.9979 194.206 59.0953C194.562 59.1927 194.889 59.3737 195.161 59.6232C195.189 59.6524 195.205 59.6916 195.205 59.7324C195.205 59.7731 195.189 59.8123 195.161 59.8416C195.149 59.8632 195.132 59.8817 195.111 59.8953C195.091 59.909 195.067 59.9175 195.043 59.92Z" fill="#263238"/>
<path d="M187.46 60.732H187.404C187.366 60.7148 187.336 60.6837 187.32 60.6451C187.305 60.6066 187.305 60.5635 187.32 60.5248C187.459 60.1831 187.678 59.8798 187.959 59.6402C188.24 59.4005 188.573 59.2315 188.933 59.1472C188.973 59.1405 189.014 59.15 189.047 59.1736C189.08 59.1973 189.102 59.2331 189.109 59.2732C189.116 59.3133 189.106 59.3544 189.083 59.3875C189.059 59.4205 189.023 59.4429 188.983 59.4496C188.675 59.5268 188.39 59.6756 188.151 59.8839C187.911 60.0921 187.725 60.3539 187.605 60.648C187.592 60.6743 187.571 60.6962 187.545 60.7111C187.519 60.726 187.49 60.7332 187.46 60.732Z" fill="#263238"/>
<path d="M153.843 157.22C153.183 157.091 152.04 156.789 151.788 156.206C151.747 156.102 151.733 155.99 151.748 155.879C151.763 155.768 151.805 155.663 151.872 155.574C151.904 155.515 151.95 155.465 152.007 155.431C152.065 155.396 152.13 155.378 152.197 155.378C152.83 155.378 153.821 156.912 153.927 157.091C153.937 157.104 153.941 157.12 153.941 157.136C153.941 157.152 153.937 157.168 153.927 157.181C153.918 157.194 153.905 157.204 153.89 157.211C153.876 157.218 153.86 157.221 153.843 157.22ZM152.163 155.54C152.125 155.54 152.088 155.551 152.056 155.571C152.023 155.59 151.997 155.619 151.979 155.652C151.929 155.719 151.896 155.798 151.885 155.881C151.873 155.965 151.882 156.049 151.911 156.128C152.063 156.47 152.701 156.789 153.642 156.996C153.283 156.475 152.572 155.54 152.163 155.54Z" fill="#2EB268"/>
<path d="M153.843 157.22C153.83 157.22 153.818 157.216 153.806 157.211C153.794 157.205 153.784 157.197 153.776 157.186C153.412 156.688 153.087 155.355 153.401 154.913C153.453 154.841 153.528 154.789 153.614 154.766C153.7 154.744 153.791 154.752 153.871 154.79C153.956 154.812 154.034 154.855 154.099 154.913C154.164 154.971 154.215 155.044 154.246 155.126C154.543 155.786 153.95 157.114 153.922 157.17C153.915 157.183 153.906 157.194 153.894 157.203C153.883 157.212 153.869 157.218 153.854 157.22H153.843ZM153.698 154.93C153.666 154.928 153.634 154.935 153.605 154.95C153.577 154.965 153.553 154.987 153.535 155.014C153.3 155.344 153.535 156.43 153.832 156.951C153.972 156.587 154.302 155.669 154.09 155.198C154.066 155.139 154.029 155.086 153.981 155.043C153.934 155 153.877 154.969 153.815 154.952C153.778 154.937 153.738 154.93 153.698 154.93Z" fill="#2EB268"/>
<path d="M194.046 61.0904L193.021 60.984C193.021 60.984 193.66 61.6504 194.046 61.0904Z" fill="#263238"/>
<path d="M207.833 108.405L207.995 110.253C208.068 110.398 207.9 110.544 207.659 110.544H186.715C186.531 110.544 186.374 110.454 186.363 110.337L186.178 108.483C186.178 108.354 186.329 108.248 186.531 108.248H207.491C207.557 108.242 207.623 108.254 207.683 108.281C207.743 108.309 207.794 108.351 207.833 108.405Z" fill="#2EB268"/>
<path opacity="0.2" d="M207.833 108.405L207.995 110.253C208.068 110.398 207.9 110.544 207.659 110.544H186.715C186.531 110.544 186.374 110.454 186.363 110.337L186.178 108.483C186.178 108.354 186.329 108.248 186.531 108.248H207.491C207.557 108.242 207.623 108.254 207.683 108.281C207.743 108.309 207.794 108.351 207.833 108.405Z" fill="#FAFAFA"/>
<path d="M205.016 110.746H205.576C205.688 110.746 205.772 110.69 205.766 110.617L205.503 108.209C205.503 108.142 205.397 108.08 205.285 108.08H204.725C204.613 108.08 204.529 108.142 204.534 108.209L204.798 110.617C204.803 110.69 204.904 110.746 205.016 110.746Z" fill="#2EB268"/>
<path opacity="0.6" d="M205.016 110.746H205.576C205.688 110.746 205.772 110.69 205.766 110.617L205.503 108.209C205.503 108.142 205.397 108.08 205.285 108.08H204.725C204.613 108.08 204.529 108.142 204.534 108.209L204.798 110.617C204.803 110.69 204.904 110.746 205.016 110.746Z" fill="black"/>
<path d="M188.294 110.746H188.854C188.966 110.746 189.056 110.69 189.045 110.617L188.782 108.209C188.782 108.142 188.675 108.08 188.563 108.08H188.003C187.891 108.08 187.807 108.142 187.813 108.209L188.076 110.617C188.087 110.69 188.16 110.746 188.294 110.746Z" fill="#2EB268"/>
<path opacity="0.6" d="M188.294 110.746H188.854C188.966 110.746 189.056 110.69 189.045 110.617L188.782 108.209C188.782 108.142 188.675 108.08 188.563 108.08H188.003C187.891 108.08 187.807 108.142 187.813 108.209L188.076 110.617C188.087 110.69 188.16 110.746 188.294 110.746Z" fill="black"/>
<path d="M196.656 110.746H197.216C197.328 110.746 197.412 110.69 197.406 110.617L197.143 108.209C197.143 108.142 197.036 108.08 196.924 108.08H196.364C196.252 108.08 196.168 108.142 196.174 108.209L196.437 110.617C196.448 110.69 196.561 110.746 196.656 110.746Z" fill="#2EB268"/>
<path opacity="0.6" d="M196.656 110.746H197.216C197.328 110.746 197.412 110.69 197.406 110.617L197.143 108.209C197.143 108.142 197.036 108.08 196.924 108.08H196.364C196.252 108.08 196.168 108.142 196.174 108.209L196.437 110.617C196.448 110.69 196.561 110.746 196.656 110.746Z" fill="black"/>
<path d="M206.321 86.7328L208.992 89.0064C208.432 92.0304 208.04 94.5504 207.794 96.7904C207.295 94.5448 206.024 88.48 206.321 86.7328Z" fill="#2EB268"/>
<path opacity="0.3" d="M206.321 86.7328L208.992 89.0064C208.432 92.0304 208.04 94.5504 207.794 96.7904C207.295 94.5448 206.024 88.48 206.321 86.7328Z" fill="#FAFAFA"/>
<path d="M149.728 95.312H186.06L191.324 116.76H154.997L149.728 95.312Z" fill="#FAFAFA"/>
<path d="M168.135 112.767L190.356 117.947L204.613 113.954L204.468 112.767H168.135Z" fill="#FAFAFA"/>
<path d="M148.613 95.312H184.94L190.204 116.76H153.877L148.613 95.312Z" fill="#2EB268"/>
<path opacity="0.2" d="M148.613 95.312H184.94L190.204 116.76H153.877L148.613 95.312Z" fill="#FAFAFA"/>
<path d="M153.877 116.76L154.023 117.947H190.355L190.204 116.76H153.877Z" fill="#2EB268"/>
<path opacity="0.2" d="M153.877 116.76L154.023 117.947H190.355L190.204 116.76H153.877Z" fill="#FAFAFA"/>
<path d="M213.142 84.3976C214.171 87.4056 215.042 90.4656 215.751 93.5648C216.121 95.1216 216.429 96.6952 216.664 98.3304C216.782 99.148 216.877 99.9824 216.927 100.856C216.927 101.293 216.961 101.741 216.927 102.211V102.575V102.771L216.899 103.04C216.858 103.388 216.783 103.731 216.675 104.065C216.294 105.16 215.643 106.142 214.783 106.921C214.096 107.557 213.345 108.12 212.543 108.601C211.099 109.458 209.578 110.18 208.001 110.757C206.472 111.317 204.932 111.793 203.392 112.213C201.852 112.633 200.312 112.958 198.705 113.215L198.072 110.656C199.478 110.141 200.928 109.598 202.317 108.976C203.706 108.354 205.117 107.783 206.416 107.106C207.7 106.473 208.931 105.737 210.095 104.905C210.603 104.541 211.072 104.127 211.495 103.667C211.779 103.381 211.99 103.032 212.111 102.648C212.114 102.174 212.083 101.7 212.016 101.231C211.932 100.554 211.809 99.848 211.675 99.1312C211.389 97.7032 211.019 96.2472 210.65 94.7856C210.28 93.324 209.838 91.8624 209.401 90.4064C208.964 88.9504 208.516 87.472 208.079 86.0496L213.142 84.3976Z" fill="#E4897B"/>
<path d="M211.187 78.708C213.265 79.3352 216.44 87.4776 216.44 87.4776L208.393 93.2288C208.393 93.2288 204.775 86.268 205.643 83.5912C206.55 80.7968 208.824 77.9856 211.187 78.708Z" fill="#2EB268"/>
<path opacity="0.6" d="M211.187 78.708C213.265 79.3352 216.44 87.4776 216.44 87.4776L208.393 93.2288C208.393 93.2288 204.775 86.268 205.643 83.5912C206.55 80.7968 208.824 77.9856 211.187 78.708Z" fill="#FAFAFA"/>
<path d="M199.131 110.841L194.32 109.614L196.622 114.262C196.622 114.262 199.892 114.402 200.973 112.582L199.131 110.841Z" fill="#E4897B"/>
<path d="M190.395 111.384L192.528 115.164L196.599 114.262L194.298 109.62L190.395 111.384Z" fill="#E4897B"/>
<circle cx="63.5" cy="106.5" r="20.5" fill="#207D49"/>
<path d="M56.417 108.083L60.2373 111.14C61.1335 111.857 62.4334 111.75 63.2013 110.897L71.5837 101.583" stroke="white" stroke-width="1.5" stroke-linecap="round" stroke-linejoin="round"/>
</svg>
