<svg width="258" height="258" viewBox="0 0 258 258" fill="none" xmlns="http://www.w3.org/2000/svg">
<path d="M258 197.318H0V197.447H258V197.318Z" fill="#EBEBEB"/>
<path d="M232.149 205.621H215.059V205.75H232.149V205.621Z" fill="#EBEBEB"/>
<path d="M170.91 207.024H166.426V207.153H170.91V207.024Z" fill="#EBEBEB"/>
<path d="M214.543 200.832H204.641V200.961H214.543V200.832Z" fill="#EBEBEB"/>
<path d="M49.3554 201.699H27.0693V201.828H49.3554V201.699Z" fill="#EBEBEB"/>
<path d="M57.2194 201.699H53.9531V201.828H57.2194V201.699Z" fill="#EBEBEB"/>
<path d="M116.178 203.877H67.8389V204.006H116.178V203.877Z" fill="#EBEBEB"/>
<path d="M122.292 174.305H22.658C21.8775 174.303 21.1294 173.992 20.5779 173.44C20.0265 172.888 19.7168 172.139 19.7168 171.358V31.3006C19.7236 30.5245 20.0363 29.7825 20.587 29.2356C21.1377 28.6888 21.8819 28.3813 22.658 28.38H122.292C123.074 28.38 123.823 28.6904 124.376 29.243C124.928 29.7955 125.239 30.5449 125.239 31.3264V171.358C125.239 172.14 124.928 172.889 124.376 173.442C123.823 173.994 123.074 174.305 122.292 174.305ZM22.658 28.4832C21.9117 28.4846 21.1964 28.782 20.6692 29.3102C20.1419 29.8384 19.8458 30.5542 19.8458 31.3006V171.358C19.8458 172.105 20.1419 172.821 20.6692 173.349C21.1964 173.877 21.9117 174.174 22.658 174.176H122.292C123.039 174.174 123.755 173.877 124.283 173.349C124.811 172.821 125.108 172.105 125.11 171.358V31.3006C125.108 30.5538 124.811 29.838 124.283 29.3099C123.755 28.7818 123.039 28.4846 122.292 28.4832H22.658Z" fill="#EBEBEB"/>
<path d="M233.908 174.305H134.269C133.488 174.303 132.739 173.993 132.187 173.44C131.634 172.888 131.324 172.139 131.322 171.358V31.3006C131.33 30.524 131.644 29.782 132.196 29.2353C132.747 28.6886 133.492 28.3813 134.269 28.38H233.908C234.683 28.3827 235.426 28.6908 235.976 29.2375C236.525 29.7841 236.837 30.5254 236.844 31.3006V171.358C236.844 172.138 236.535 172.886 235.985 173.438C235.435 173.99 234.688 174.302 233.908 174.305ZM134.269 28.4832C133.522 28.4846 132.806 28.7818 132.278 29.3099C131.75 29.838 131.453 30.5538 131.451 31.3006V171.358C131.453 172.105 131.75 172.821 132.278 173.349C132.806 173.877 133.522 174.174 134.269 174.176H233.908C234.655 174.174 235.371 173.877 235.899 173.349C236.427 172.821 236.724 172.105 236.726 171.358V31.3006C236.724 30.5538 236.427 29.838 235.899 29.3099C235.371 28.7818 234.655 28.4846 233.908 28.4832H134.269Z" fill="#EBEBEB"/>
<path d="M204.976 107.256V86.8687H205.791V107.813L204.976 107.256Z" fill="#E0E0E0"/>
<path d="M205.368 87.9264C205.368 87.9264 207.948 88.3598 209.589 89.6756C211.23 90.9914 212.308 90.7076 212.308 90.7076C212.253 91.0218 212.133 91.3212 211.957 91.5871C211.781 91.8531 211.552 92.08 211.284 92.2537C211.016 92.4274 210.716 92.5443 210.401 92.597C210.087 92.6497 209.764 92.6371 209.455 92.5601C208.707 92.4517 207.943 92.5275 207.231 92.7811C206.519 93.0347 205.879 93.4583 205.368 94.0152V87.9264Z" fill="#EBEBEB"/>
<path d="M236.725 197.112L131.399 197.344L136.559 180.683L136.931 179.48L147.891 175.105L158.268 168.17C158.268 168.17 163.479 170.502 164.196 168.557C164.278 168.3 164.3 168.028 164.258 167.762C164.016 165.832 165.161 163.314 166.142 161.57C166.531 160.876 166.956 160.202 167.416 159.552L177.814 152.679L180.91 148.639L182.649 143.82L184.083 139.826C184.083 139.826 185.904 129.635 186.937 129.206C187.968 128.778 192.612 126.007 192.612 126.007C193.624 125.955 194.58 125.531 195.296 124.815C196.241 123.828 196.839 122.56 196.998 121.203C197.189 120.078 197.484 118.685 197.814 117.209C198.918 112.302 200.507 106.471 200.507 106.471L208.118 106.941C208.118 106.941 210.987 130.135 210.616 132.354C210.492 133.113 210.869 135.321 211.477 137.927C212.654 142.932 214.687 149.382 215.652 149.681C215.909 149.744 216.141 149.886 216.312 150.088C216.484 150.291 216.587 150.542 216.606 150.806C216.76 152.078 217.072 153.327 217.535 154.521C218.351 156.529 220.301 165.992 221.627 172.674C222.396 176.539 222.948 179.465 222.948 179.465L224.532 180.414L231.916 184.826L236.725 197.112Z" fill="#EBEBEB"/>
<path d="M164.197 168.531L171.544 174.31L170.961 184.816L158.113 182.587L136.56 180.657L136.931 179.455L147.891 175.079L158.268 168.144C158.268 168.144 163.479 170.476 164.197 168.531Z" fill="#E0E0E0"/>
<path d="M189.682 158.716L191.23 174.31L175.802 157.824L166.152 161.554C166.542 160.86 166.967 160.187 167.427 159.537L177.824 152.664L180.92 148.624L182.659 143.804L183.547 150.45L189.682 158.716Z" fill="#E0E0E0"/>
<path d="M205.254 138.804L202.876 130.548L195.301 124.8C196.246 123.813 196.844 122.545 197.004 121.188C197.195 120.063 197.489 118.67 197.819 117.194L202.272 124.8L205.254 138.804Z" fill="#E0E0E0"/>
<path d="M216.611 150.791L212.798 162.746L207.555 166.26L203.396 175.316L205.254 162.746L211.26 158.267V148.334L211.482 137.906C212.659 142.911 214.692 149.361 215.657 149.661C215.914 149.723 216.145 149.866 216.317 150.068C216.488 150.27 216.591 150.521 216.611 150.785V150.791Z" fill="#E0E0E0"/>
<path d="M224.537 180.404L222.953 180.579L216.467 182.339L214.527 191.224L213.231 180.559L221.632 172.664C222.401 176.529 222.953 179.455 222.953 179.455L224.537 180.404Z" fill="#E0E0E0"/>
<path d="M91.3118 159.779H71.2188V197.318H91.3118V159.779Z" fill="#E6E6E6"/>
<path d="M69.9285 197.313H73.3135V159.774H69.9285V197.313Z" fill="#E0E0E0"/>
<path d="M71.0227 127.689H50.9297V197.318H71.0227V127.689Z" fill="#EBEBEB"/>
<path d="M47.9058 197.318H52.0234L52.0234 127.689H47.9058L47.9058 197.318Z" fill="#E0E0E0"/>
<path d="M50.7385 146.157H30.6455V197.318H50.7385V146.157Z" fill="#E6E6E6"/>
<path d="M27.74 197.318H31.7441L31.7441 146.157H27.74L27.74 197.318Z" fill="#E0E0E0"/>
<path d="M71.9511 103.556C70.9191 102.524 69.0254 102.947 67.4722 103.556C67.4722 103.406 67.4722 103.319 67.4722 103.319H51.177C51.177 103.319 51.177 103.406 51.177 103.556C49.629 102.927 47.7198 102.524 46.6981 103.556C45.5319 104.748 45.7899 108.917 47.6269 111.456C48.185 112.239 48.9263 112.874 49.7862 113.305C50.6461 113.736 51.5983 113.949 52.5598 113.928C54.0587 113.886 55.5327 113.535 56.8891 112.896C59.6755 116.662 58.1791 123.169 54.1904 123.706H64.4433C60.4495 123.19 58.9582 116.662 61.7446 112.896C63.0992 113.535 64.5715 113.886 66.0687 113.928C67.031 113.95 67.9842 113.736 68.8449 113.305C69.7057 112.875 70.4479 112.24 71.0068 111.456C72.8386 108.917 73.1018 104.748 71.9511 103.556ZM48.8498 110.646C47.1109 108.339 47.3018 105.006 47.7198 104.573C48.2048 104.082 49.7838 104.531 51.275 105.212C51.4799 106.468 51.9481 107.666 52.6489 108.728C53.3497 109.79 54.2672 110.691 55.3411 111.373C55.5062 111.487 55.6662 111.611 55.821 111.735C52.725 112.968 50.3307 112.596 48.8498 110.646ZM69.7839 110.646C68.303 112.596 65.9088 112.963 62.8128 111.735C62.9676 111.611 63.1275 111.487 63.2926 111.373C64.3701 110.688 65.2897 109.782 65.9907 108.714C66.6916 107.647 67.1579 106.443 67.3587 105.181C68.8345 104.505 70.4547 104.057 70.914 104.547C71.3113 105.006 71.5228 108.36 69.7839 110.646Z" fill="#EBEBEB"/>
<path d="M65.486 122.849H53.1484V128.205H65.486V122.849Z" fill="#E0E0E0"/>
<path d="M62.8595 57.792C62.8595 57.0639 63.1487 56.3657 63.6635 55.8509C64.1783 55.3361 64.8765 55.0468 65.6046 55.0468C65.8717 55.0477 66.1375 55.0859 66.3941 55.1604C66.3526 54.8819 66.3319 54.6008 66.3321 54.3193C66.3321 52.7778 66.9441 51.2995 68.0336 50.209C69.123 49.1186 70.6009 48.5053 72.1423 48.504C72.5025 48.5042 72.8619 48.5388 73.2156 48.6072C73.7873 47.6617 74.6518 46.9284 75.6779 46.5188C76.704 46.1091 77.8358 46.0453 78.9015 46.3371C79.9671 46.6289 80.9085 47.2604 81.5828 48.1357C82.2571 49.011 82.6275 50.0823 82.6377 51.1872H82.7203C83.3483 51.1663 83.9741 51.272 84.5605 51.4979C85.1468 51.7239 85.6817 52.0655 86.1333 52.5023C86.585 52.9392 86.9441 53.4625 87.1894 54.041C87.4346 54.6195 87.561 55.2415 87.561 55.8699C87.561 56.4982 87.4346 57.1202 87.1894 57.6987C86.9441 58.2772 86.585 58.8005 86.1333 59.2374C85.6817 59.6743 85.1468 60.0158 84.5605 60.2418C83.9741 60.4677 83.3483 60.5734 82.7203 60.5526H65.5323C64.8138 60.535 64.1309 60.2357 63.6309 59.7193C63.1309 59.2029 62.8538 58.5107 62.8595 57.792Z" fill="#F0F0F0"/>
<path d="M163.056 52.116C163.057 51.543 163.285 50.9939 163.69 50.5887C164.096 50.1835 164.645 49.9553 165.218 49.9539C165.429 49.9538 165.639 49.9833 165.842 50.0417C165.811 49.8229 165.796 49.6022 165.796 49.3812C165.796 48.7075 165.944 48.0421 166.23 47.4322C166.516 46.8223 166.933 46.2829 167.451 45.8524C167.97 45.4219 168.576 45.1108 169.228 44.9413C169.88 44.7717 170.562 44.7478 171.224 44.8713C171.677 44.1299 172.358 43.5556 173.166 43.235C173.973 42.9143 174.863 42.8646 175.701 43.0934C176.539 43.3221 177.28 43.8169 177.813 44.5033C178.346 45.1897 178.641 46.0305 178.654 46.8992H178.721C179.701 46.8992 180.641 47.2885 181.334 47.9813C182.027 48.6742 182.416 49.6139 182.416 50.5938C182.416 51.5736 182.027 52.5134 181.334 53.2062C180.641 53.8991 179.701 54.2883 178.721 54.2883H165.161C164.596 54.2735 164.059 54.0378 163.665 53.6317C163.272 53.2256 163.053 52.6815 163.056 52.116Z" fill="#F0F0F0"/>
<path d="M33.6943 82.2246C33.6937 81.7701 33.7826 81.32 33.956 80.9C34.1295 80.4799 34.384 80.0982 34.7051 79.7766C35.0262 79.455 35.4075 79.1999 35.8273 79.0258C36.2471 78.8518 36.6971 78.7622 37.1515 78.7622C37.4875 78.7616 37.8215 78.812 38.1423 78.9118C38.093 78.5596 38.0672 78.2045 38.0649 77.8489C38.0634 76.7708 38.2995 75.7056 38.7563 74.7291C39.2132 73.7526 39.8797 72.8888 40.7083 72.1991C41.5369 71.5094 42.5073 71.0108 43.5505 70.7387C44.5937 70.4666 45.6841 70.4277 46.744 70.6249C47.4673 69.4404 48.5558 68.5229 49.8457 68.0107C51.1356 67.4985 52.557 67.4192 53.8959 67.7847C55.2347 68.1503 56.4186 68.941 57.2692 70.0376C58.1197 71.1343 58.591 72.4776 58.612 73.8653H58.7203C59.5099 73.842 60.2961 73.9773 61.0324 74.2634C61.7686 74.5494 62.44 74.9803 63.0068 75.5305C63.5735 76.0807 64.024 76.7391 64.3317 77.4666C64.6394 78.1941 64.7979 78.9759 64.7979 79.7658C64.7979 80.5557 64.6394 81.3376 64.3317 82.0651C64.024 82.7926 63.5735 83.4509 63.0068 84.0011C62.44 84.5514 61.7686 84.9822 61.0324 85.2683C60.2961 85.5543 59.5099 85.6896 58.7203 85.6663H37.0483C36.1517 85.6408 35.3002 85.2673 34.6741 84.6249C34.0481 83.9825 33.6967 83.1216 33.6943 82.2246Z" fill="#F0F0F0"/>
<path d="M186.534 71.9046C186.534 70.9863 186.899 70.1057 187.548 69.4563C188.198 68.807 189.078 68.4422 189.997 68.4422C190.332 68.4416 190.667 68.4921 190.987 68.5919C190.938 68.2397 190.912 67.8846 190.91 67.5289C190.908 66.4508 191.144 65.3857 191.601 64.4092C192.058 63.4327 192.725 62.5689 193.553 61.8792C194.382 61.1895 195.352 60.6908 196.396 60.4188C197.439 60.1467 198.529 60.1078 199.589 60.3049C200.312 59.1204 201.401 58.203 202.691 57.6908C203.981 57.1785 205.402 57.0992 206.741 57.4648C208.08 57.8303 209.264 58.621 210.114 59.7177C210.965 60.8144 211.436 62.1577 211.457 63.5454H211.56C212.35 63.5221 213.136 63.6574 213.872 63.9434C214.608 64.2294 215.28 64.6603 215.847 65.2105C216.413 65.7607 216.864 66.4191 217.172 67.1466C217.479 67.8741 217.638 68.656 217.638 69.4459C217.638 70.2358 217.479 71.0176 217.172 71.7451C216.864 72.4726 216.413 73.131 215.847 73.6812C215.28 74.2314 214.608 74.6623 213.872 74.9483C213.136 75.2343 212.35 75.3697 211.56 75.3463H189.888C188.992 75.3209 188.14 74.9473 187.514 74.3049C186.888 73.6625 186.536 72.8016 186.534 71.9046Z" fill="#F0F0F0"/>
<path d="M129 225.781C184.255 225.781 229.048 223.166 229.048 219.94C229.048 216.714 184.255 214.099 129 214.099C73.7458 214.099 28.9531 216.714 28.9531 219.94C28.9531 223.166 73.7458 225.781 129 225.781Z" fill="#F5F5F5"/>
<path d="M142.53 76.5796C146.619 80.1577 151.79 82.2632 157.215 82.56C153.045 80.6815 149.488 77.6665 146.952 73.8602C152.478 69.691 155.946 63.7054 155.946 57.0593C155.946 44.4637 143.51 34.2521 128.17 34.2521C112.829 34.2521 100.393 44.4637 100.393 57.0593C100.393 63.7054 103.866 69.691 109.392 73.8602C106.856 77.6678 103.297 80.6831 99.124 82.56C104.551 82.2631 109.723 80.1578 113.815 76.5796C118.292 78.7413 123.2 79.864 128.172 79.864C133.144 79.864 138.052 78.7413 142.53 76.5796Z" fill="#2EB268"/>
<path opacity="0.6" d="M142.53 76.5796C146.619 80.1577 151.79 82.2632 157.215 82.56C153.045 80.6815 149.488 77.6665 146.952 73.8602C152.478 69.691 155.946 63.7054 155.946 57.0593C155.946 44.4637 143.51 34.2521 128.17 34.2521C112.829 34.2521 100.393 44.4637 100.393 57.0593C100.393 63.7054 103.866 69.691 109.392 73.8602C106.856 77.6678 103.297 80.6831 99.124 82.56C104.551 82.2631 109.723 80.1578 113.815 76.5796C118.292 78.7413 123.2 79.864 128.172 79.864C133.144 79.864 138.052 78.7413 142.53 76.5796Z" fill="white"/>
<path d="M128.159 71.092C133.703 69.1092 136.199 61.9158 133.734 55.025C131.27 48.1342 124.778 44.1555 119.234 46.1383C113.69 48.121 111.194 55.3145 113.659 62.2053C116.123 69.096 122.615 73.0748 128.159 71.092Z" fill="#2EB268"/>
<path d="M128.083 68.4082C132.559 66.8074 134.574 61.0004 132.585 55.4378C130.595 49.8753 125.354 46.6637 120.879 48.2645C116.403 49.8653 114.387 55.6723 116.377 61.2348C118.366 66.7974 123.607 70.009 128.083 68.4082Z" fill="white"/>
<path d="M128.046 66.1506C131.631 64.8684 133.246 60.2181 131.653 55.7638C130.06 51.3094 125.862 48.7379 122.277 50.0201C118.692 51.3023 117.078 55.9526 118.671 60.4069C120.264 64.8613 124.462 67.4328 128.046 66.1506Z" fill="#2EB268"/>
<path d="M130.435 56.2027C131.658 59.6238 130.507 63.1635 127.855 64.1078C125.203 65.0521 122.076 63.0758 120.853 59.6289C119.63 56.182 120.781 52.6681 123.433 51.7238C126.085 50.7795 129.212 52.7816 130.435 56.2027Z" fill="white"/>
<path d="M129.516 56.76C130.388 59.2007 129.635 61.6981 127.834 62.3431C126.033 62.9881 123.861 61.533 122.989 59.0975C122.117 56.662 122.87 54.1542 124.676 53.5092C126.482 52.8642 128.66 54.2987 129.516 56.76Z" fill="#2EB268"/>
<path d="M128.902 56.9612C129.532 58.7208 129.052 60.5061 127.834 60.9396C126.616 61.373 125.11 60.3049 124.48 58.5402C123.851 56.7754 124.331 55.0004 125.548 54.5618C126.766 54.1232 128.273 55.212 128.902 56.9612Z" fill="white"/>
<path d="M143.448 48.9994L140.167 50.1759L139.537 53.1583L141.916 55.0624L145.198 53.8911L142.762 52.0025L143.448 48.9994Z" fill="#2EB268"/>
<path d="M127.205 58.0861C127.093 58.0924 126.982 58.062 126.889 57.9996C126.796 57.9372 126.725 57.8463 126.689 57.7404C126.644 57.6118 126.652 57.4707 126.711 57.3479C126.77 57.2252 126.875 57.1307 127.003 57.0851L143.066 51.3369C143.196 51.291 143.338 51.2984 143.462 51.3575C143.586 51.4165 143.681 51.5223 143.727 51.6516C143.773 51.7809 143.765 51.9232 143.706 52.0471C143.647 52.1709 143.542 52.2663 143.412 52.3121L127.349 58.0552C127.303 58.0724 127.254 58.0828 127.205 58.0861Z" fill="#263238"/>
<path d="M142.524 104.031L141.719 102.07C141.719 102.07 142.359 101.456 142.276 100.961C142.194 100.465 138.866 97.7201 138.251 97.2505C137.637 96.781 136.642 98.5096 136.255 99.8873C135.868 101.265 139.351 103.68 139.867 103.448L140.424 105.398L142.524 104.031Z" fill="#EBB376"/>
<path d="M162.767 103.67C156.632 104.418 149.795 113.443 147.803 112.292C145.811 111.141 142.127 102.859 142.127 102.859L140.017 104.108C140.017 104.108 141.936 119.31 146.632 119.887C151.327 120.465 160.017 115.584 160.017 115.584L162.767 103.67Z" fill="#263238"/>
<path opacity="0.2" d="M162.766 103.675L160.95 111.549L160.016 115.574C157.449 116.985 154.76 118.161 151.982 119.088C150.073 119.686 148.148 120.068 146.641 119.882C141.951 119.31 140.031 104.108 140.031 104.108L142.137 102.859C142.137 102.859 145.8 111.115 147.813 112.292C149.825 113.468 156.636 104.423 162.766 103.675Z" fill="white"/>
<path opacity="0.2" d="M160.951 111.549L160.017 115.574C157.45 116.985 154.761 118.161 151.982 119.088C152.942 113.886 158.856 112.044 160.951 111.549Z" fill="black"/>
<path d="M178.164 218.103H182.7C182.773 218.102 182.845 218.127 182.902 218.173C182.96 218.219 182.999 218.284 183.015 218.356L183.753 221.684C183.782 221.826 183.754 221.974 183.674 222.096C183.595 222.218 183.471 222.303 183.329 222.334C183.288 222.339 183.247 222.339 183.206 222.334C181.74 222.334 180.672 222.221 178.825 222.221C177.69 222.221 174.268 222.339 172.7 222.339C171.131 222.339 170.93 220.791 171.57 220.652C174.449 220.022 176.616 219.156 177.535 218.33C177.707 218.175 177.933 218.094 178.164 218.103Z" fill="#263238"/>
<path d="M155.125 218.103H159.661C159.735 218.102 159.807 218.127 159.865 218.173C159.923 218.219 159.964 218.283 159.981 218.356L160.713 221.684C160.729 221.754 160.731 221.827 160.718 221.899C160.705 221.97 160.678 222.038 160.639 222.098C160.599 222.159 160.548 222.211 160.488 222.251C160.428 222.292 160.361 222.32 160.29 222.334C160.251 222.339 160.211 222.339 160.172 222.334C158.701 222.334 157.633 222.221 155.791 222.221C154.656 222.221 151.229 222.339 149.666 222.339C148.102 222.339 147.891 220.791 148.536 220.652C151.41 220.022 153.577 219.156 154.501 218.33C154.671 218.175 154.895 218.094 155.125 218.103Z" fill="#263238"/>
<path d="M181.998 136.683C183.2 149.164 182.738 161.749 180.626 174.109C180.626 174.109 184.037 202.762 183.015 218.376H177.535C177.535 218.376 168.407 186.761 167.318 177.55C166.229 168.34 164.676 154.692 164.676 154.692C164.676 154.692 161.885 167.623 157.287 177.55C157.287 177.55 161.214 186.911 160.729 219.269L153.82 218.696C153.82 218.696 148.882 188.521 146.462 177.561C144.041 166.601 148.732 145.404 152.617 134.129L181.998 136.683Z" fill="#263238"/>
<path opacity="0.4" d="M181.998 136.683C183.2 149.164 182.738 161.749 180.626 174.109C180.626 174.109 184.037 202.762 183.015 218.376H177.535C177.535 218.376 168.407 186.761 167.318 177.55C166.229 168.34 164.676 154.692 164.676 154.692C164.676 154.692 161.885 167.623 157.287 177.55C157.287 177.55 161.214 186.911 160.729 219.269L153.82 218.696C153.82 218.696 148.882 188.521 146.462 177.561C144.041 166.601 148.732 145.404 152.617 134.129L181.998 136.683Z" fill="white"/>
<path d="M158.675 137.643L169.753 139.036L170.094 136.534L159 135.259L158.675 137.643Z" fill="#263238"/>
<path d="M170.94 136.632L170.595 139.145L182.045 140.326L181.936 137.891L170.94 136.632Z" fill="#263238"/>
<path d="M158.159 135.166L152.813 134.552L152.317 136.838L157.833 137.535L158.159 135.166Z" fill="#263238"/>
<path d="M164.882 138.592L161.399 138.195C161.344 138.191 161.29 138.175 161.24 138.15C161.19 138.124 161.146 138.089 161.11 138.046C161.074 138.003 161.047 137.954 161.03 137.901C161.014 137.848 161.007 137.792 161.012 137.736L161.301 135.641C161.311 135.583 161.333 135.528 161.364 135.479C161.395 135.43 161.436 135.388 161.485 135.354C161.533 135.321 161.587 135.298 161.644 135.286C161.701 135.274 161.76 135.274 161.817 135.285L165.306 135.682C165.361 135.687 165.415 135.702 165.464 135.728C165.514 135.754 165.557 135.789 165.593 135.832C165.629 135.874 165.655 135.924 165.671 135.977C165.688 136.03 165.693 136.086 165.687 136.141L165.398 138.236C165.389 138.294 165.368 138.35 165.337 138.399C165.306 138.449 165.265 138.492 165.217 138.525C165.168 138.558 165.114 138.581 165.056 138.593C164.999 138.605 164.94 138.604 164.882 138.592Z" fill="white"/>
<path d="M152.617 134.108C152.617 134.108 149.361 128.211 156.229 118.112C156.229 118.112 158.226 107.199 159.893 105.476C161.559 103.752 166.683 101.461 173.995 102.777C181.307 104.093 184.366 107.06 184.366 107.06L183.19 130.12C183.19 130.12 183.84 133.03 182.189 137.406L152.617 134.108Z" fill="#263238"/>
<path d="M178.598 103.587C175.816 104.97 169.284 105.383 169.284 105.383L165.672 103.092C167.473 102.927 168.603 102.576 169.284 102.06C170.367 101.25 170.285 100.12 169.939 99.0153C169.939 99.0153 169.939 99.0153 169.939 98.9792L174.913 96.9564L178.34 95.5632C177.23 97.7924 175.878 101.946 178.598 103.587Z" fill="#EBB376"/>
<path opacity="0.2" d="M176.931 97.4776C176.353 100.857 171.983 102.039 169.284 102.039C170.368 101.229 170.285 100.099 169.939 98.9947C169.945 98.9814 169.945 98.9667 169.939 98.9534L174.914 96.9307C175.017 97.3435 176.988 97.0545 176.931 97.4776Z" fill="black"/>
<path d="M178.655 88.9997C178.437 88.3496 178.093 87.7488 177.643 87.2317C177.193 86.7146 176.645 86.2914 176.031 85.9861C175.417 85.6808 174.749 85.4995 174.065 85.4526C173.381 85.4058 172.694 85.4941 172.045 85.7128C171.274 85.9667 170.579 86.4083 170.022 86.9976C168.655 87.7148 167.813 89.9749 167.958 91.4971C167.899 91.817 167.853 92.137 167.819 92.4569C167.494 93.3238 166.188 94.2061 166.89 96.8584C167.762 100.156 171.296 101.012 173.541 100.47C174.536 100.349 175.47 99.9239 176.214 99.2526C176.441 99.0516 176.653 98.8343 176.849 98.6024C178.309 96.8996 178.443 94.7582 178.877 91.4042C178.991 90.5964 178.915 89.7729 178.655 88.9997Z" fill="#EBB376"/>
<path d="M173.014 92.0853C173.014 92.3949 172.813 92.6323 172.607 92.6013C172.4 92.5704 172.261 92.3227 172.277 92.0131C172.292 91.7035 172.483 91.4661 172.684 91.4971C172.885 91.5281 173.035 91.7706 173.014 92.0853Z" fill="#263238"/>
<path d="M169.505 91.848C169.505 92.1576 169.299 92.4002 169.098 92.364C168.896 92.3279 168.752 92.0854 168.772 91.7758C168.793 91.4662 168.979 91.2237 169.18 91.2598C169.381 91.2959 169.526 91.5436 169.505 91.848Z" fill="#263238"/>
<path d="M170.61 92.0699C170.176 92.993 169.615 93.851 168.943 94.619C169.145 94.7869 169.382 94.9082 169.636 94.9742C169.89 95.0402 170.156 95.0493 170.414 95.0008L170.61 92.0699Z" fill="#D58745"/>
<path d="M174.278 90.8934C174.245 90.901 174.211 90.9003 174.179 90.8913C174.146 90.8823 174.117 90.8653 174.092 90.8418C173.937 90.6735 173.745 90.5436 173.531 90.4621C173.317 90.3806 173.087 90.3499 172.859 90.3722C172.812 90.3811 172.763 90.3709 172.724 90.3438C172.684 90.3167 172.657 90.275 172.648 90.2278C172.639 90.1806 172.649 90.1317 172.676 90.0921C172.703 90.0524 172.745 90.0251 172.792 90.0162C173.077 89.9818 173.366 90.0158 173.635 90.1154C173.905 90.215 174.146 90.3773 174.34 90.589C174.357 90.6058 174.371 90.6259 174.38 90.648C174.39 90.6702 174.394 90.6939 174.394 90.718C174.394 90.742 174.39 90.7658 174.38 90.7879C174.371 90.8101 174.357 90.8302 174.34 90.847C174.322 90.866 174.301 90.8818 174.278 90.8934Z" fill="#263238"/>
<path d="M168.216 90.7593C168.179 90.7575 168.143 90.745 168.113 90.7232C168.096 90.7063 168.082 90.6863 168.073 90.6641C168.063 90.642 168.059 90.6182 168.059 90.5942C168.059 90.5701 168.063 90.5463 168.073 90.5242C168.082 90.502 168.096 90.482 168.113 90.4652C168.323 90.2648 168.579 90.1183 168.859 90.0384C169.138 89.9584 169.433 89.9473 169.718 90.0059C169.741 90.0119 169.762 90.0224 169.781 90.0368C169.8 90.0513 169.816 90.0693 169.828 90.0899C169.84 90.1106 169.848 90.1334 169.851 90.157C169.854 90.1807 169.853 90.2047 169.847 90.2278C169.833 90.2737 169.803 90.3127 169.761 90.3368C169.72 90.3608 169.671 90.368 169.625 90.3568C169.399 90.3179 169.167 90.3321 168.947 90.3984C168.728 90.4647 168.527 90.5812 168.36 90.7386C168.339 90.7519 168.315 90.7606 168.29 90.7642C168.266 90.7678 168.24 90.7661 168.216 90.7593Z" fill="#263238"/>
<path d="M169.825 87.0441C171.492 86.2908 171.605 87.5601 171.605 87.5601C171.605 87.5601 172.684 86.3011 173.845 86.4972C175.006 86.6932 176.678 88.9172 176.776 89.2062C176.874 89.4951 176.316 90.0627 176.316 90.0627C176.316 90.0627 176.445 93.5715 176.487 94.5416L177.921 97.1629C179.525 94.6564 180.389 91.7482 180.414 88.7727C180.46 83.7727 170.61 84.0152 170.61 84.0152L169.825 87.0441Z" fill="#263238"/>
<path d="M180.295 95.7438C180.014 96.1285 179.66 96.4537 179.252 96.7008C178.845 96.9479 178.393 97.1119 177.922 97.1835C176.663 97.3692 176.193 96.2031 176.673 95.0937C177.111 94.1133 178.293 92.8026 179.495 93.1329C180.698 93.4631 180.981 94.7841 180.295 95.7438Z" fill="#EBB376"/>
<path d="M170.563 96.1205C170.862 96.6583 171.12 97.2171 171.337 97.7923L171.652 97.7252C173.092 97.4208 173.654 96.8016 173.845 96.2134C173.979 95.7538 173.944 95.2615 173.747 94.8253C173.082 95.4445 171.766 95.8315 171.054 96.007C170.754 96.0844 170.563 96.1205 170.563 96.1205Z" fill="#263238"/>
<path d="M171.054 96.007L171.291 96.4972C172.648 96.203 173.556 95.816 173.897 95.3155C173.869 95.1463 173.818 94.9814 173.747 94.8253C173.082 95.46 171.766 95.8315 171.054 96.007Z" fill="white"/>
<path d="M171.652 97.7253C173.092 97.4208 173.654 96.8016 173.845 96.2134C173.295 96.3387 172.771 96.5606 172.297 96.8687C171.999 97.0811 171.774 97.3802 171.652 97.7253Z" fill="#DE5753"/>
<path d="M170.609 84.0358C167.957 84.4692 167.513 88.107 169.51 88.4476C171.507 88.7881 169.846 87.5291 169.846 87.5291C169.846 87.5291 173.329 88.6798 173.927 88.5095C174.526 88.3392 173.726 87.5291 173.726 87.5291C173.726 87.5291 176.017 89.1751 177.911 88.525C179.805 87.8748 178.329 82.7819 170.609 84.0358Z" fill="#263238"/>
<path d="M167.648 104.423L168.169 107.122L164.33 116.466L165.357 119.991L167.462 118.149L168.721 107.504L171.859 105.553L171.162 104.423L168.871 103.907L167.648 104.423Z" fill="#2EB268"/>
<path d="M168.345 101.404L170.156 103.664L177.7 101.25L179.377 104.237L170.976 108.241L169.604 104.774L165.641 107.055L165.311 102.859L168.345 101.404Z" fill="#263238"/>
<path opacity="0.2" d="M183.975 110.114C183.732 112.354 183.412 115.79 183.201 120.336C182.124 117.719 181.92 114.823 182.618 112.08C182.942 111.345 183.402 110.678 183.975 110.114Z" fill="black"/>
<path d="M177.215 127.395L175.207 127.86C175.207 127.86 174.738 127.101 174.253 127.096C173.768 127.091 170.558 129.991 170.006 130.527C169.454 131.064 170.909 132.39 172.153 133.035C173.396 133.68 176.312 130.553 176.183 130.001L178.138 129.784L177.215 127.395Z" fill="#EBB376"/>
<path d="M184.382 107.049C187.839 109.067 193.757 121.575 192.122 126.296C190.95 129.692 179.469 131.374 176.729 130.109L175.894 127.571C175.894 127.571 184.846 124.738 185.316 123.004C185.687 121.626 182.194 118.36 182.194 118.36C182.194 118.36 181.539 115.987 182.71 110.388C183.236 108.04 184.382 107.049 184.382 107.049Z" fill="#263238"/>
<path opacity="0.2" d="M184.382 107.049C187.839 109.067 193.757 121.575 192.122 126.296C190.95 129.692 179.469 131.374 176.729 130.109L175.894 127.571C175.894 127.571 184.846 124.738 185.316 123.004C185.687 121.626 182.194 118.36 182.194 118.36C182.194 118.36 181.539 115.987 182.71 110.388C183.236 108.04 184.382 107.049 184.382 107.049Z" fill="white"/>
<path opacity="0.2" d="M168.345 101.404L170.156 103.664L177.7 101.25L179.377 104.237L170.976 108.241L169.604 104.774L165.641 107.055L165.311 102.859L168.345 101.404Z" fill="white"/>
<path d="M105.78 98.9017C105.517 98.3135 105.78 96.7551 105.78 96.7551C105.78 96.7551 110.161 94.4538 110.863 93.8965C111.564 93.3392 112.354 95.8676 111.895 96.3991C111.435 96.9306 110.14 98.9017 107.952 98.9017L107.328 100.62L105.78 98.9017Z" fill="#E4897B"/>
<path d="M93.9123 100.826C95.5687 101.224 100.342 107.534 101.967 107.359C103.592 107.184 105.543 98.7159 105.543 98.7159L107.927 99.4332C107.927 99.4332 106.735 110.078 103.701 111.508C100.667 112.937 93.3809 106.864 93.3809 106.864L93.9123 100.826Z" fill="#2EB268"/>
<path opacity="0.4" d="M93.9123 100.826C95.5687 101.224 100.342 107.534 101.967 107.359C103.592 107.184 105.543 98.7159 105.543 98.7159L107.927 99.4332C107.927 99.4332 106.735 110.078 103.701 111.508C100.667 112.937 93.3809 106.864 93.3809 106.864L93.9123 100.826Z" fill="white"/>
<path opacity="0.2" d="M93.9121 107.328C95.2744 108.395 96.7107 109.364 98.2104 110.228C97.9902 109.176 97.5432 108.186 96.9007 107.325C96.2581 106.464 95.4354 105.753 94.49 105.243L93.9121 107.328Z" fill="black"/>
<path d="M77.9159 216.204H73.1997C73.1224 216.205 73.0475 216.231 72.9875 216.28C72.9275 216.329 72.8858 216.397 72.8694 216.472L72.1058 219.93C72.0898 220.003 72.0885 220.079 72.102 220.153C72.1154 220.227 72.1432 220.298 72.184 220.361C72.2247 220.424 72.2775 220.479 72.3393 220.522C72.4012 220.564 72.4708 220.595 72.5444 220.611H72.6734C74.2214 220.585 75.3101 220.492 77.2245 220.492C78.4061 220.492 81.9665 220.616 83.5971 220.616C85.2276 220.616 85.4392 219.006 84.7736 218.856C81.7808 218.206 79.5258 217.308 78.5816 216.441C78.3991 216.279 78.1602 216.193 77.9159 216.204Z" fill="#263238"/>
<path d="M97.9159 216.08H93.1997C93.1224 216.081 93.0475 216.108 92.9875 216.156C92.9275 216.205 92.8858 216.273 92.8694 216.348L92.1058 219.816C92.0898 219.889 92.0885 219.965 92.102 220.039C92.1154 220.113 92.1432 220.184 92.184 220.247C92.2247 220.311 92.2775 220.365 92.3393 220.408C92.4012 220.451 92.4708 220.481 92.5444 220.497H92.6734C94.2214 220.471 95.3101 220.378 97.2245 220.378C98.4061 220.378 101.967 220.502 103.597 220.502C105.228 220.502 105.439 218.892 104.774 218.743C101.781 218.092 99.5259 217.195 98.5816 216.328C98.3995 216.163 98.1613 216.074 97.9159 216.08Z" fill="#263238"/>
<path d="M75.4133 128.763H96.0224C97.978 139.464 104.113 182.912 99.7118 216.653H92.7355C92.7355 216.653 93.3959 165.414 87.2039 148.856C86.5125 157.715 79.3091 216.617 79.3091 216.617H72.209C72.209 216.617 73.2668 194.46 74.3297 173.531C75.0005 160.352 75.3824 131.466 75.4133 128.763Z" fill="#263238"/>
<path opacity="0.3" d="M87.2041 148.856C88.2168 151.759 88.9866 154.741 89.5055 157.772C90.0834 149.888 87.7769 141.523 87.7769 141.523L87.2041 148.856Z" fill="black"/>
<path d="M96.1924 129.01H75.4492V131.477L96.4607 131.224L96.1924 129.01Z" fill="black"/>
<path d="M82.1163 132.282H82.8594V127.896H82.1163V132.282Z" fill="#263238"/>
<path d="M92.6115 132.282H93.3545V127.896H92.6115V132.282Z" fill="#263238"/>
<path d="M86.7342 131.343H90.5732V128.577H86.7342V131.343Z" fill="white"/>
<path opacity="0.3" d="M79.2787 131.941H75.7028L75.6615 132.767L75.45 132.736C74.6553 140.682 77.0805 142.669 77.0805 142.669C76.0072 141.549 75.7286 136.993 75.7286 136.993C76.7414 136.578 77.6142 135.882 78.2434 134.987C78.8726 134.092 79.2319 133.034 79.2787 131.941Z" fill="black"/>
<path d="M75.6303 129.96L77.8749 132.916C77.8749 132.916 78.2154 132.555 78.9069 133.567C78.369 134.955 77.3282 136.09 75.9915 136.745L76.2804 134.506L73.9688 131.477L75.6303 129.96Z" fill="#E4897B"/>
<path d="M73.3236 103.128C71.4092 102.772 64.8973 119.088 66.1976 122.447C67.498 125.806 74.82 133.799 74.82 133.799L77.0801 131.683C77.0801 131.683 71.0687 123.67 70.2018 121.033C69.3349 118.396 74.1337 110.032 74.1337 110.032C74.4842 108.731 74.6167 107.382 74.5259 106.038C74.4248 104.97 74.0061 103.956 73.3236 103.128Z" fill="#2EB268"/>
<path opacity="0.4" d="M73.3236 103.128C71.4092 102.772 64.8973 119.088 66.1976 122.447C67.498 125.806 74.82 133.799 74.82 133.799L77.0801 131.683C77.0801 131.683 71.0687 123.67 70.2018 121.033C69.3349 118.396 74.1337 110.032 74.1337 110.032C74.4842 108.731 74.6167 107.382 74.5259 106.038C74.4248 104.97 74.0061 103.956 73.3236 103.128Z" fill="white"/>
<path d="M96.5174 121.26C96.5174 121.6 96.5174 121.936 96.5174 122.261C96.5174 122.973 96.4916 123.644 96.4762 124.258C96.44 125.12 96.4039 125.883 96.3678 126.539C96.2698 128.087 96.1666 129.01 96.1666 129.01H75.1808C75.1292 128.252 75.0776 127.493 75.0312 126.74C74.9848 125.986 74.9383 125.347 74.8919 124.676C74.8454 124.005 74.8093 123.453 74.768 122.849C74.7422 122.545 74.7268 122.235 74.701 121.931C74.6442 121.079 74.5823 120.238 74.5255 119.413C74.5255 119.242 74.5255 119.077 74.4894 118.897C74.412 117.756 74.3346 116.637 74.252 115.548C74.2211 115.099 74.185 114.66 74.154 114.222C74.0302 112.55 73.9166 110.961 73.8031 109.474C73.7309 108.53 73.6638 107.622 73.5967 106.771C73.4987 105.419 73.4058 104.191 73.3232 103.117L93.9116 100.826C95.6712 106.502 96.311 112.751 96.4916 117.942C96.4916 118.128 96.4916 118.314 96.4916 118.489C96.4916 119.454 96.5226 120.378 96.5174 121.26Z" fill="#2EB268"/>
<path opacity="0.2" d="M73.5967 106.76C73.6638 107.617 73.7308 108.52 73.8031 109.469C73.9166 110.955 74.0301 112.54 74.154 114.217C74.5708 112.136 74.7782 110.018 74.7732 107.896L73.5967 106.76Z" fill="black"/>
<path opacity="0.4" d="M96.4919 124.253C96.4558 125.114 96.4197 125.878 96.3836 126.533L75.0573 126.735C75.0057 126.038 74.9644 125.341 74.918 124.671L96.4919 124.253Z" fill="white"/>
<path opacity="0.4" d="M96.5177 121.26C96.5177 121.6 96.5177 121.936 96.5177 122.261L74.7682 122.808C74.7424 122.503 74.727 122.194 74.7012 121.889L96.5177 121.26Z" fill="white"/>
<path opacity="0.4" d="M96.4922 118.489L74.5312 119.392C74.5312 119.222 74.5312 119.057 74.4951 118.876L96.4767 117.932C96.4922 118.128 96.4922 118.314 96.4922 118.489Z" fill="white"/>
<path d="M79.7841 102.545C81.6365 104.093 84.4281 104.578 84.4281 104.578C84.4281 104.578 87.6066 102.194 87.0081 101.368C85.393 101.177 85.62 100.692 85.2588 99.7479C85.0554 99.1617 84.9729 98.5403 85.0163 97.9213C85.0248 97.5758 85.0541 97.2312 85.104 96.8893L79.5312 93.1328C80.362 95.7438 81.4404 100.558 79.7841 102.545Z" fill="#E4897B"/>
<path opacity="0.2" d="M80.8984 95.6251C81.2545 98.8501 83.9532 99.6241 85.2638 99.7531C85.0604 99.1669 84.9779 98.5455 85.0213 97.9265L80.8984 95.6251Z" fill="black"/>
<path d="M86.4039 83.7054C86.4039 83.7054 88.6846 88.4423 86.6309 91.1668C84.5773 93.8913 81.7393 84.6239 81.7393 84.6239L86.4039 83.7054Z" fill="#263238"/>
<path d="M80.1817 97.4672C80.9855 98.1165 81.9804 98.4838 83.0133 98.5127C84.0462 98.5416 85.06 98.2305 85.8989 97.6271C86.9998 96.8691 87.7694 95.7191 88.0507 94.4125C88.0925 94.2304 88.1235 94.0461 88.1435 93.8603C88.5099 90.4238 87.2921 84.9851 83.4686 83.9789C82.6253 83.7539 81.7386 83.748 80.8924 83.9617C80.0463 84.1754 79.2687 84.6018 78.6335 85.2003C77.9983 85.7988 77.5265 86.5496 77.2628 87.3816C76.9992 88.2136 76.9524 89.0991 77.1269 89.9542C77.8235 93.6281 78.0609 95.8211 80.1817 97.4672Z" fill="#E4897B"/>
<path d="M82.89 90.2638C82.89 90.5631 83.1171 90.7798 83.3183 90.7798C83.5196 90.7798 83.6434 90.4857 83.6073 90.1864C83.5712 89.8871 83.3699 89.6704 83.1738 89.6704C82.9778 89.6704 82.8539 89.9594 82.89 90.2638Z" fill="#263238"/>
<path d="M86.301 89.8201C86.301 90.1245 86.5332 90.3361 86.7293 90.3361C86.9253 90.3361 87.0543 90.042 87.0182 89.7427C86.9821 89.4434 86.786 89.2267 86.5899 89.2267C86.3939 89.2267 86.2649 89.5363 86.301 89.8201Z" fill="#263238"/>
<path d="M85.2383 90.109C85.7159 90.9872 86.3133 91.7947 87.0133 92.5084C86.8247 92.6823 86.6007 92.8134 86.3566 92.8927C86.1126 92.9719 85.8543 92.9975 85.5995 92.9676L85.2383 90.109Z" fill="#DE5753"/>
<path d="M87.3694 88.2617C87.3402 88.278 87.3074 88.2865 87.2739 88.2865C87.2405 88.2865 87.2077 88.278 87.1785 88.2617C86.9849 88.1504 86.7681 88.0855 86.5452 88.0721C86.3222 88.0586 86.0992 88.0971 85.8936 88.1843C85.8526 88.2069 85.8042 88.2123 85.7592 88.1992C85.7142 88.1861 85.6763 88.1557 85.6537 88.1147C85.6311 88.0736 85.6258 88.0253 85.6388 87.9803C85.6519 87.9353 85.6823 87.8973 85.7234 87.8747C85.9804 87.7563 86.2621 87.7011 86.5448 87.7137C86.8276 87.7262 87.1032 87.8062 87.3488 87.947C87.3911 87.969 87.423 88.0068 87.4375 88.0523C87.452 88.0977 87.4479 88.147 87.4262 88.1895C87.4104 88.2159 87.3914 88.2402 87.3694 88.2617Z" fill="#263238"/>
<path d="M82.0445 88.9944C82.0109 89.0048 81.9749 89.0048 81.9413 88.9944C81.9082 88.9607 81.8896 88.9153 81.8896 88.868C81.8896 88.8207 81.9082 88.7753 81.9413 88.7416C82.1247 88.5239 82.3579 88.3535 82.621 88.2449C82.8841 88.1362 83.1695 88.0924 83.4532 88.1172C83.5003 88.1248 83.5426 88.1508 83.5706 88.1895C83.5987 88.2282 83.6102 88.2764 83.6028 88.3236C83.594 88.3692 83.5685 88.4098 83.5312 88.4375C83.494 88.4652 83.4477 88.478 83.4016 88.4733C83.177 88.4594 82.9524 88.499 82.7462 88.5887C82.5399 88.6784 82.3578 88.8156 82.2148 88.9893C82.189 89.0041 82.16 89.0123 82.1303 89.0132C82.1006 89.0141 82.0711 89.0076 82.0445 88.9944Z" fill="#263238"/>
<path d="M79.252 84.98L79.6958 85.6198C78.5503 86.2339 79.0405 87.6013 79.4017 88.1998C80.1654 89.4743 79.768 91.7241 78.8857 92.7561C78.8857 92.7561 78.7463 92.173 78.2716 92.4001C77.7969 92.6271 78.4832 95.6818 79.7164 96.977C79.7164 96.977 78.0085 95.914 76.6204 92.849C75.3201 89.9955 74.7783 87.5239 75.186 86.2597L79.252 84.98Z" fill="#263238"/>
<path d="M75.904 93.205C76.1582 93.5987 76.4879 93.9383 76.8741 94.204C77.2602 94.4696 77.6951 94.6562 78.1537 94.753C79.3767 94.9955 79.8927 93.8758 79.4747 92.7664C79.098 91.786 78.0041 90.4495 76.8121 90.7024C75.6202 90.9552 75.2745 92.2297 75.904 93.205Z" fill="#E4897B"/>
<path d="M85.5994 94.1493C85.3345 94.62 85.1051 95.1098 84.9131 95.6147C84.8151 95.6147 84.7222 95.5786 84.6293 95.5528C83.3703 95.2742 82.8749 94.7272 82.7098 94.206C82.6347 93.9513 82.6223 93.6822 82.6737 93.4217C82.6969 93.2714 82.7421 93.1254 82.8079 92.9883C83.5126 93.4976 84.3185 93.8496 85.1711 94.0203C85.4343 94.1183 85.5994 94.1493 85.5994 94.1493Z" fill="#263238"/>
<path d="M85.1713 94.0461L84.9597 94.4743C83.7677 94.206 82.9679 93.8603 82.6738 93.4423C82.697 93.2921 82.7422 93.146 82.808 93.0089C83.5123 93.5201 84.3182 93.8738 85.1713 94.0461Z" fill="white"/>
<path d="M84.6236 95.5528C83.3646 95.2742 82.8692 94.7272 82.7041 94.2061C83.1823 94.3219 83.6365 94.521 84.0457 94.7943C84.3134 94.98 84.5156 95.2455 84.6236 95.5528Z" fill="#DE5753"/>
<path d="M75.0317 88.5456C75.0317 88.5456 73.1638 85.6353 76.6313 82.529C80.0988 79.4227 84.6654 80.723 85.6304 82.013C85.6304 82.013 88.3961 82.6219 87.0236 85.367L85.2021 83.9325C85.2021 83.9325 82.3073 88.6384 75.0317 88.5456Z" fill="#263238"/>
<path d="M88.0137 101.6L86.2026 115.553L78.7773 102.622L84.3347 103.613L88.0137 101.6Z" fill="#2EB268"/>
<path opacity="0.4" d="M88.0137 101.6L86.5844 112.601L86.2026 115.553L84.7939 113.102L78.7773 102.622L84.3347 103.613L88.0137 101.6Z" fill="white"/>
<path d="M86.5846 112.602L86.2027 115.553L84.7941 113.102L84.4896 107.018L81.9561 104.438L84.3348 103.613L84.567 103.535L86.6104 103.788L85.4803 106.616L86.5846 112.602Z" fill="#263238"/>
<path d="M80.4337 101.007L84.345 103.138L85.6298 100.506L88.0137 101.6L87.1365 105.739L84.5978 104.175L82.7041 106.595L78.7773 102.622L80.4337 101.007Z" fill="#2EB268"/>
<path opacity="0.6" d="M80.4337 101.007L84.345 103.138L85.6298 100.506L88.0137 101.6L87.1365 105.739L84.5978 104.175L82.7041 106.595L78.7773 102.622L80.4337 101.007Z" fill="white"/>
</svg>
