<svg width="38" height="38" viewBox="0 0 38 38" fill="none" xmlns="http://www.w3.org/2000/svg">
<g opacity="0.2">
<circle cx="18.9997" cy="19" r="3.16667" fill="black"/>
<path d="M19.0003 19L34.8337 3.16663M28.5003 19C28.5003 24.2467 24.247 28.5 19.0003 28.5C13.7536 28.5 9.50033 24.2467 9.50033 19C9.50033 13.7533 13.7536 9.49996 19.0003 9.49996C24.247 9.49996 28.5003 13.7533 28.5003 19ZM34.8337 19C34.8337 27.7445 27.7448 34.8333 19.0003 34.8333C10.2558 34.8333 3.16699 27.7445 3.16699 19C3.16699 10.2555 10.2558 3.16663 19.0003 3.16663C27.7448 3.16663 34.8337 10.2555 34.8337 19Z" stroke="black" stroke-width="1.5" stroke-linecap="round"/>
</g>
</svg>
