<svg width="28" height="28" viewBox="0 0 28 28" fill="none" xmlns="http://www.w3.org/2000/svg">
<circle cx="14.0003" cy="14" r="2.33333" fill="#3C82F6"/>
<path d="M13.9997 14L25.6663 2.33337M20.9997 14C20.9997 17.866 17.8657 21 13.9997 21C10.1337 21 6.99967 17.866 6.99967 14C6.99967 10.134 10.1337 7.00004 13.9997 7.00004C17.8657 7.00004 20.9997 10.134 20.9997 14ZM25.6663 14C25.6663 20.4434 20.443 25.6667 13.9997 25.6667C7.55635 25.6667 2.33301 20.4434 2.33301 14C2.33301 7.55672 7.55635 2.33337 13.9997 2.33337C20.443 2.33337 25.6663 7.55672 25.6663 14Z" stroke="#3C82F6" stroke-width="1.5" stroke-linecap="round"/>
</svg>
