<svg width="73" height="73" viewBox="0 0 73 73" fill="none" xmlns="http://www.w3.org/2000/svg">
<g filter="url(#filter0_d_548_2476)">
<rect x="14" y="10" width="45" height="45" rx="10" fill="#109E51" fill-opacity="0.3" shape-rendering="crispEdges"/>
<rect x="14.5" y="10.5" width="44" height="44" rx="9.5" stroke="#109E51" shape-rendering="crispEdges"/>
</g>
<path opacity="0.4" d="M28.6796 29.794C29.0538 26.4909 31.7709 24 35 24C38.2291 24 40.9462 26.4909 41.3204 29.794L41.6652 32.8385C41.7509 33.595 42.0575 34.3069 42.5445 34.88C43.5779 36.0964 42.7392 38 41.1699 38H28.8301C27.2608 38 26.4221 36.0964 27.4555 34.88C27.9425 34.3069 28.2491 33.595 28.3348 32.8385L28.6796 29.794Z" fill="#109E51"/>
<path d="M35 42C36.385 42 37.5633 41.1652 38 40C38 39.7239 37.7761 39.5 37.5 39.5H32.5C32.2239 39.5 32 39.7239 32 40C32.4367 41.1652 33.615 42 35 42Z" fill="#109E51"/>
<path d="M43 25C43 26.6569 41.6569 28 40 28C38.3431 28 37 26.6569 37 25C37 23.3431 38.3431 22 40 22C41.6569 22 43 23.3431 43 25Z" fill="#109E51"/>
<defs>
<filter id="filter0_d_548_2476" x="0" y="0" width="73" height="73" filterUnits="userSpaceOnUse" color-interpolation-filters="sRGB">
<feFlood flood-opacity="0" result="BackgroundImageFix"/>
<feColorMatrix in="SourceAlpha" type="matrix" values="0 0 0 0 0 0 0 0 0 0 0 0 0 0 0 0 0 0 127 0" result="hardAlpha"/>
<feOffset dy="4"/>
<feGaussianBlur stdDeviation="7"/>
<feComposite in2="hardAlpha" operator="out"/>
<feColorMatrix type="matrix" values="0 0 0 0 0.0627451 0 0 0 0 0.619608 0 0 0 0 0.317647 0 0 0 0.5 0"/>
<feBlend mode="normal" in2="BackgroundImageFix" result="effect1_dropShadow_548_2476"/>
<feBlend mode="normal" in="SourceGraphic" in2="effect1_dropShadow_548_2476" result="shape"/>
</filter>
</defs>
</svg>
