<svg width="45" height="45" viewBox="0 0 45 45" fill="none" xmlns="http://www.w3.org/2000/svg">
<rect width="45" height="45" rx="10" fill="#0A88A8"/>
<path opacity="0.4" d="M14.6796 19.794C15.0538 16.4909 17.7709 14 21 14C24.2291 14 26.9462 16.4909 27.3204 19.794L27.6652 22.8385C27.7509 23.595 28.0575 24.3069 28.5445 24.88C29.5779 26.0964 28.7392 28 27.1699 28H14.8301C13.2608 28 12.4221 26.0964 13.4555 24.88C13.9425 24.3069 14.2491 23.595 14.3348 22.8385L14.6796 19.794Z" fill="white"/>
<path d="M21 32C22.385 32 23.5633 31.1652 24 30C24 29.7239 23.7761 29.5 23.5 29.5H18.5C18.2239 29.5 18 29.7239 18 30C18.4367 31.1652 19.615 32 21 32Z" fill="white"/>
<path d="M29 15C29 16.6569 27.6569 18 26 18C24.3431 18 23 16.6569 23 15C23 13.3431 24.3431 12 26 12C27.6569 12 29 13.3431 29 15Z" fill="white"/>
</svg>
