<svg width="20" height="20" viewBox="0 0 20 20" fill="none" xmlns="http://www.w3.org/2000/svg">
<g clip-path="url(#clip0_461_1947)">
<path d="M10.0003 18.3334C14.6027 18.3334 18.3337 14.6025 18.3337 10.0001C18.3337 5.39771 14.6027 1.66675 10.0003 1.66675C5.39797 1.66675 1.66701 5.39771 1.66701 10.0001C1.66701 11.2596 1.94645 12.4539 2.4467 13.5243L1.89001 16.9579C1.78049 17.6334 2.36653 18.2168 3.04151 18.1043L6.44186 17.5376C7.52101 18.048 8.72734 18.3334 10.0003 18.3334Z" stroke="#1D6362" stroke-width="1.5" stroke-linecap="square" stroke-linejoin="round"/>
<path d="M13.3337 12.5927V12.2292C13.3337 11.7776 13.0588 11.3716 12.6395 11.2039L12.2507 11.0484C11.8161 10.8745 11.3208 11.0629 11.1114 11.4816C11.1114 11.4816 10.1855 11.2964 9.44477 10.5556C8.70403 9.8149 8.51884 8.88897 8.51884 8.88897C8.93753 8.67963 9.12586 8.18429 8.95201 7.74966L8.7965 7.36089C8.6288 6.94165 8.22277 6.66675 7.77124 6.66675H7.40773C6.99863 6.66675 6.66699 6.99839 6.66699 7.40749C6.66699 10.6803 9.32012 13.3334 12.5929 13.3334C13.002 13.3334 13.3337 13.0018 13.3337 12.5927Z" fill="#1D6362"/>
</g>
<defs>
<clipPath id="clip0_461_1947">
<rect width="20" height="20" fill="white"/>
</clipPath>
</defs>
</svg>
