<svg width="35" height="34" viewBox="0 0 35 34" fill="none" xmlns="http://www.w3.org/2000/svg">
<path d="M34.7011 17C34.7011 18.4038 31.9174 19.4229 31.5713 20.7175C31.2133 22.0571 33.1037 24.3294 32.4253 25.5021C31.7371 26.6917 28.8176 26.1856 27.8522 27.1511C26.8867 28.1165 27.3928 31.0358 26.2032 31.7242C25.0305 32.4028 22.7582 30.5122 21.4186 30.8702C20.124 31.2163 19.1049 34 17.7011 34C16.2973 34 15.2782 31.2163 13.9836 30.8702C12.644 30.5122 10.3717 32.4026 9.19903 31.7242C8.00941 31.036 8.51545 28.1165 7.55001 27.1511C6.58457 26.1856 3.66529 26.6917 2.97687 25.5021C2.2983 24.3292 4.18894 22.0571 3.83092 20.7175C3.48464 19.4229 0.700928 18.4038 0.700928 17C0.700928 15.5962 3.48464 14.5771 3.83074 13.2825C4.18877 11.9429 2.2983 9.67062 2.9767 8.49793C3.66494 7.30831 6.5844 7.81435 7.54984 6.84891C8.51528 5.88347 8.00924 2.96419 9.19885 2.27577C10.3715 1.5972 12.6439 3.48784 13.9834 3.12982C15.278 2.78371 16.2973 0 17.7009 0C19.1045 0 20.1238 2.78371 21.4185 3.12982C22.758 3.48784 25.0303 1.59738 26.203 2.27577C27.3926 2.96402 26.8866 5.8833 27.852 6.84891C28.8174 7.81435 31.7367 7.30831 32.4251 8.49793C33.1037 9.67062 31.2131 11.9429 31.5711 13.2825C31.9172 14.5771 34.7009 15.5962 34.7009 17H34.7011Z" fill="#F5C54A"/>
<path d="M34.7011 17C34.7011 18.4038 31.9174 19.4229 31.5713 20.7175C31.2133 22.0571 33.1037 24.3294 32.4253 25.5021C31.7371 26.6917 28.8176 26.1856 27.8522 27.1511C26.8867 28.1165 27.3928 31.0358 26.2032 31.7242C25.0305 32.4028 22.7582 30.5122 21.4186 30.8702C20.124 31.2163 19.1049 34 17.7011 34C16.2973 34 15.2782 31.2163 13.9836 30.8702C12.644 30.5122 10.3717 32.4026 9.19903 31.7242C8.00941 31.036 8.51545 28.1165 7.55001 27.1511C6.58457 26.1856 3.66529 26.6917 2.97687 25.5021C2.2983 24.3292 4.18894 22.0571 3.83092 20.7175C3.48464 19.4229 0.700928 18.4038 0.700928 17C0.700928 15.5962 3.48464 14.5771 3.83074 13.2825C4.18877 11.9429 2.2983 9.67062 2.9767 8.49793C3.66494 7.30831 6.5844 7.81435 7.54984 6.84891C8.51528 5.88347 8.00924 2.96419 9.19885 2.27577C10.3715 1.5972 12.6439 3.48784 13.9834 3.12982C15.278 2.78371 16.2973 0 17.7009 0C19.1045 0 20.1238 2.78371 21.4185 3.12982C22.758 3.48784 25.0303 1.59738 26.203 2.27577C27.3926 2.96402 26.8866 5.8833 27.852 6.84891C28.8174 7.81435 31.7367 7.30831 32.4251 8.49793C33.1037 9.67062 31.2131 11.9429 31.5711 13.2825C31.9172 14.5771 34.7009 15.5962 34.7009 17H34.7011Z" fill="#F5C54A"/>
<path d="M15.0747 22.9541L11.269 19.1485C10.9263 18.8059 10.9263 18.2504 11.269 17.9078L12.3454 16.8313C12.6881 16.4886 13.2435 16.4886 13.5862 16.8313L15.6892 18.9345L22.9799 11.5943C23.3214 11.2504 23.877 11.2487 24.2207 11.5901L25.3006 12.6628C25.6445 13.0043 25.6462 13.5599 25.3048 13.9036L16.3176 22.9521C15.9752 23.2966 15.4181 23.2977 15.0747 22.9541Z" fill="#EDEDED"/>
</svg>
