<svg width="138" height="51" viewBox="0 0 138 51" fill="none" xmlns="http://www.w3.org/2000/svg">
<g clip-path="url(#clip0_514_3634)">
<path d="M108.82 36.7219L100.796 44.661L129.466 44.661L129.466 36.7219L118.95 36.7219L108.82 36.7219Z" fill="#1F4B56"/>
<path d="M101.359 19.3275L101.359 8.89331L93.3491 8.89331L93.3491 37.2897L101.359 29.379L101.359 19.3275Z" fill="#1F4B56"/>
<path d="M101.357 0.982666L101.357 11.5069L126.827 11.5069L126.827 36.7227L137.507 36.7227L137.507 0.982665L101.357 0.982666Z" fill="#14B58A"/>
<path d="M111.501 19.3271L101.357 19.3271L101.357 29.3786L111.501 19.3271Z" fill="#1F4B56"/>
<path d="M118.954 26.6997L108.824 36.7228L118.954 36.7228L118.954 26.6997Z" fill="#1F4B56"/>
<path d="M101.359 36.7228L101.359 29.3792L93.3491 37.2899L93.3491 44.6619L100.8 44.6619L108.823 36.7228L101.359 36.7228Z" fill="#1F4B56"/>
</g>
<path d="M18.9347 22.0937L18.9347 18.3272L23.1034 18.3272L23.1034 22.0937L18.9347 22.0937ZM8.71414 22.0937C7.54326 22.0937 6.52755 21.9245 5.66702 21.5859C4.80648 21.2473 4.09408 20.7959 3.52979 20.2316C2.96551 19.6532 2.54935 18.9972 2.28132 18.2637C2.01328 17.5301 1.87927 16.7683 1.87927 15.9783C1.87927 15.2307 1.98507 14.483 2.19668 13.7353C2.42239 12.9876 2.7539 12.2752 3.19122 11.5981L5.7305 12.7408C5.49068 13.2345 5.30729 13.7071 5.18032 14.1585C5.06746 14.6099 5.01104 15.0402 5.01104 15.4493C5.01104 16.0418 5.14505 16.5567 5.41309 16.994C5.68112 17.4173 6.08317 17.7488 6.61924 17.9886C7.15531 18.2143 7.83245 18.3272 8.65066 18.3272L17.3688 18.3272L17.3688 3.76866L20.6276 3.76866L20.6276 22.0937L8.71414 22.0937ZM23.1034 22.0937L23.1034 18.3272C23.2303 18.3272 23.3291 18.4964 23.3996 18.835C23.4842 19.1736 23.5266 19.625 23.5266 20.1893C23.5266 20.7677 23.4842 21.2332 23.3996 21.5859C23.3291 21.9245 23.2303 22.0937 23.1034 22.0937ZM8.79879 13.5872L8.79879 11.7885C9.46182 11.7885 10.1601 11.7462 10.8937 11.6616C11.6414 11.5769 12.255 11.4711 12.7347 11.3442L12.5442 11.852L10.28 10.9844C9.89914 10.8434 9.617 10.6459 9.4336 10.3919C9.25021 10.1239 9.15852 9.84881 9.15852 9.56667C9.15852 9.04471 9.33485 8.53685 9.68753 8.04311C10.0402 7.54936 10.5269 7.1332 11.1476 6.79463C11.7824 6.44195 12.5301 6.26561 13.3906 6.26561L13.3906 8.25471C12.7981 8.25471 12.2832 8.36051 11.8459 8.57212C11.4086 8.78373 11.07 9.05176 10.8302 9.37622C10.5904 9.68658 10.4705 10.004 10.4705 10.3285L9.94146 8.88953L12.7981 9.98988C13.2778 10.1733 13.6093 10.406 13.7927 10.6882C13.9761 10.9703 14.0678 11.2242 14.0678 11.45C14.0678 11.718 14.0043 11.979 13.8773 12.2329C13.7504 12.4727 13.5035 12.6984 13.1367 12.91C12.784 13.1217 12.255 13.2909 11.5497 13.4179C10.8584 13.5308 9.94146 13.5872 8.79879 13.5872ZM39.8993 22.0937C38.8412 22.0937 37.9313 21.8821 37.1695 21.4589C36.4219 21.0216 35.8435 20.3938 35.4344 19.5756C35.0394 18.7433 34.8419 17.7417 34.8419 16.5708L34.8419 16.1476L37.7409 16.3381L37.889 16.8248C37.9172 17.2198 37.9878 17.5301 38.1006 17.7558C38.2135 17.9674 38.411 18.1156 38.6931 18.2002C38.9894 18.2848 39.3914 18.3272 39.8993 18.3272L40.6822 18.3272L40.6822 22.0937L39.8993 22.0937ZM23.0977 22.0937C22.9708 22.0937 22.872 21.9245 22.8015 21.5859C22.7168 21.2332 22.6745 20.7677 22.6745 20.1893C22.6745 19.625 22.7168 19.1736 22.8015 18.835C22.872 18.4964 22.9708 18.3272 23.0977 18.3272L23.0977 22.0937ZM23.0977 22.0937L23.0977 18.3272C23.6902 18.3272 24.191 18.2355 24.6001 18.0521C25.0234 17.8687 25.4113 17.5795 25.764 17.1845C26.1166 16.7895 26.4834 16.3028 26.8643 15.7244C27.217 15.2024 27.5979 14.6805 28.007 14.1585C28.4161 13.6225 28.8675 13.1358 29.3613 12.6984C29.855 12.247 30.4052 11.8873 31.0118 11.6192C31.6325 11.3512 32.3308 11.2172 33.1067 11.2172C33.8967 11.2172 34.595 11.3865 35.2016 11.7251C35.8082 12.0495 36.3161 12.5009 36.7252 13.0793C37.1343 13.6577 37.4446 14.3349 37.6562 15.1107C37.8678 15.8725 37.9736 16.6978 37.9736 17.5865C37.9736 18.3765 37.8749 19.23 37.6774 20.147C37.4799 21.0498 37.1907 21.8892 36.8098 22.6651L33.7204 21.3108C34.0448 20.7465 34.2917 20.147 34.461 19.5122C34.6303 18.8773 34.7149 18.2355 34.7149 17.5865C34.7149 16.6696 34.5668 15.9995 34.2705 15.5763C33.9884 15.139 33.5863 14.9203 33.0644 14.9203C32.7117 14.9203 32.352 15.0261 31.9852 15.2377C31.6184 15.4352 31.2305 15.7526 30.8214 16.1899C30.4123 16.6273 29.9749 17.1986 29.5094 17.9039C28.8605 18.8773 28.2186 19.6744 27.5838 20.2951C26.9631 20.9017 26.3 21.3531 25.5947 21.6494C24.8893 21.9456 24.057 22.0937 23.0977 22.0937ZM36.6405 18.8985L36.8098 22.6651C35.4132 22.7497 34.2 22.7427 33.1702 22.6439C32.1404 22.5452 31.2375 22.3618 30.4616 22.0937C29.6998 21.8257 29.0157 21.4871 28.409 21.078C27.8166 20.6689 27.2593 20.1963 26.7374 19.6603L28.8957 17.3749C29.3754 17.8687 29.9608 18.2425 30.6521 18.4964C31.3433 18.7363 32.1756 18.8844 33.149 18.9408C34.1224 18.9831 35.2862 18.969 36.6405 18.8985ZM40.6822 22.0937L40.6822 18.3272C40.8092 18.3272 40.9079 18.4964 40.9784 18.835C41.0631 19.1736 41.1054 19.625 41.1054 20.1893C41.1054 20.7677 41.0631 21.2332 40.9784 21.5859C40.9079 21.9245 40.8092 22.0937 40.6822 22.0937ZM49.2534 28.5477C48.4352 28.5477 47.624 28.3996 46.8199 28.1034C46.0158 27.8071 45.2823 27.3627 44.6192 26.7702C43.9562 26.1919 43.4201 25.4794 43.011 24.633C42.6019 23.7866 42.3974 22.8062 42.3974 21.6917L42.3974 18.8773C42.3974 17.4525 42.5737 16.197 42.9264 15.1107C43.2932 14.0104 43.7799 13.0934 44.3865 12.3599C45.0072 11.6122 45.7196 11.0479 46.5237 10.667C47.3419 10.2861 48.2165 10.0957 49.1476 10.0957C50.1633 10.0957 51.0591 10.3143 51.835 10.7517C52.625 11.1749 53.2457 11.7674 53.6971 12.5292C54.1627 13.2768 54.3954 14.1515 54.3954 15.1531C54.3954 16.1688 54.1486 17.1069 53.6548 17.9674C53.1752 18.8139 52.498 19.5474 51.6234 20.1681C50.7629 20.7747 49.7472 21.2473 48.5763 21.5859C47.4195 21.9245 46.1569 22.0937 44.7885 22.0937L40.6834 22.0937L40.6834 18.3272L45.4868 18.3272C46.5872 18.3272 47.5606 18.1861 48.407 17.9039C49.2534 17.6218 49.9164 17.2409 50.3961 16.7613C50.8898 16.2675 51.1367 15.7174 51.1367 15.1107C51.1367 14.7581 51.0521 14.4548 50.8828 14.2008C50.7135 13.9469 50.4737 13.7494 50.1633 13.6083C49.853 13.4673 49.4791 13.3967 49.0418 13.3967C48.3647 13.3967 47.7722 13.5942 47.2643 13.9892C46.7565 14.3701 46.3615 14.9626 46.0793 15.7667C45.7972 16.5567 45.6561 17.5936 45.6561 18.8773L45.6561 21.7129C45.6561 22.39 45.8042 22.9966 46.1005 23.5327C46.3967 24.0687 46.7988 24.4849 47.3066 24.7811C47.8145 25.0915 48.3858 25.2467 49.0206 25.2467C49.4721 25.2467 49.853 25.1691 50.1633 25.0139C50.4737 24.8587 50.7135 24.633 50.8828 24.3368C51.0521 24.0546 51.1367 23.709 51.1367 23.2999C51.1367 22.8062 51.0097 22.2912 50.7558 21.7552C50.5019 21.205 50.0928 20.7324 49.5285 20.3374L50.8828 18.306C53.2245 19.5192 54.3954 21.2685 54.3954 23.5538C54.3954 24.6401 54.1556 25.55 53.676 26.2835C53.2104 27.0171 52.5897 27.5743 51.8138 27.9552C51.0379 28.3502 50.1845 28.5477 49.2534 28.5477ZM56.1941 22.0937C54.5859 22.0937 53.2457 21.9245 52.1736 21.5859C51.1155 21.2332 50.2338 20.8171 49.5285 20.3374L51.3271 17.2056C51.8491 17.5442 52.5262 17.8193 53.3586 18.0309C54.1909 18.2284 55.1361 18.3272 56.1941 18.3272L56.1941 22.0937ZM56.1941 22.0937L56.1941 18.3272C56.321 18.3272 56.4198 18.4964 56.4903 18.835C56.575 19.1736 56.6173 19.625 56.6173 20.1893C56.6173 20.7677 56.575 21.2332 56.4903 21.5859C56.4198 21.9245 56.321 22.0937 56.1941 22.0937ZM40.6834 22.0937C40.5564 22.0937 40.4576 21.9245 40.3871 21.5859C40.3025 21.2332 40.2601 20.7677 40.2601 20.1893C40.2601 19.625 40.3025 19.1736 40.3871 18.835C40.4576 18.4964 40.5564 18.3272 40.6834 18.3272L40.6834 22.0937ZM71.5651 22.0937C70.9021 22.0937 70.2602 21.9456 69.6395 21.6494C69.0188 21.3531 68.4898 20.8876 68.0525 20.2528C67.6292 19.618 67.3753 18.8139 67.2907 17.8405L69.1528 16.8671C69.2092 17.389 69.4138 17.784 69.7665 18.0521C70.1332 18.3201 70.5212 18.4541 70.9303 18.4541C71.3817 18.4541 71.7838 18.2989 72.1365 17.9886C72.5032 17.6782 72.6866 17.2056 72.6866 16.5708L72.6866 11.2384L75.9454 11.2384L75.9454 17.0998C75.9454 18.2425 75.7267 19.1877 75.2894 19.9354C74.8662 20.6689 74.3231 21.2121 73.66 21.5647C72.997 21.9174 72.2987 22.0937 71.5651 22.0937ZM56.2025 22.0937L56.2025 18.3272L57.3663 18.3272C57.9165 18.3272 58.3327 18.2778 58.6148 18.179C58.9111 18.0803 59.1086 17.9039 59.2073 17.65C59.3202 17.382 59.3766 17.0223 59.3766 16.5708L59.3766 13.3121L62.6353 13.3121L62.6353 16.5708C62.6353 17.7417 62.4308 18.7433 62.0217 19.5756C61.6126 20.3938 61.013 21.0216 60.223 21.4589C59.4471 21.8821 58.4949 22.0937 57.3663 22.0937L56.2025 22.0937ZM64.9418 22.0937C64.2647 22.0937 63.6158 21.9456 62.9951 21.6494C62.3885 21.3531 61.8665 20.8876 61.4292 20.2528C61.006 19.618 60.745 18.8139 60.6462 17.8405L62.5295 16.8671C62.586 17.389 62.7905 17.784 63.1432 18.0521C63.4959 18.3201 63.8768 18.4541 64.2859 18.4541C64.7373 18.4541 65.1393 18.2989 65.492 17.9886C65.8588 17.6782 66.0422 17.2056 66.0422 16.5708L66.0422 12.2752L69.3009 12.2752L69.3009 17.0998C69.3009 18.2425 69.0893 19.1877 68.6661 19.9354C68.2429 20.6689 67.6998 21.2121 67.0367 21.5647C66.3737 21.9174 65.6754 22.0937 64.9418 22.0937ZM56.2025 22.0937C56.0756 22.0937 55.9768 21.9245 55.9063 21.5859C55.8216 21.2332 55.7793 20.7677 55.7793 20.1893C55.7793 19.625 55.8216 19.1736 55.9063 18.835C55.9768 18.4964 56.0756 18.3272 56.2025 18.3272L56.2025 22.0937Z" fill="#1F4B56"/>
<path d="M8.26807 40.6015C7.74802 40.3311 7.25918 40.1231 6.80154 39.9775C6.3439 39.8319 5.93826 39.7591 5.58463 39.7591C5.35581 39.7591 5.16339 39.8059 5.00738 39.8995C4.86176 39.9827 4.78896 40.1179 4.78896 40.3051C4.78896 40.4923 4.89297 40.6432 5.10099 40.7576C5.3194 40.8616 5.59503 40.9656 5.92786 41.0696C6.27109 41.1632 6.62992 41.2672 7.00436 41.3816C7.37879 41.496 7.73242 41.652 8.06525 41.8497C8.40848 42.0369 8.68411 42.2917 8.89213 42.6141C9.10015 42.9262 9.20416 43.3266 9.20416 43.8154C9.20416 44.3875 9.04814 44.8763 8.73611 45.282C8.43449 45.6876 8.01325 45.9944 7.4724 46.2025C6.94195 46.4105 6.3283 46.5145 5.63143 46.5145C4.92417 46.5145 4.24291 46.4157 3.58765 46.2181C2.93239 46.0204 2.34474 45.724 1.82469 45.3288L2.69837 43.5658C3.18721 43.8986 3.69166 44.1587 4.2117 44.3459C4.73175 44.5227 5.2258 44.6111 5.69384 44.6111C5.87065 44.6111 6.02147 44.5903 6.14628 44.5487C6.28149 44.5071 6.3855 44.4499 6.45831 44.3771C6.54152 44.2939 6.58312 44.1899 6.58312 44.0651C6.58312 43.8674 6.47911 43.7114 6.27109 43.597C6.06307 43.4722 5.79265 43.3682 5.45982 43.285C5.12699 43.1914 4.77336 43.0874 4.39892 42.973C4.02449 42.8586 3.67086 42.7077 3.33803 42.5205C3.0156 42.3229 2.75037 42.0681 2.54235 41.7561C2.33433 41.444 2.23033 41.0436 2.23033 40.5547C2.23033 39.9723 2.38114 39.4834 2.68277 39.0882C2.99479 38.6826 3.40563 38.3757 3.91528 38.1677C4.43532 37.9597 5.02818 37.8557 5.69384 37.8557C6.30749 37.8557 6.91595 37.9389 7.5192 38.1053C8.12246 38.2613 8.68411 38.5006 9.20416 38.823L8.26807 40.6015ZM13.816 42.8169C13.4207 42.8169 13.1243 42.8898 12.9267 43.0354C12.7395 43.1706 12.6459 43.389 12.6459 43.6906C12.6459 43.9923 12.7447 44.2315 12.9423 44.4083C13.1399 44.5747 13.4207 44.6579 13.7848 44.6579C14.0656 44.6579 14.3204 44.6111 14.5492 44.5175C14.7884 44.4239 14.9861 44.2939 15.1421 44.1275C15.3085 43.9507 15.4177 43.753 15.4697 43.5346L15.8597 44.7671C15.6309 45.3392 15.2669 45.776 14.7676 46.0776C14.2684 46.3793 13.6547 46.5301 12.9267 46.5301C12.3234 46.5301 11.8034 46.4157 11.3665 46.1869C10.9401 45.958 10.6125 45.646 10.3836 45.2508C10.1548 44.8555 10.0404 44.4031 10.0404 43.8934C10.0404 43.0926 10.316 42.4685 10.8673 42.0213C11.4289 41.574 12.2298 41.3452 13.2699 41.3348L15.7349 41.3348L15.7349 42.8169L13.816 42.8169ZM15.4697 41.2412C15.4697 40.8356 15.3345 40.5183 15.0641 40.2895C14.7936 40.0607 14.3932 39.9463 13.8628 39.9463C13.5091 39.9463 13.1139 40.0035 12.6771 40.1179C12.2402 40.2323 11.793 40.4039 11.3353 40.6328L10.5709 38.7918C11.0181 38.5942 11.4497 38.4278 11.8658 38.2925C12.2922 38.1469 12.7239 38.0377 13.1607 37.9649C13.5975 37.8921 14.0448 37.8557 14.5024 37.8557C15.6777 37.8557 16.5826 38.1261 17.2171 38.667C17.8619 39.1974 18.1896 39.9463 18.2 40.9136L18.2 46.4053L15.4697 46.4053L15.4697 41.2412ZM26.0098 41.8653C26.0098 41.3868 25.8798 41.0072 25.6198 40.7264C25.3597 40.4455 25.0113 40.3051 24.5745 40.3051C24.0648 40.3155 23.6592 40.5027 23.3576 40.8668C23.0663 41.2204 22.9207 41.678 22.9207 42.2397L22.2499 42.2397C22.2499 41.2828 22.3903 40.4819 22.6711 39.8371C22.9519 39.1818 23.3524 38.6878 23.8724 38.3549C24.3925 38.0221 25.0061 37.8557 25.7134 37.8557C26.3374 37.8557 26.8783 37.9909 27.3359 38.2613C27.7936 38.5214 28.1472 38.8958 28.3968 39.3846C28.6568 39.8631 28.7869 40.4299 28.7869 41.0852L28.7869 46.4053L26.0098 46.4053L26.0098 41.8653ZM20.1437 34.829L22.9207 34.829L22.9207 46.4053L20.1437 46.4053L20.1437 34.829ZM36.4114 41.8653C36.4114 41.3764 36.2866 40.9968 36.037 40.7264C35.7874 40.4455 35.4493 40.3051 35.0229 40.3051C34.5341 40.3155 34.144 40.5027 33.8528 40.8668C33.5616 41.2204 33.416 41.678 33.416 42.2397L32.7607 42.2397C32.7607 41.2828 32.8959 40.4819 33.1663 39.8371C33.4472 39.1818 33.8424 38.6878 34.352 38.3549C34.8617 38.0221 35.4649 37.8557 36.1618 37.8557C36.7755 37.8557 37.3059 37.9909 37.7532 38.2613C38.2108 38.5214 38.5644 38.8958 38.8141 39.3846C39.0637 39.8631 39.1885 40.4299 39.1885 41.0852L39.1885 46.4053L36.4114 46.4053L36.4114 41.8653ZM42.1684 41.8653C42.1684 41.3764 42.0435 40.9968 41.7939 40.7264C41.5443 40.4455 41.2063 40.3051 40.7798 40.3051C40.291 40.3155 39.9009 40.5027 39.6097 40.8668C39.3289 41.2204 39.1885 41.678 39.1885 42.2397L38.5176 42.2397C38.5176 41.2828 38.6528 40.4819 38.9233 39.8371C39.2041 39.1818 39.5993 38.6878 40.109 38.3549C40.6186 38.0221 41.2219 37.8557 41.9187 37.8557C42.5324 37.8557 43.0628 37.9909 43.5101 38.2613C43.9677 38.5214 44.3214 38.8958 44.571 39.3846C44.8206 39.8631 44.9454 40.4299 44.9454 41.0852L44.9454 46.4053L42.1684 46.4053L42.1684 41.8653ZM30.6545 37.9805L33.416 37.9805L33.416 46.4053L30.6545 46.4053L30.6545 37.9805ZM46.9129 34.829L49.6899 34.829L49.6899 46.4053L46.9129 46.4053L46.9129 34.829ZM52.389 37.9805L55.5405 37.9805L49.5339 44.2835L49.5339 41.0384L52.389 37.9805ZM52.2486 40.9136L55.6029 46.4053L52.3266 46.4053L50.2048 42.5829L52.2486 40.9136ZM57.5501 43.8622C57.9454 43.8622 58.2678 43.9871 58.5174 44.2367C58.767 44.4759 58.8918 44.7931 58.8918 45.1884C58.8918 45.5836 58.767 45.906 58.5174 46.1556C58.2678 46.4053 57.9454 46.5301 57.5501 46.5301C57.1653 46.5301 56.8481 46.4053 56.5984 46.1556C56.3488 45.906 56.224 45.5836 56.224 45.1884C56.224 44.7931 56.3488 44.4759 56.5984 44.2367C56.8481 43.9871 57.1653 43.8622 57.5501 43.8622ZM66.1639 40.6015C65.6439 40.3311 65.155 40.1231 64.6974 39.9775C64.2398 39.8319 63.8341 39.7591 63.4805 39.7591C63.2517 39.7591 63.0593 39.8059 62.9032 39.8995C62.7576 39.9827 62.6848 40.1179 62.6848 40.3051C62.6848 40.4923 62.7888 40.6432 62.9968 40.7576C63.2153 40.8616 63.4909 40.9656 63.8237 41.0696C64.167 41.1632 64.5258 41.2672 64.9002 41.3816C65.2747 41.496 65.6283 41.652 65.9611 41.8497C66.3043 42.0369 66.58 42.2917 66.788 42.6141C66.996 42.9262 67.1 43.3266 67.1 43.8154C67.1 44.3875 66.944 44.8763 66.632 45.282C66.3303 45.6876 65.9091 45.9944 65.3683 46.2025C64.8378 46.4105 64.2242 46.5145 63.5273 46.5145C62.82 46.5145 62.1388 46.4157 61.4835 46.2181C60.8283 46.0204 60.2406 45.724 59.7206 45.3288L60.5942 43.5658C61.0831 43.8986 61.5875 44.1587 62.1076 44.3459C62.6276 44.5227 63.1217 44.6111 63.5897 44.6111C63.7665 44.6111 63.9173 44.5903 64.0421 44.5487C64.1774 44.5071 64.2814 44.4499 64.3542 44.3771C64.4374 44.2939 64.479 44.1899 64.479 44.0651C64.479 43.8674 64.375 43.7114 64.167 43.597C63.9589 43.4722 63.6885 43.3682 63.3557 43.285C63.0228 43.1914 62.6692 43.0874 62.2948 42.973C61.9204 42.8586 61.5667 42.7077 61.2339 42.5205C60.9115 42.3229 60.6462 42.0681 60.4382 41.7561C60.2302 41.444 60.1262 41.0436 60.1262 40.5547C60.1262 39.9723 60.277 39.4834 60.5786 39.0882C60.8907 38.6826 61.3015 38.3757 61.8111 38.1677C62.3312 37.9597 62.924 37.8557 63.5897 37.8557C64.2034 37.8557 64.8118 37.9389 65.4151 38.1053C66.0183 38.2613 66.58 38.5006 67.1 38.823L66.1639 40.6015ZM71.7118 42.8169C71.3166 42.8169 71.0202 42.8898 70.8225 43.0354C70.6353 43.1706 70.5417 43.389 70.5417 43.6906C70.5417 43.9923 70.6405 44.2315 70.8381 44.4083C71.0358 44.5747 71.3166 44.6579 71.6806 44.6579C71.9614 44.6579 72.2163 44.6111 72.4451 44.5175C72.6843 44.4239 72.8819 44.2939 73.0379 44.1275C73.2044 43.9506 73.3136 43.753 73.3656 43.5346L73.7556 44.7671C73.5268 45.3392 73.1627 45.776 72.6635 46.0776C72.1643 46.3793 71.5506 46.5301 70.8225 46.5301C70.2193 46.5301 69.6992 46.4157 69.2624 46.1869C68.836 45.958 68.5083 45.646 68.2795 45.2508C68.0507 44.8555 67.9363 44.4031 67.9363 43.8934C67.9363 43.0926 68.2119 42.4685 68.7632 42.0213C69.3248 41.574 70.1257 41.3452 71.1658 41.3348L73.6308 41.3348L73.6308 42.8169L71.7118 42.8169ZM73.3656 41.2412C73.3656 40.8356 73.2304 40.5183 72.9599 40.2895C72.6895 40.0607 72.2891 39.9463 71.7586 39.9463C71.405 39.9463 71.0098 40.0035 70.5729 40.1179C70.1361 40.2323 69.6888 40.4039 69.2312 40.6327L68.4667 38.7918C68.914 38.5942 69.3456 38.4277 69.7616 38.2925C70.1881 38.1469 70.6197 38.0377 71.0566 37.9649C71.4934 37.8921 71.9406 37.8557 72.3983 37.8557C73.5736 37.8557 74.4785 38.1261 75.1129 38.667C75.7578 39.1974 76.0854 39.9463 76.0958 40.9136L76.0958 46.4053L73.3656 46.4053L73.3656 41.2412Z" fill="#1F4B56"/>
<defs>
<clipPath id="clip0_514_3634">
<rect width="44.1591" height="43.6791" fill="white" transform="translate(93.3486 0.982422)"/>
</clipPath>
</defs>
</svg>
