<svg width="168" height="61" viewBox="0 0 168 61" fill="none" xmlns="http://www.w3.org/2000/svg">
<g clip-path="url(#clip0_514_3804)">
<path d="M132.305 44.123L122.565 53.7608L157.37 53.7608L157.37 44.123L144.603 44.123L132.305 44.123Z" fill="#1D6362"/>
<path d="M123.249 23.0061L123.249 10.3394L113.526 10.3394L113.526 44.8115L123.249 35.2082L123.249 23.0061Z" fill="#1D6362"/>
<path d="M123.245 0.736572L123.245 13.5126L154.165 13.5126L154.165 44.1236L167.129 44.1236L167.129 0.736571L123.245 0.736572Z" fill="#14B58A"/>
<path d="M135.56 23.0056L123.245 23.0056L123.245 35.2077L135.56 23.0056Z" fill="#1D6362"/>
<path d="M144.61 31.9565L132.313 44.1242L144.61 44.1242L144.61 31.9565Z" fill="#1D6362"/>
<path d="M123.249 44.1239L123.249 35.209L113.526 44.8123L113.526 53.7616L122.571 53.7616L132.311 44.1239L123.249 44.1239Z" fill="#14B58A"/>
</g>
<path d="M22.3085 25.8713L22.3085 21.2988L27.369 21.2988L27.369 25.8713L22.3085 25.8713ZM9.90104 25.8713C8.47963 25.8713 7.24659 25.6658 6.20194 25.2548C5.15728 24.8438 4.29245 24.2958 3.60743 23.6108C2.92241 22.9086 2.41721 22.1123 2.09182 21.2218C1.76644 20.3312 1.60375 19.4065 1.60375 18.4474C1.60375 17.5398 1.73219 16.6321 1.98907 15.7245C2.26308 14.8168 2.66553 13.952 3.19642 13.13L6.279 14.5171C5.98787 15.1165 5.76524 15.6902 5.61111 16.2383C5.47411 16.7863 5.4056 17.3086 5.4056 17.8052C5.4056 18.5245 5.5683 19.1496 5.89368 19.6805C6.21906 20.1942 6.70714 20.5967 7.35791 20.8878C8.00868 21.1618 8.8307 21.2988 9.82398 21.2988L20.4075 21.2988L20.4075 3.62534L24.3635 3.62534L24.3635 25.8713L9.90104 25.8713ZM27.369 25.8713L27.369 21.2988C27.5232 21.2988 27.643 21.5043 27.7287 21.9154C27.8314 22.3264 27.8828 22.8744 27.8828 23.5594C27.8828 24.2615 27.8314 24.8267 27.7287 25.2548C27.643 25.6658 27.5232 25.8713 27.369 25.8713ZM10.0038 15.5447L10.0038 13.3612C10.8087 13.3612 11.6564 13.3098 12.5469 13.207C13.4546 13.1043 14.1995 12.9759 14.7818 12.8217L14.5506 13.4382L11.802 12.385C11.3396 12.2138 10.9971 11.974 10.7744 11.6658C10.5518 11.3404 10.4405 11.0064 10.4405 10.6639C10.4405 10.0303 10.6546 9.41375 11.0827 8.81436C11.5108 8.21497 12.1017 7.70977 12.8552 7.29875C13.6258 6.87062 14.5335 6.65655 15.5781 6.65655L15.5781 9.07124C14.8589 9.07124 14.2338 9.19968 13.7029 9.45656C13.172 9.71345 12.761 10.0388 12.4699 10.4327C12.1787 10.8095 12.0332 11.1948 12.0332 11.5887L11.391 9.84189L14.8589 11.1777C15.4411 11.4003 15.8436 11.6829 16.0662 12.0254C16.2888 12.3679 16.4002 12.6762 16.4002 12.9502C16.4002 13.2755 16.3231 13.5924 16.169 13.9006C16.0148 14.1918 15.7151 14.4658 15.2699 14.7227C14.8417 14.9795 14.1995 15.185 13.3433 15.3392C12.5041 15.4762 11.391 15.5447 10.0038 15.5447ZM47.7587 25.8713C46.4742 25.8713 45.3697 25.6145 44.4449 25.1007C43.5372 24.5698 42.8351 23.8077 42.3384 22.8144C41.8589 21.804 41.6192 20.5881 41.6192 19.1667L41.6192 18.6529L45.1385 18.8841L45.3183 19.475C45.3525 19.9545 45.4382 20.3312 45.5752 20.6053C45.7122 20.8621 45.9519 21.042 46.2944 21.1447C46.6541 21.2475 47.1421 21.2988 47.7587 21.2988L48.7091 21.2988L48.7091 25.8713L47.7587 25.8713ZM27.3622 25.8713C27.2081 25.8713 27.0882 25.6658 27.0026 25.2548C26.8998 24.8267 26.8484 24.2615 26.8484 23.5594C26.8484 22.8744 26.8998 22.3264 27.0026 21.9154C27.0882 21.5043 27.2081 21.2988 27.3622 21.2988L27.3622 25.8713ZM27.3622 25.8713L27.3622 21.2988C28.0815 21.2988 28.6894 21.1875 29.1861 20.9649C29.6998 20.7423 30.1708 20.3912 30.5989 19.9117C31.0271 19.4322 31.4723 18.8413 31.9347 18.1392C32.3628 17.5055 32.8252 16.8719 33.3219 16.2383C33.8185 15.5875 34.3665 14.9967 34.9659 14.4658C35.5653 13.9178 36.2332 13.4811 36.9696 13.1557C37.7231 12.8303 38.5708 12.6676 39.5127 12.6676C40.4718 12.6676 41.3195 12.8731 42.0559 13.2841C42.7923 13.678 43.4088 14.226 43.9054 14.9282C44.4021 15.6303 44.7788 16.4523 45.0357 17.3942C45.2926 18.319 45.421 19.3208 45.421 20.3997C45.421 21.3588 45.3011 22.3949 45.0614 23.508C44.8216 24.6041 44.4706 25.623 44.0082 26.5649L40.2577 24.9209C40.6516 24.2359 40.9513 23.508 41.1568 22.7374C41.3623 21.9667 41.465 21.1875 41.465 20.3997C41.465 19.2866 41.2852 18.4731 40.9256 17.9594C40.5831 17.4285 40.095 17.163 39.4614 17.163C39.0332 17.163 38.5965 17.2915 38.1513 17.5484C37.706 17.7881 37.235 18.1734 36.7384 18.7043C36.2418 19.2352 35.7109 19.9288 35.1457 20.7851C34.358 21.9667 33.5788 22.9343 32.8081 23.6878C32.0546 24.4242 31.2497 24.9722 30.3934 25.3319C29.5371 25.6915 28.5267 25.8713 27.3622 25.8713ZM43.8027 21.9924L44.0082 26.5649C42.3128 26.6677 40.84 26.6591 39.5898 26.5392C38.3396 26.4194 37.2436 26.1967 36.3017 25.8713C35.3769 25.546 34.5463 25.1349 33.81 24.6383C33.0907 24.1417 32.4142 23.568 31.7806 22.9172L34.4008 20.1429C34.983 20.7423 35.6938 21.1961 36.5329 21.5043C37.3721 21.7955 38.3825 21.9753 39.5641 22.0438C40.7458 22.0952 42.1586 22.078 43.8027 21.9924ZM48.7091 25.8713L48.7091 21.2988C48.8632 21.2988 48.9831 21.5043 49.0688 21.9154C49.1715 22.3264 49.2229 22.8744 49.2229 23.5594C49.2229 24.2615 49.1715 24.8267 49.0688 25.2548C48.9831 25.6658 48.8632 25.8713 48.7091 25.8713ZM59.1143 33.7062C58.121 33.7062 57.1363 33.5264 56.1601 33.1668C55.184 32.8072 54.2934 32.2677 53.4885 31.5484C52.6836 30.8463 52.0329 29.9815 51.5362 28.9539C51.0396 27.9264 50.7913 26.7362 50.7913 25.3833L50.7913 21.9667C50.7913 20.2371 51.0053 18.7129 51.4335 17.3942C51.8787 16.0584 52.4696 14.9453 53.206 14.0548C53.9595 13.1471 54.8243 12.4621 55.8005 11.9997C56.7937 11.5373 57.8555 11.3061 58.9858 11.3061C60.2188 11.3061 61.3063 11.5716 62.2482 12.1025C63.2072 12.6162 63.9608 13.3355 64.5088 14.2603C65.0739 15.1679 65.3565 16.2297 65.3565 17.4456C65.3565 18.6786 65.0568 19.8175 64.4574 20.8621C63.8751 21.8897 63.0531 22.7802 61.9913 23.5337C60.9467 24.2701 59.7136 24.8438 58.2922 25.2548C56.8879 25.6658 55.3552 25.8713 53.694 25.8713L48.7105 25.8713L48.7105 21.2988L54.5417 21.2988C55.8775 21.2988 57.0592 21.1276 58.0867 20.7851C59.1143 20.4426 59.9191 19.9802 60.5014 19.3979C61.1008 18.7985 61.4005 18.1306 61.4005 17.3942C61.4005 16.9661 61.2977 16.5979 61.0922 16.2896C60.8867 15.9814 60.5956 15.7416 60.2188 15.5704C59.8421 15.3991 59.3883 15.3135 58.8574 15.3135C58.0353 15.3135 57.3161 15.5532 56.6996 16.0327C56.083 16.4951 55.6035 17.2144 55.261 18.1906C54.9185 19.1496 54.7473 20.4083 54.7473 21.9667L54.7473 25.4089C54.7473 26.231 54.9271 26.9674 55.2867 27.6181C55.6463 28.2689 56.1344 28.7741 56.7509 29.1337C57.3675 29.5105 58.061 29.6989 58.8317 29.6989C59.3797 29.6989 59.8421 29.6047 60.2188 29.4163C60.5956 29.2279 60.8867 28.9539 61.0922 28.5943C61.2978 28.2518 61.4005 27.8322 61.4005 27.3356C61.4005 26.7362 61.2464 26.1111 60.9381 25.4603C60.6299 24.7924 60.1332 24.2187 59.4482 23.7392L61.0922 21.2731C63.9351 22.7459 65.3565 24.8695 65.3565 27.6438C65.3565 28.9625 65.0654 30.0671 64.4831 30.9576C63.9179 31.8481 63.1644 32.5246 62.2225 32.987C61.2806 33.4665 60.2445 33.7062 59.1143 33.7062ZM67.54 25.8713C65.5877 25.8713 63.9608 25.6658 62.6592 25.2548C61.3748 24.8267 60.3045 24.3215 59.4482 23.7392L61.6317 19.9374C62.2653 20.3484 63.0874 20.6823 64.0978 20.9392C65.1082 21.179 66.2556 21.2988 67.54 21.2988L67.54 25.8713ZM67.54 25.8713L67.54 21.2988C67.6941 21.2988 67.814 21.5043 67.8996 21.9154C68.0024 22.3264 68.0538 22.8744 68.0538 23.5594C68.0538 24.2615 68.0024 24.8267 67.8996 25.2548C67.814 25.6658 67.6941 25.8713 67.54 25.8713ZM48.7105 25.8713C48.5564 25.8713 48.4365 25.6658 48.3509 25.2548C48.2481 24.8267 48.1968 24.2615 48.1968 23.5594C48.1968 22.8744 48.2481 22.3264 48.3509 21.9154C48.4365 21.5043 48.5564 21.2988 48.7105 21.2988L48.7105 25.8713ZM86.1999 25.8713C85.395 25.8713 84.6158 25.6915 83.8622 25.3319C83.1087 24.9722 82.4665 24.4071 81.9356 23.6365C81.4219 22.8658 81.1136 21.8897 81.0108 20.708L83.2714 19.5263C83.3399 20.16 83.5882 20.6395 84.0164 20.9649C84.4616 21.2903 84.9326 21.453 85.4292 21.453C85.9772 21.453 86.4653 21.2646 86.8934 20.8878C87.3387 20.5111 87.5613 19.9374 87.5613 19.1667L87.5613 12.6933L91.5173 12.6933L91.5173 19.8089C91.5173 21.1961 91.2519 22.3435 90.721 23.2511C90.2072 24.1417 89.5479 24.801 88.743 25.2291C87.9381 25.6573 87.0904 25.8713 86.1999 25.8713ZM67.5502 25.8713L67.5502 21.2988L68.9631 21.2988C69.631 21.2988 70.1362 21.2389 70.4787 21.119C70.8383 20.9991 71.0781 20.7851 71.1979 20.4768C71.3349 20.1514 71.4035 19.7147 71.4035 19.1667L71.4034 15.2107L75.3594 15.2107L75.3594 19.1667C75.3594 20.5881 75.1111 21.804 74.6145 22.8144C74.1178 23.8077 73.39 24.5698 72.431 25.1007C71.4891 25.6145 70.3331 25.8713 68.9631 25.8713L67.5502 25.8713ZM78.1595 25.8713C77.3374 25.8713 76.5497 25.6915 75.7961 25.3319C75.0597 24.9722 74.4261 24.4071 73.8952 23.6365C73.3814 22.8658 73.0646 21.8897 72.9447 20.708L75.231 19.5263C75.2995 20.16 75.5478 20.6395 75.976 20.9649C76.4041 21.2903 76.8665 21.453 77.3631 21.453C77.9111 21.453 78.3992 21.2646 78.8273 20.8878C79.2726 20.5111 79.4952 19.9374 79.4952 19.1667L79.4952 13.952L83.4512 13.952L83.4512 19.8089C83.4512 21.1961 83.1943 22.3435 82.6806 23.2511C82.1668 24.1417 81.5075 24.801 80.7026 25.2291C79.8977 25.6573 79.05 25.8713 78.1595 25.8713ZM67.5502 25.8713C67.3961 25.8713 67.2762 25.6658 67.1906 25.2548C67.0878 24.8267 67.0365 24.2615 67.0365 23.5594C67.0365 22.8744 67.0878 22.3264 67.1906 21.9154C67.2762 21.5043 67.3961 21.2988 67.5502 21.2988L67.5502 25.8713Z" fill="#F6F4F0"/>
<path d="M9.42243 48.6237C8.79111 48.2954 8.19767 48.0429 7.64211 47.8661C7.08655 47.6893 6.59413 47.6009 6.16483 47.6009C5.88705 47.6009 5.65346 47.6578 5.46407 47.7714C5.2873 47.8724 5.19891 48.0365 5.19891 48.2638C5.19891 48.4911 5.32518 48.6742 5.5777 48.8131C5.84286 48.9393 6.17746 49.0656 6.5815 49.1919C6.99817 49.3055 7.43378 49.4318 7.88833 49.5707C8.34288 49.7095 8.77217 49.8989 9.17622 50.1388C9.59289 50.3661 9.92749 50.6755 10.18 51.0669C10.4325 51.4457 10.5588 51.9318 10.5588 52.5252C10.5588 53.2197 10.3694 53.8131 9.99062 54.3055C9.62445 54.798 9.11309 55.1704 8.45652 55.423C7.81257 55.6755 7.06761 55.8018 6.22165 55.8018C5.36305 55.8018 4.53603 55.6818 3.74057 55.4419C2.9451 55.202 2.23171 54.8422 1.6004 54.3624L2.66101 52.2222C3.25445 52.6262 3.86683 52.9419 4.49815 53.1692C5.12947 53.3838 5.72922 53.4911 6.29741 53.4911C6.51205 53.4911 6.69514 53.4659 6.84665 53.4154C7.0108 53.3649 7.13706 53.2954 7.22544 53.207C7.32646 53.106 7.37696 52.9798 7.37696 52.8283C7.37696 52.5884 7.2507 52.399 6.99817 52.2601C6.74564 52.1086 6.41736 51.9823 6.01331 51.8813C5.60927 51.7676 5.17997 51.6414 4.72542 51.5025C4.27087 51.3636 3.84158 51.1805 3.43753 50.9532C3.04612 50.7133 2.72414 50.404 2.47162 50.0252C2.21909 49.6464 2.09282 49.1603 2.09282 48.5669C2.09282 47.8598 2.27591 47.2663 2.64207 46.7865C3.02086 46.2941 3.5196 45.9216 4.1383 45.6691C4.76962 45.4166 5.48932 45.2903 6.29741 45.2903C7.04236 45.2903 7.781 45.3913 8.51333 45.5933C9.24566 45.7827 9.92749 46.0731 10.5588 46.4646L9.42243 48.6237ZM16.1574 51.3131C15.6776 51.3131 15.3177 51.4015 15.0778 51.5782C14.8505 51.7424 14.7369 52.0075 14.7369 52.3737C14.7369 52.7399 14.8569 53.0303 15.0968 53.2449C15.3367 53.4469 15.6776 53.548 16.1195 53.548C16.4604 53.548 16.7697 53.4911 17.0475 53.3775C17.3379 53.2639 17.5778 53.106 17.7672 52.904C17.9693 52.6894 18.1018 52.4495 18.165 52.1843L18.6384 53.6805C18.3607 54.375 17.9187 54.9053 17.3127 55.2715C16.7066 55.6376 15.9617 55.8207 15.0778 55.8207C14.3455 55.8207 13.7142 55.6818 13.1839 55.404C12.6662 55.1263 12.2684 54.7475 11.9907 54.2677C11.7129 53.7879 11.574 53.2386 11.574 52.6199C11.574 51.6477 11.9086 50.8901 12.5778 50.3472C13.2596 49.8042 14.2318 49.5265 15.4945 49.5138L18.4869 49.5138L18.4869 51.3131L16.1574 51.3131ZM18.165 49.4002C18.165 48.9078 18.0008 48.5227 17.6725 48.2449C17.3442 47.9671 16.8581 47.8282 16.2142 47.8282C15.7849 47.8282 15.3051 47.8977 14.7748 48.0365C14.2445 48.1754 13.7015 48.3838 13.146 48.6616L12.2179 46.4267C12.7609 46.1868 13.2849 45.9848 13.7899 45.8206C14.3076 45.6439 14.8316 45.5113 15.3619 45.4229C15.8922 45.3345 16.4351 45.2903 16.9907 45.2903C18.4175 45.2903 19.516 45.6186 20.2862 46.2752C21.069 46.9191 21.4668 47.8282 21.4794 49.0025L21.4794 55.6692L18.165 55.6692L18.165 49.4002ZM30.9603 50.1578C30.9603 49.577 30.8024 49.1161 30.4868 48.7752C30.1711 48.4343 29.7481 48.2638 29.2178 48.2638C28.5991 48.2764 28.1067 48.5037 27.7405 48.9456C27.387 49.3749 27.2102 49.9305 27.2102 50.6123L26.3958 50.6123C26.3958 49.4507 26.5663 48.4785 26.9072 47.6956C27.2481 46.9002 27.7342 46.3004 28.3655 45.8964C28.9969 45.4923 29.7418 45.2903 30.6004 45.2903C31.358 45.2903 32.0146 45.4545 32.5701 45.7827C33.1257 46.0984 33.555 46.5529 33.858 47.1464C34.1737 47.7272 34.3315 48.4153 34.3315 49.2108L34.3315 55.6692L30.9603 55.6692L30.9603 50.1578ZM23.839 41.616L27.2102 41.616L27.2102 55.6692L23.839 55.6692L23.839 41.616ZM43.5875 50.1578C43.5875 49.5643 43.4359 49.1035 43.1329 48.7752C42.8299 48.4343 42.4195 48.2638 41.9018 48.2638C41.3084 48.2764 40.8349 48.5037 40.4814 48.9456C40.1278 49.3749 39.9511 49.9305 39.9511 50.6123L39.1556 50.6123C39.1556 49.4507 39.3198 48.4785 39.648 47.6956C39.9889 46.9002 40.4688 46.3004 41.0874 45.8964C41.7061 45.4923 42.4385 45.2903 43.2844 45.2903C44.0294 45.2903 44.6733 45.4545 45.2163 45.7827C45.7718 46.0984 46.2011 46.5529 46.5042 47.1464C46.8072 47.7272 46.9587 48.4153 46.9587 49.2108L46.9587 55.6692L43.5875 55.6692L43.5875 50.1578ZM50.5762 50.1578C50.5762 49.5643 50.4246 49.1035 50.1216 48.7752C49.8186 48.4343 49.4082 48.2638 48.8905 48.2638C48.2971 48.2764 47.8236 48.5037 47.4701 48.9456C47.1292 49.3749 46.9587 49.9305 46.9587 50.6123L46.1443 50.6123C46.1443 49.4507 46.3084 48.4785 46.6367 47.6956C46.9776 46.9002 47.4574 46.3004 48.0761 45.8964C48.6948 45.4923 49.4272 45.2903 50.2731 45.2903C51.0181 45.2903 51.662 45.4545 52.205 45.7827C52.7605 46.0984 53.1898 46.5529 53.4929 47.1464C53.7959 47.7272 53.9474 48.4153 53.9474 49.2108L53.9474 55.6692L50.5762 55.6692L50.5762 50.1578ZM36.5988 45.4418L39.9511 45.4418L39.9511 55.6692L36.5988 55.6692L36.5988 45.4418ZM56.3359 41.616L59.7071 41.616L59.7071 55.6692L56.3359 55.6692L56.3359 41.616ZM62.9836 45.4418L66.8094 45.4418L59.5177 53.0934L59.5177 49.154L62.9836 45.4418ZM62.8132 49.0025L66.8852 55.6692L62.9079 55.6692L60.3321 51.029L62.8132 49.0025ZM69.2491 52.582C69.7289 52.582 70.1203 52.7336 70.4233 53.0366C70.7264 53.327 70.8779 53.7121 70.8779 54.1919C70.8779 54.6717 70.7264 55.0631 70.4233 55.3662C70.1203 55.6692 69.7289 55.8207 69.2491 55.8207C68.7819 55.8207 68.3968 55.6692 68.0938 55.3662C67.7907 55.0631 67.6392 54.6717 67.6392 54.1919C67.6392 53.7121 67.7907 53.327 68.0938 53.0366C68.3968 52.7336 68.7819 52.582 69.2491 52.582ZM79.7059 48.6237C79.0746 48.2954 78.4812 48.0429 77.9256 47.8661C77.3701 47.6893 76.8776 47.6009 76.4483 47.6009C76.1705 47.6009 75.937 47.6578 75.7476 47.7714C75.5708 47.8724 75.4824 48.0365 75.4824 48.2638C75.4824 48.4911 75.6087 48.6742 75.8612 48.8131C76.1264 48.9393 76.461 49.0656 76.865 49.1919C77.2817 49.3055 77.7173 49.4318 78.1718 49.5707C78.6264 49.7095 79.0557 49.8989 79.4597 50.1388C79.8764 50.3661 80.211 50.6755 80.4635 51.0669C80.716 51.4457 80.8423 51.9318 80.8423 52.5252C80.8423 53.2197 80.6529 53.8131 80.2741 54.3055C79.908 54.798 79.3966 55.1704 78.74 55.423C78.0961 55.6755 77.3511 55.8018 76.5051 55.8018C75.6466 55.8018 74.8195 55.6818 74.0241 55.4419C73.2286 55.202 72.5152 54.8422 71.8839 54.3624L72.9445 52.2222C73.538 52.6262 74.1503 52.9419 74.7816 53.1692C75.413 53.3838 76.0127 53.4911 76.5809 53.4911C76.7956 53.4911 76.9786 53.4659 77.1302 53.4154C77.2943 53.3649 77.4206 53.2954 77.5089 53.207C77.61 53.106 77.6605 52.9798 77.6605 52.8283C77.6605 52.5884 77.5342 52.399 77.2817 52.2601C77.0291 52.1086 76.7009 51.9823 76.2968 51.8813C75.8928 51.7676 75.4635 51.6414 75.0089 51.5025C74.5544 51.3636 74.1251 51.1805 73.721 50.9532C73.3296 50.7133 73.0076 50.404 72.7551 50.0252C72.5026 49.6464 72.3763 49.1603 72.3763 48.5669C72.3763 47.8598 72.5594 47.2663 72.9256 46.7865C73.3044 46.2941 73.8031 45.9216 74.4218 45.6691C75.0531 45.4166 75.7728 45.2903 76.5809 45.2903C77.3259 45.2903 78.0645 45.3913 78.7968 45.5933C79.5292 45.7827 80.211 46.0731 80.8423 46.4646L79.7059 48.6237ZM86.4409 51.3131C85.9611 51.3131 85.6012 51.4015 85.3613 51.5782C85.134 51.7424 85.0204 52.0075 85.0204 52.3737C85.0204 52.7399 85.1404 53.0303 85.3803 53.2449C85.6202 53.4469 85.9611 53.548 86.403 53.548C86.7439 53.548 87.0532 53.4911 87.331 53.3775C87.6214 53.2639 87.8613 53.106 88.0507 52.904C88.2528 52.6894 88.3853 52.4495 88.4485 52.1843L88.9219 53.6805C88.6442 54.375 88.2022 54.9053 87.5962 55.2715C86.9901 55.6376 86.2452 55.8207 85.3613 55.8207C84.629 55.8207 83.9977 55.6818 83.4674 55.404C82.9497 55.1263 82.5519 54.7475 82.2742 54.2677C81.9964 53.7879 81.8575 53.2386 81.8575 52.6199C81.8575 51.6477 82.1921 50.8901 82.8613 50.3472C83.5431 49.8042 84.5153 49.5265 85.778 49.5138L88.7704 49.5138L88.7704 51.3131L86.4409 51.3131ZM88.4485 49.4002C88.4485 48.9078 88.2843 48.5227 87.956 48.2449C87.6277 47.9671 87.1416 47.8282 86.4977 47.8282C86.0684 47.8282 85.5886 47.8977 85.0583 48.0365C84.528 48.1754 83.985 48.3838 83.4295 48.6616L82.5014 46.4267C83.0444 46.1868 83.5684 45.9848 84.0734 45.8206C84.5911 45.6438 85.1151 45.5113 85.6454 45.4229C86.1757 45.3345 86.7186 45.2903 87.2742 45.2903C88.701 45.2903 89.7995 45.6186 90.5697 46.2752C91.3525 46.9191 91.7503 47.8282 91.7629 49.0025L91.7629 55.6692L88.4485 55.6692L88.4485 49.4002Z" fill="#F6F4F0"/>
<defs>
<clipPath id="clip0_514_3804">
<rect width="53.6075" height="53.0248" fill="white" transform="translate(113.526 0.736328)"/>
</clipPath>
</defs>
</svg>
